<svg xmlns="http://www.w3.org/2000/svg" xmlns:xlink="http://www.w3.org/1999/xlink" width="512" zoomAndPan="magnify" viewBox="0 0 384 383.999986" height="512" preserveAspectRatio="xMidYMid meet" version="1.0"><defs><clipPath id="8bc4905aa0"><path d="M 0.363281 44 L 272.25 44 L 272.25 322.753906 L 0.363281 322.753906 Z M 0.363281 44 " clip-rule="nonzero"/></clipPath><clipPath id="f2854a6e11"><path d="M 190 29 L 254 29 L 254 83 L 190 83 Z M 190 29 " clip-rule="nonzero"/></clipPath><clipPath id="c828c0f835"><path d="M 175.539062 40.652344 L 239.636719 17.207031 L 255.867188 61.582031 L 191.773438 85.027344 Z M 175.539062 40.652344 " clip-rule="nonzero"/></clipPath><clipPath id="3ea66b6a43"><path d="M 175.539062 40.652344 L 239.636719 17.207031 L 255.867188 61.582031 L 191.773438 85.027344 Z M 175.539062 40.652344 " clip-rule="nonzero"/></clipPath><clipPath id="ff0054c4bb"><path d="M 189 27 L 256 27 L 256 85 L 189 85 Z M 189 27 " clip-rule="nonzero"/></clipPath><clipPath id="b7a129c9fc"><path d="M 175.539062 40.652344 L 239.636719 17.207031 L 255.867188 61.582031 L 191.773438 85.027344 Z M 175.539062 40.652344 " clip-rule="nonzero"/></clipPath><clipPath id="9848ba4375"><path d="M 175.539062 40.652344 L 239.636719 17.207031 L 255.867188 61.582031 L 191.773438 85.027344 Z M 175.539062 40.652344 " clip-rule="nonzero"/></clipPath><clipPath id="603400b2f1"><path d="M 325 252 L 379.855469 252 L 379.855469 357 L 325 357 Z M 325 252 " clip-rule="nonzero"/></clipPath><clipPath id="07edb2a92f"><path d="M 233 220.667969 L 325 220.667969 L 325 378.917969 L 233 378.917969 Z M 233 220.667969 " clip-rule="nonzero"/></clipPath><clipPath id="a68075ed68"><path d="M 215.605469 283 L 247 283 L 247 318 L 215.605469 318 Z M 215.605469 283 " clip-rule="nonzero"/></clipPath><clipPath id="b5e9d02376"><path d="M 259 349 L 292 349 L 292 378.917969 L 259 378.917969 Z M 259 349 " clip-rule="nonzero"/></clipPath><clipPath id="3ebdf03861"><path d="M 215.605469 305 L 247 305 L 247 318 L 215.605469 318 Z M 215.605469 305 " clip-rule="nonzero"/></clipPath><clipPath id="48da653cf0"><path d="M 276 349 L 292 349 L 292 378.917969 L 276 378.917969 Z M 276 349 " clip-rule="nonzero"/></clipPath><clipPath id="7f8451a254"><path d="M 347 252 L 379.855469 252 L 379.855469 342 L 347 342 Z M 347 252 " clip-rule="nonzero"/></clipPath><clipPath id="55f6d552cf"><path d="M 255 220.667969 L 288 220.667969 L 288 311 L 255 311 Z M 255 220.667969 " clip-rule="nonzero"/></clipPath><clipPath id="1d6cdbd511"><path d="M 366 303 L 379.855469 303 L 379.855469 319 L 366 319 Z M 366 303 " clip-rule="nonzero"/></clipPath><clipPath id="a8b4bffb94"><path d="M 360 301 L 379.855469 301 L 379.855469 307 L 360 307 Z M 360 301 " clip-rule="nonzero"/></clipPath><clipPath id="2aadb62986"><path d="M 255 220.667969 L 277 220.667969 L 277 226 L 255 226 Z M 255 220.667969 " clip-rule="nonzero"/></clipPath><clipPath id="28e581bf99"><path d="M 215.605469 308 L 230 308 L 230 318 L 215.605469 318 Z M 215.605469 308 " clip-rule="nonzero"/></clipPath><clipPath id="5ba76904b0"><path d="M 288 362 L 292 362 L 292 378.917969 L 288 378.917969 Z M 288 362 " clip-rule="nonzero"/></clipPath></defs><path fill="#000000" d="M 238.417969 76.601562 C 238.785156 76.757812 239.128906 76.945312 239.457031 77.171875 C 239.78125 77.394531 240.085938 77.648438 240.363281 77.929688 C 240.640625 78.214844 240.886719 78.519531 241.101562 78.851562 C 241.320312 79.183594 241.5 79.535156 241.648438 79.902344 C 241.796875 80.269531 241.90625 80.648438 241.980469 81.039062 C 242.054688 81.425781 242.089844 81.820312 242.085938 82.214844 C 242.082031 82.613281 242.039062 83.003906 241.957031 83.394531 C 241.875 83.78125 241.757812 84.15625 241.601562 84.523438 C 241.445312 84.886719 241.257812 85.234375 241.035156 85.558594 C 240.8125 85.886719 240.558594 86.191406 240.277344 86.46875 C 239.992188 86.746094 239.6875 86.992188 239.355469 87.207031 C 239.023438 87.425781 238.675781 87.609375 238.308594 87.757812 C 237.9375 87.902344 237.5625 88.015625 237.171875 88.089844 C 236.785156 88.160156 236.390625 88.195312 235.996094 88.191406 C 235.597656 88.1875 235.207031 88.144531 234.820312 88.0625 C 234.433594 87.984375 234.058594 87.863281 233.691406 87.710938 C 233.328125 87.554688 232.984375 87.363281 232.65625 87.140625 C 232.328125 86.917969 232.027344 86.664062 231.75 86.382812 C 231.472656 86.097656 231.226562 85.789062 231.011719 85.457031 C 230.792969 85.128906 230.609375 84.777344 230.464844 84.410156 C 230.316406 84.042969 230.203125 83.664062 230.132812 83.273438 C 230.058594 82.882812 230.023438 82.492188 230.027344 82.09375 C 230.03125 81.699219 230.074219 81.304688 230.15625 80.917969 C 230.238281 80.53125 230.355469 80.152344 230.511719 79.789062 C 230.664062 79.425781 230.855469 79.078125 231.078125 78.75 C 231.300781 78.421875 231.554688 78.121094 231.835938 77.84375 C 232.117188 77.566406 232.425781 77.320312 232.757812 77.101562 C 233.089844 76.886719 233.4375 76.703125 233.804688 76.554688 C 234.171875 76.40625 234.550781 76.296875 234.941406 76.222656 C 235.328125 76.148438 235.722656 76.113281 236.117188 76.117188 C 236.511719 76.121094 236.90625 76.164062 237.292969 76.246094 C 237.679688 76.328125 238.054688 76.445312 238.417969 76.601562 Z M 238.417969 76.601562 " fill-opacity="1" fill-rule="nonzero"/><g clip-path="url(#8bc4905aa0)"><path fill="#000000" d="M 0.917969 249.40625 C 1.15625 248.976562 1.496094 248.644531 1.933594 248.421875 C 2.375 248.195312 2.839844 248.113281 3.328125 248.175781 L 5.523438 248.394531 C 5.550781 248.089844 5.628906 247.800781 5.765625 247.523438 C 7.539062 243.648438 9.84375 240.121094 12.6875 236.949219 C 13.488281 236.074219 14.375 235.304688 15.351562 234.632812 C 16.328125 233.960938 17.363281 233.40625 18.464844 232.972656 C 19.5625 232.535156 20.699219 232.226562 21.867188 232.042969 C 23.039062 231.863281 24.214844 231.816406 25.394531 231.898438 C 27.277344 232.179688 29.050781 232.785156 30.714844 233.714844 C 32.375 234.648438 33.816406 235.847656 35.039062 237.308594 C 35.730469 238.164062 36.363281 239.058594 36.945312 239.988281 C 37.230469 237.539062 37.898438 235.195312 38.945312 232.960938 C 41.71875 227 47.457031 220.886719 53.992188 220.886719 C 57.796875 220.9375 61.460938 221.667969 64.988281 223.085938 C 64.527344 222.109375 64.171875 221.09375 63.921875 220.042969 C 63.671875 218.988281 63.535156 217.921875 63.503906 216.84375 C 63.476562 215.761719 63.558594 214.691406 63.75 213.625 C 63.945312 212.5625 64.246094 211.53125 64.652344 210.527344 C 65.324219 209.25 66.152344 208.078125 67.132812 207.015625 C 68.117188 205.953125 69.21875 205.039062 70.441406 204.269531 C 71.667969 203.5 72.96875 202.902344 74.351562 202.476562 C 75.734375 202.050781 77.144531 201.8125 78.589844 201.761719 C 81.445312 201.554688 84.242188 201.867188 86.980469 202.703125 C 85.957031 199.84375 85.730469 196.921875 86.304688 193.9375 C 87.269531 188.480469 90.886719 182.6875 96.796875 182.128906 C 100.105469 182.042969 103.320312 182.542969 106.449219 183.628906 C 109.574219 184.710938 112.410156 186.3125 114.953125 188.433594 C 115.363281 185.539062 116.117188 182.738281 117.222656 180.03125 C 117.671875 178.867188 118.234375 177.761719 118.914062 176.714844 C 119.59375 175.667969 120.375 174.703125 121.253906 173.820312 C 122.132812 172.9375 123.09375 172.152344 124.140625 171.46875 C 125.183594 170.785156 126.285156 170.21875 127.445312 169.765625 C 128.230469 169.542969 129.023438 169.378906 129.832031 169.273438 C 130.636719 169.164062 131.449219 169.117188 132.261719 169.128906 C 133.074219 169.136719 133.882812 169.207031 134.6875 169.332031 C 135.492188 169.460938 136.28125 169.644531 137.058594 169.886719 C 137.835938 170.128906 138.59375 170.425781 139.328125 170.777344 C 140.0625 171.128906 140.765625 171.53125 141.445312 171.988281 C 142.121094 172.441406 142.761719 172.941406 143.363281 173.488281 C 143.96875 174.03125 144.53125 174.621094 145.050781 175.25 C 146.417969 176.84375 147.535156 178.597656 148.402344 180.511719 C 148.441406 180.257812 148.5 180.011719 148.570312 179.765625 C 149.097656 177.808594 149.941406 176 151.101562 174.339844 C 152.261719 172.683594 153.667969 171.269531 155.320312 170.105469 C 156.292969 169.527344 157.316406 169.058594 158.386719 168.695312 C 159.460938 168.328125 160.554688 168.082031 161.679688 167.945312 C 162.800781 167.808594 163.925781 167.792969 165.054688 167.890625 C 166.179688 167.992188 167.285156 168.207031 168.367188 168.535156 C 168.058594 167.019531 167.941406 165.492188 168.015625 163.945312 C 168.09375 162.402344 168.359375 160.894531 168.8125 159.414062 C 169.269531 157.9375 169.898438 156.542969 170.707031 155.222656 C 171.511719 153.90625 172.46875 152.707031 173.574219 151.632812 C 173.136719 151.484375 172.710938 151.308594 172.296875 151.097656 C 171.46875 150.601562 170.703125 150.019531 170 149.351562 C 169.296875 148.6875 168.671875 147.953125 168.125 147.15625 C 167.582031 146.355469 167.128906 145.503906 166.765625 144.605469 C 166.402344 143.707031 166.140625 142.78125 165.980469 141.828125 C 165.632812 140.289062 165.484375 138.730469 165.53125 137.152344 C 165.582031 135.578125 165.824219 134.03125 166.265625 132.515625 C 166.707031 131.003906 167.332031 129.566406 168.136719 128.210938 C 168.941406 126.855469 169.902344 125.625 171.019531 124.511719 C 173.183594 122.570312 175.699219 121.363281 178.566406 120.890625 C 176.660156 119.6875 175.0625 118.160156 173.765625 116.316406 C 172.46875 114.46875 171.578125 112.445312 171.09375 110.242188 C 170.835938 108.644531 170.800781 107.042969 170.988281 105.4375 C 171.175781 103.832031 171.578125 102.28125 172.199219 100.789062 C 172.820312 99.296875 173.632812 97.914062 174.636719 96.648438 C 175.640625 95.382812 176.796875 94.277344 178.109375 93.335938 C 175.238281 90.921875 172.925781 86.695312 173.984375 79.425781 C 174.121094 78.605469 174.320312 77.796875 174.574219 77.007812 C 174.832031 76.214844 175.148438 75.445312 175.523438 74.703125 C 175.894531 73.957031 176.320312 73.246094 176.800781 72.5625 C 177.28125 71.882812 177.8125 71.246094 178.386719 70.644531 C 178.964844 70.042969 179.582031 69.492188 180.242188 68.984375 C 180.902344 68.476562 181.597656 68.023438 182.328125 67.621094 C 183.054688 67.21875 183.808594 66.875 184.589844 66.585938 C 185.371094 66.296875 186.167969 66.070312 186.984375 65.902344 C 189.433594 65.476562 191.84375 65.628906 194.21875 66.363281 C 193.785156 64.53125 193.652344 62.675781 193.820312 60.800781 C 193.992188 58.925781 194.453125 57.125 195.207031 55.398438 C 195.65625 54.460938 196.175781 53.5625 196.769531 52.707031 C 197.363281 51.851562 198.019531 51.050781 198.742188 50.300781 C 199.464844 49.550781 200.246094 48.867188 201.078125 48.246094 C 201.914062 47.621094 202.789062 47.070312 203.714844 46.589844 C 204.636719 46.109375 205.589844 45.707031 206.578125 45.378906 C 207.566406 45.054688 208.574219 44.8125 209.601562 44.648438 C 210.628906 44.484375 211.660156 44.40625 212.703125 44.410156 C 213.742188 44.417969 214.773438 44.503906 215.800781 44.675781 C 216.804688 44.890625 217.789062 45.171875 218.753906 45.523438 C 219.722656 45.875 220.65625 46.289062 221.5625 46.773438 C 222.46875 47.257812 223.339844 47.800781 224.167969 48.40625 C 225 49.011719 225.78125 49.675781 226.519531 50.390625 C 227.253906 51.109375 227.9375 51.871094 228.566406 52.6875 C 229.195312 53.5 229.765625 54.351562 230.273438 55.246094 C 230.785156 56.140625 231.226562 57.0625 231.605469 58.019531 C 231.984375 58.976562 232.292969 59.953125 232.535156 60.953125 C 235.453125 60.253906 238.417969 59.671875 241.652344 59.191406 C 253.082031 56.96875 261.425781 60.496094 266.34375 69.742188 C 268.792969 74.851562 270.402344 80.210938 271.167969 85.828125 C 272.460938 91.480469 272.695312 97.179688 271.867188 102.921875 C 271.625 104.476562 271.195312 105.972656 270.578125 107.417969 C 269.960938 108.863281 269.179688 110.207031 268.226562 111.457031 C 267.277344 112.703125 266.183594 113.816406 264.957031 114.792969 C 263.726562 115.765625 262.398438 116.578125 260.964844 117.21875 C 258.523438 118.046875 256.015625 118.515625 253.441406 118.621094 C 251.179688 118.667969 248.984375 119.089844 246.859375 119.875 C 244.804688 120.921875 243.027344 122.324219 241.527344 124.074219 C 240.03125 125.828125 238.921875 127.800781 238.203125 129.992188 C 236.601562 135.21875 235.796875 140.5625 235.789062 146.027344 L 235.597656 149.820312 C 233.042969 199.105469 230.414062 250.058594 212.617188 296.667969 C 210.964844 301.882812 208.304688 306.519531 204.636719 310.574219 C 200.777344 314.390625 194.21875 317.191406 188.261719 314.851562 C 181.027344 312.074219 179.265625 304.78125 177.484375 297.730469 C 176.753906 294.289062 175.636719 290.980469 174.128906 287.804688 C 173.445312 286.535156 172.605469 285.375 171.613281 284.328125 C 170.625 283.277344 169.511719 282.375 168.285156 281.621094 C 167.054688 280.867188 165.75 280.285156 164.367188 279.875 C 162.984375 279.46875 161.570312 279.246094 160.128906 279.210938 C 158.6875 279.175781 157.265625 279.328125 155.867188 279.667969 C 154.464844 280.007812 153.132812 280.523438 151.867188 281.21875 C 150.601562 281.910156 149.449219 282.757812 148.40625 283.753906 C 147.367188 284.753906 146.472656 285.867188 145.722656 287.105469 C 143.792969 290.796875 142.554688 294.707031 142.011719 298.839844 C 141.355469 303.382812 139.980469 307.699219 137.886719 311.785156 C 136.902344 313.433594 135.722656 314.933594 134.351562 316.28125 C 132.976562 317.628906 131.457031 318.777344 129.789062 319.734375 C 128.121094 320.6875 126.359375 321.414062 124.503906 321.910156 C 122.648438 322.410156 120.757812 322.664062 118.835938 322.675781 C 117.710938 322.671875 116.59375 322.578125 115.484375 322.382812 C 114.402344 322.195312 113.339844 321.929688 112.296875 321.582031 C 111.253906 321.238281 110.242188 320.816406 109.261719 320.320312 C 108.28125 319.820312 107.339844 319.253906 106.445312 318.621094 C 105.546875 317.984375 104.703125 317.285156 103.90625 316.523438 C 103.113281 315.761719 102.382812 314.945312 101.707031 314.078125 C 101.035156 313.207031 100.429688 312.289062 99.894531 311.332031 C 99.355469 310.371094 98.894531 309.375 98.503906 308.347656 C 98.113281 307.316406 97.800781 306.265625 97.566406 305.191406 C 97.089844 302.394531 96.894531 299.574219 96.988281 296.738281 C 97.289062 293.148438 96.789062 289.667969 95.492188 286.308594 C 91.925781 279.0625 81.84375 277.902344 71.378906 277.78125 C 37.234375 277.371094 14.230469 268.96875 1.136719 252.0625 C 0.835938 251.683594 0.667969 251.25 0.628906 250.769531 C 0.589844 250.285156 0.683594 249.832031 0.917969 249.40625 Z M 31.230469 240.519531 C 31.011719 240.222656 30.78125 239.9375 30.53125 239.667969 C 30.28125 239.394531 30.015625 239.140625 29.738281 238.898438 C 29.457031 238.65625 29.164062 238.433594 28.859375 238.226562 C 28.554688 238.019531 28.238281 237.832031 27.910156 237.664062 C 27.582031 237.496094 27.246094 237.34375 26.902344 237.214844 C 26.558594 237.085938 26.207031 236.976562 25.847656 236.886719 C 25.492188 236.796875 25.128906 236.726562 24.765625 236.679688 C 24.398438 236.632812 24.03125 236.609375 23.664062 236.605469 C 23.296875 236.601562 22.929688 236.617188 22.5625 236.65625 C 22.195312 236.695312 21.832031 236.753906 21.472656 236.835938 C 21.113281 236.917969 20.761719 237.019531 20.414062 237.140625 C 20.066406 237.265625 19.726562 237.40625 19.394531 237.570312 C 19.0625 237.730469 18.742188 237.914062 18.433594 238.113281 C 18.125 238.3125 17.824219 238.527344 17.542969 238.761719 C 17.257812 238.996094 16.988281 239.246094 16.730469 239.511719 C 16.476562 239.777344 16.238281 240.058594 16.011719 240.351562 C 13.734375 242.890625 11.875 245.707031 10.441406 248.804688 C 19.058594 249.511719 27.660156 249.367188 36.246094 248.371094 C 36.140625 248.261719 36.046875 248.148438 35.957031 248.03125 C 34.671875 245.34375 33.097656 242.839844 31.230469 240.519531 Z M 43.285156 235.160156 C 42.78125 236.082031 42.390625 237.046875 42.117188 238.0625 C 41.839844 239.074219 41.6875 240.105469 41.660156 241.15625 C 41.628906 242.207031 41.722656 243.246094 41.941406 244.273438 C 42.160156 245.300781 42.496094 246.289062 42.949219 247.234375 L 44.203125 247.015625 C 49.394531 245.945312 54.363281 244.226562 59.113281 241.867188 C 63.863281 239.503906 68.230469 236.578125 72.222656 233.082031 C 71.007812 231.929688 69.695312 230.902344 68.285156 230 C 66.875 229.097656 65.394531 228.335938 63.839844 227.714844 C 62.285156 227.09375 60.683594 226.625 59.042969 226.3125 C 57.398438 225.996094 55.738281 225.839844 54.066406 225.839844 C 50.28125 225.839844 45.699219 229.703125 43.285156 235.160156 Z M 78.855469 206.496094 C 77.84375 206.519531 76.847656 206.675781 75.875 206.957031 C 74.902344 207.242188 73.980469 207.644531 73.113281 208.167969 C 72.242188 208.6875 71.457031 209.3125 70.75 210.042969 C 70.042969 210.769531 69.441406 211.578125 68.945312 212.460938 C 68.367188 213.964844 68.132812 215.523438 68.242188 217.128906 C 68.351562 218.738281 68.792969 220.25 69.570312 221.660156 C 71.183594 224.609375 73.289062 227.144531 75.890625 229.269531 C 76.613281 228.445312 77.335938 227.625 77.988281 226.851562 C 80.082031 223.945312 82.003906 220.929688 83.75 217.796875 C 85.445312 214.785156 87.292969 211.871094 89.296875 209.054688 C 87.726562 208.109375 86.050781 207.414062 84.269531 206.980469 C 82.488281 206.542969 80.683594 206.382812 78.855469 206.496094 Z M 97.15625 186.863281 C 93.757812 187.203125 91.613281 191.042969 90.960938 194.710938 C 90.308594 198.382812 90.960938 202.125 93.636719 203.792969 C 96.363281 201.226562 99.375 199.058594 102.671875 197.289062 C 105.964844 195.515625 109.433594 194.199219 113.074219 193.335938 C 112.035156 192.285156 110.898438 191.351562 109.671875 190.53125 C 108.441406 189.710938 107.144531 189.023438 105.777344 188.46875 C 104.410156 187.910156 103 187.496094 101.546875 187.226562 C 100.097656 186.957031 98.632812 186.835938 97.15625 186.863281 Z M 141.3125 178.339844 C 140.582031 177.4375 139.738281 176.65625 138.785156 176 C 137.832031 175.339844 136.804688 174.828125 135.703125 174.46875 C 134.601562 174.105469 133.46875 173.90625 132.3125 173.871094 C 131.152344 173.835938 130.011719 173.964844 128.890625 174.257812 C 127.210938 174.96875 125.742188 175.984375 124.484375 177.308594 C 123.226562 178.632812 122.285156 180.148438 121.65625 181.863281 C 120.390625 185.144531 119.585938 188.53125 119.246094 192.03125 C 123.824219 191.273438 128.429688 190.808594 133.0625 190.628906 L 140.128906 190.390625 L 146.085938 190.195312 C 145.886719 188.027344 145.378906 185.9375 144.566406 183.917969 C 143.753906 181.898438 142.667969 180.039062 141.3125 178.339844 Z M 157.855469 174.183594 C 156.667969 175.023438 155.664062 176.035156 154.832031 177.226562 C 154.003906 178.417969 153.402344 179.714844 153.03125 181.117188 C 152.296875 183.984375 151.886719 186.898438 151.800781 189.859375 C 155.464844 189.613281 159.097656 189.140625 162.699219 188.433594 C 165.726562 187.894531 168.628906 186.964844 171.402344 185.640625 C 174.175781 184.316406 176.726562 182.648438 179.050781 180.632812 C 178.230469 179.859375 177.410156 179.136719 176.636719 178.4375 C 175.078125 177.652344 173.648438 176.679688 172.347656 175.515625 C 171.574219 175.078125 170.777344 174.644531 169.933594 174.210938 C 169.007812 173.707031 168.03125 173.328125 167.011719 173.066406 C 165.988281 172.808594 164.953125 172.675781 163.898438 172.675781 C 162.84375 172.671875 161.804688 172.800781 160.78125 173.054688 C 159.757812 173.3125 158.78125 173.6875 157.851562 174.183594 Z M 172.804688 163.679688 C 172.5 165.671875 172.730469 167.59375 173.503906 169.453125 C 173.902344 170.261719 174.421875 170.976562 175.070312 171.601562 C 176.441406 172.421875 177.753906 173.332031 179 174.332031 C 180.136719 174.863281 181.414062 175.367188 182.523438 175.804688 C 184.78125 170.660156 186.019531 165.285156 186.234375 159.671875 L 186.453125 157.523438 C 186.453125 157.039062 186.453125 156.558594 186.597656 156.097656 C 186.261719 155.503906 185.824219 154.996094 185.285156 154.574219 C 184.746094 154.15625 184.148438 153.859375 183.488281 153.683594 C 182.585938 153.417969 181.667969 153.332031 180.734375 153.421875 C 179.800781 153.515625 178.917969 153.777344 178.085938 154.214844 C 177.308594 154.742188 176.601562 155.355469 175.964844 156.046875 C 175.328125 156.742188 174.78125 157.5 174.324219 158.320312 C 173.867188 159.144531 173.507812 160.007812 173.25 160.910156 C 172.996094 161.816406 172.84375 162.742188 172.804688 163.679688 Z M 170.609375 140.980469 C 170.78125 142.214844 171.199219 143.359375 171.867188 144.410156 C 172.539062 145.460938 173.398438 146.320312 174.445312 146.996094 C 175.898438 147.59375 177.410156 147.929688 178.976562 148.007812 L 187.34375 148.902344 C 187.851562 142.648438 188.140625 136.367188 188.214844 130.140625 C 188.214844 129.246094 188.214844 128.351562 188.214844 127.457031 C 187.472656 127.6875 186.78125 127.582031 186.140625 127.144531 C 185.679688 126.851562 185.203125 126.59375 184.703125 126.378906 C 184.203125 126.164062 183.6875 125.992188 183.160156 125.863281 C 182.628906 125.730469 182.09375 125.648438 181.550781 125.605469 C 181.007812 125.566406 180.46875 125.570312 179.925781 125.617188 C 179.382812 125.667969 178.847656 125.757812 178.320312 125.898438 C 177.792969 126.035156 177.28125 126.214844 176.785156 126.4375 C 176.289062 126.660156 175.8125 126.921875 175.359375 127.222656 C 174.90625 127.523438 174.480469 127.859375 174.082031 128.230469 C 173.277344 129.058594 172.589844 129.976562 172.019531 130.980469 C 171.445312 131.984375 171.007812 133.042969 170.703125 134.15625 C 170.402344 135.273438 170.242188 136.40625 170.226562 137.5625 C 170.210938 138.71875 170.335938 139.859375 170.609375 140.980469 Z M 175.769531 109.347656 C 175.9375 110.042969 176.160156 110.71875 176.441406 111.375 C 176.71875 112.03125 177.054688 112.660156 177.441406 113.261719 C 177.828125 113.863281 178.265625 114.425781 178.75 114.949219 C 179.230469 115.476562 179.757812 115.957031 180.320312 116.394531 C 180.886719 116.828125 181.484375 117.214844 182.117188 117.550781 C 182.746094 117.882812 183.402344 118.160156 184.078125 118.382812 C 184.757812 118.605469 185.449219 118.769531 186.15625 118.875 C 186.863281 118.980469 187.570312 119.023438 188.285156 119.007812 C 188.273438 114.164062 188.523438 109.332031 189.035156 104.515625 C 189.324219 102.101562 189.734375 99.082031 190.359375 96.066406 L 190.191406 96.066406 C 188.496094 95.300781 186.753906 95.15625 184.957031 95.628906 C 184.230469 95.824219 183.527344 96.082031 182.847656 96.402344 C 182.167969 96.726562 181.519531 97.105469 180.90625 97.542969 C 180.296875 97.980469 179.726562 98.46875 179.203125 99.007812 C 178.679688 99.550781 178.207031 100.132812 177.789062 100.757812 C 177.371094 101.382812 177.011719 102.042969 176.710938 102.734375 C 176.410156 103.425781 176.171875 104.136719 176 104.867188 C 175.828125 105.601562 175.722656 106.34375 175.683594 107.097656 C 175.644531 107.851562 175.675781 108.601562 175.769531 109.347656 Z M 187.828125 70.710938 C 186.683594 70.953125 185.601562 71.363281 184.582031 71.929688 C 183.5625 72.5 182.644531 73.207031 181.835938 74.050781 C 181.027344 74.894531 180.355469 75.835938 179.828125 76.878906 C 179.300781 77.925781 178.9375 79.023438 178.738281 80.175781 C 177.964844 85.535156 179.316406 89.015625 182.910156 90.847656 L 183.054688 90.96875 L 183.96875 90.703125 C 186.566406 90.109375 189.105469 90.292969 191.589844 91.257812 C 192.726562 87.222656 194.519531 83.503906 196.96875 80.101562 C 197.90625 78.902344 198.929688 77.777344 200.03125 76.722656 C 199.894531 76.597656 199.777344 76.460938 199.667969 76.3125 C 199.070312 75.308594 198.335938 74.414062 197.472656 73.628906 C 196.605469 72.84375 195.644531 72.203125 194.585938 71.707031 C 193.53125 71.210938 192.421875 70.878906 191.269531 70.710938 C 190.113281 70.546875 188.957031 70.554688 187.804688 70.734375 Z M 227.832031 62.0625 C 227.464844 60.511719 226.890625 59.039062 226.105469 57.648438 C 225.320312 56.257812 224.359375 55 223.21875 53.882812 C 222.078125 52.765625 220.808594 51.828125 219.402344 51.074219 C 217.996094 50.316406 216.515625 49.769531 214.957031 49.433594 C 214.191406 49.304688 213.421875 49.238281 212.648438 49.230469 C 211.875 49.222656 211.101562 49.28125 210.335938 49.398438 C 209.570312 49.515625 208.820312 49.695312 208.082031 49.933594 C 207.34375 50.171875 206.632812 50.46875 205.941406 50.820312 C 205.253906 51.175781 204.59375 51.582031 203.972656 52.039062 C 203.347656 52.5 202.761719 53.003906 202.21875 53.558594 C 201.675781 54.109375 201.179688 54.703125 200.730469 55.335938 C 200.285156 55.96875 199.886719 56.632812 199.546875 57.332031 C 199.261719 58.019531 199.042969 58.722656 198.882812 59.449219 C 198.726562 60.175781 198.632812 60.910156 198.601562 61.652344 C 198.574219 62.394531 198.613281 63.132812 198.714844 63.867188 C 198.816406 64.605469 198.984375 65.324219 199.214844 66.03125 C 199.445312 66.738281 199.734375 67.417969 200.085938 68.074219 C 200.4375 68.726562 200.84375 69.347656 201.300781 69.929688 C 201.761719 70.511719 202.269531 71.046875 202.828125 71.539062 C 203.382812 72.03125 203.976562 72.472656 204.609375 72.859375 C 208.292969 70.207031 212.238281 68.042969 216.449219 66.363281 C 220.671875 64.648438 224.335938 63.34375 227.929688 62.28125 C 227.894531 62.210938 227.859375 62.140625 227.832031 62.0625 Z M 71.546875 272.953125 C 78.976562 272.953125 94.457031 273.242188 99.835938 284.183594 C 101.484375 288.210938 102.144531 292.398438 101.8125 296.738281 C 101.722656 299.25 101.882812 301.746094 102.292969 304.226562 C 102.453125 305.074219 102.675781 305.90625 102.960938 306.722656 C 103.246094 307.539062 103.589844 308.328125 103.996094 309.089844 C 104.40625 309.855469 104.867188 310.582031 105.382812 311.273438 C 105.902344 311.964844 106.46875 312.613281 107.085938 313.21875 C 107.703125 313.820312 108.363281 314.375 109.066406 314.878906 C 109.769531 315.382812 110.503906 315.828125 111.277344 316.21875 C 112.046875 316.609375 112.84375 316.9375 113.664062 317.203125 C 114.484375 317.472656 115.320312 317.675781 116.171875 317.816406 C 117.023438 317.953125 117.882812 318.027344 118.746094 318.035156 C 119.609375 318.042969 120.46875 317.984375 121.320312 317.859375 C 122.175781 317.734375 123.015625 317.546875 123.839844 317.292969 C 124.667969 317.039062 125.46875 316.722656 126.246094 316.347656 C 127.023438 315.96875 127.765625 315.535156 128.476562 315.042969 C 129.1875 314.554688 129.855469 314.011719 130.484375 313.417969 C 131.109375 312.824219 131.6875 312.183594 132.21875 311.503906 C 132.75 310.820312 133.222656 310.101562 133.644531 309.34375 C 135.460938 305.742188 136.652344 301.945312 137.210938 297.945312 C 137.875 293.253906 139.324219 288.820312 141.550781 284.640625 C 142.511719 283.089844 143.648438 281.683594 144.960938 280.421875 C 146.277344 279.160156 147.726562 278.082031 149.316406 277.1875 C 150.902344 276.296875 152.578125 275.613281 154.339844 275.148438 C 156.097656 274.679688 157.890625 274.4375 159.710938 274.425781 L 160.214844 274.425781 C 162.074219 274.488281 163.894531 274.789062 165.675781 275.324219 C 167.457031 275.855469 169.140625 276.609375 170.726562 277.582031 C 172.316406 278.550781 173.75 279.710938 175.039062 281.054688 C 176.328125 282.398438 177.421875 283.882812 178.328125 285.511719 C 180.039062 289.035156 181.300781 292.710938 182.113281 296.546875 C 183.726562 302.945312 185.125 308.476562 189.972656 310.359375 C 190.964844 310.640625 191.976562 310.777344 193.003906 310.777344 C 194.035156 310.773438 195.046875 310.632812 196.035156 310.347656 C 197.027344 310.0625 197.957031 309.648438 198.832031 309.105469 C 199.710938 308.5625 200.492188 307.910156 201.1875 307.148438 C 204.320312 303.605469 206.613281 299.578125 208.058594 295.074219 C 225.589844 249.191406 228.21875 198.597656 230.726562 149.675781 L 230.917969 145.8125 C 230.953125 139.851562 231.871094 134.03125 233.667969 128.351562 C 234.132812 126.960938 234.730469 125.628906 235.457031 124.359375 C 236.183594 123.085938 237.027344 121.898438 237.992188 120.792969 C 238.953125 119.6875 240.015625 118.691406 241.171875 117.796875 C 242.332031 116.902344 243.570312 116.128906 244.882812 115.480469 C 247.519531 114.445312 250.25 113.882812 253.082031 113.789062 C 255.1875 113.726562 257.246094 113.371094 259.253906 112.726562 C 260.300781 112.226562 261.269531 111.605469 262.160156 110.863281 C 263.054688 110.125 263.84375 109.285156 264.53125 108.351562 C 265.21875 107.417969 265.785156 106.414062 266.226562 105.339844 C 266.667969 104.265625 266.972656 103.15625 267.140625 102.003906 C 267.859375 96.84375 267.625 91.722656 266.441406 86.648438 C 265.75 81.546875 264.3125 76.667969 262.125 72.011719 C 258.21875 64.769531 252.019531 62.113281 242.589844 63.996094 C 234.265625 65.242188 226.226562 67.511719 218.476562 70.804688 C 215.058594 72.058594 211.851562 73.722656 208.851562 75.792969 C 205.855469 77.859375 203.164062 80.273438 200.777344 83.023438 C 197.257812 87.636719 194.964844 94.785156 193.808594 104.878906 C 193.203125 111.304688 192.960938 117.746094 193.085938 124.199219 C 193.085938 126.179688 193.085938 128.183594 193.085938 130.164062 C 193.085938 139.4375 192.410156 148.804688 191.394531 158.054688 L 191.179688 160.179688 C 190.40625 167.59375 189.539062 175.972656 184.089844 182.394531 C 179.628906 187.636719 172.757812 191.257812 163.6875 193.140625 C 155.9375 194.527344 148.125 195.222656 140.25 195.21875 C 137.839844 195.21875 135.570312 195.21875 133.257812 195.460938 C 121.320312 195.992188 106.417969 197.875 96.867188 207.535156 C 93.355469 211.386719 90.378906 215.621094 87.945312 220.238281 C 86.105469 223.496094 84.078125 226.632812 81.871094 229.65625 C 80.539062 231.355469 79.109375 232.964844 77.578125 234.484375 C 77.527344 234.570312 77.472656 234.652344 77.410156 234.726562 L 77.117188 234.917969 C 72.703125 239.152344 67.792969 242.695312 62.382812 245.542969 C 56.972656 248.390625 51.273438 250.4375 45.289062 251.679688 L 42.875 252.160156 C 42.597656 252.265625 42.308594 252.324219 42.007812 252.328125 C 31.039062 254.136719 20.015625 254.515625 8.949219 253.464844 C 21.582031 266.238281 42.105469 272.613281 71.546875 272.953125 Z M 71.546875 272.953125 " fill-opacity="1" fill-rule="nonzero"/></g><g clip-path="url(#f2854a6e11)"><g clip-path="url(#c828c0f835)"><g clip-path="url(#3ea66b6a43)"><path fill="#f4c50b" d="M 253.152344 58.738281 C 252.058594 55.753906 248.753906 54.21875 245.769531 55.308594 C 234.15625 59.558594 206.933594 69.515625 195.320312 73.761719 C 192.335938 74.855469 190.800781 78.160156 191.890625 81.144531 C 192.269531 82.179688 192.550781 82.949219 192.550781 82.949219 L 253.8125 60.539062 Z M 192.617188 74.753906 C 188.90625 64.609375 191.074219 53.742188 197.382812 45.890625 C 197.382812 45.890625 196.992188 44.824219 196.574219 43.683594 C 196.3125 42.964844 196.34375 42.175781 196.667969 41.484375 C 196.988281 40.789062 197.570312 40.253906 198.289062 39.992188 C 200.851562 39.054688 204.308594 37.789062 204.308594 37.789062 C 204.308594 37.789062 203.855469 36.3125 203.417969 34.890625 C 202.96875 33.425781 203.746094 31.867188 205.183594 31.34375 C 206.898438 30.714844 209.148438 29.890625 210.863281 29.265625 C 212.300781 28.738281 213.898438 29.429688 214.5 30.835938 C 215.085938 32.207031 215.691406 33.628906 215.691406 33.628906 C 215.691406 33.628906 219.148438 32.363281 221.710938 31.425781 C 222.429688 31.164062 223.21875 31.195312 223.914062 31.515625 C 224.605469 31.839844 225.140625 32.421875 225.402344 33.140625 C 225.820312 34.277344 226.210938 35.34375 226.210938 35.34375 C 236.09375 37.277344 244.761719 44.179688 248.472656 54.320312 Z M 192.617188 74.753906 " fill-opacity="1" fill-rule="evenodd"/></g></g></g><g clip-path="url(#ff0054c4bb)"><g clip-path="url(#b7a129c9fc)"><g clip-path="url(#9848ba4375)"><path fill="#545454" d="M 191.265625 75.246094 C 190.074219 77.078125 189.730469 79.429688 190.539062 81.640625 C 190.917969 82.675781 191.199219 83.441406 191.199219 83.441406 C 191.472656 84.1875 192.296875 84.570312 193.046875 84.300781 L 254.304688 61.890625 C 255.050781 61.617188 255.433594 60.792969 255.164062 60.046875 L 254.503906 58.242188 C 253.695312 56.035156 251.914062 54.460938 249.824219 53.828125 C 246.035156 43.46875 237.316406 36.332031 227.285156 34.101562 C 227.285156 34.101562 226.753906 32.644531 226.753906 32.644531 C 226.359375 31.570312 225.554688 30.695312 224.519531 30.210938 C 223.480469 29.730469 222.292969 29.679688 221.21875 30.074219 C 221.21875 30.074219 216.476562 31.808594 216.476562 31.808594 C 216.476562 31.808594 215.824219 30.273438 215.824219 30.273438 C 214.921875 28.160156 212.527344 27.125 210.371094 27.914062 C 208.652344 28.539062 206.402344 29.363281 204.6875 29.992188 C 202.53125 30.78125 201.371094 33.117188 202.042969 35.3125 C 202.042969 35.3125 202.535156 36.90625 202.535156 36.90625 C 202.535156 36.90625 197.792969 38.640625 197.792969 38.640625 C 196.71875 39.035156 195.84375 39.839844 195.363281 40.875 C 194.878906 41.914062 194.828125 43.101562 195.222656 44.179688 L 195.753906 45.632812 C 189.535156 53.808594 187.476562 64.890625 191.265625 75.246094 Z M 251.800781 59.234375 L 251.964844 59.683594 C 243.839844 62.65625 201.535156 78.128906 193.40625 81.101562 C 193.40625 81.101562 193.242188 80.652344 193.242188 80.652344 C 192.425781 78.414062 193.574219 75.933594 195.8125 75.113281 C 207.429688 70.867188 234.648438 60.910156 246.265625 56.660156 C 248.503906 55.84375 250.980469 56.992188 251.800781 59.234375 Z M 203.378906 39.660156 L 198.78125 41.34375 C 198.425781 41.476562 198.132812 41.742188 197.972656 42.089844 C 197.8125 42.433594 197.792969 42.832031 197.925781 43.1875 L 201.550781 53.097656 C 201.824219 53.84375 201.4375 54.671875 200.695312 54.945312 C 199.949219 55.21875 199.121094 54.832031 198.847656 54.085938 L 196.953125 48.914062 C 192.394531 55.816406 190.902344 64.625 193.550781 73.027344 C 193.945312 72.785156 194.371094 72.578125 194.824219 72.414062 L 211.5625 66.289062 Z M 217.609375 34.457031 L 228.539062 60.082031 L 245.277344 53.957031 C 245.726562 53.792969 246.1875 53.675781 246.648438 53.605469 C 243.25 45.476562 236.425781 39.710938 228.484375 37.378906 L 230.378906 42.554688 C 230.652344 43.300781 230.269531 44.128906 229.523438 44.398438 C 228.777344 44.671875 227.949219 44.289062 227.675781 43.542969 L 224.050781 33.632812 C 223.921875 33.273438 223.652344 32.984375 223.304688 32.824219 C 222.960938 32.660156 222.5625 32.644531 222.207031 32.777344 Z M 225.832031 61.070312 L 213.175781 31.402344 C 212.875 30.699219 212.078125 30.351562 211.359375 30.613281 C 209.640625 31.242188 207.390625 32.066406 205.675781 32.695312 C 204.957031 32.957031 204.570312 33.734375 204.792969 34.46875 L 205.6875 37.367188 C 205.6875 37.367188 214.269531 65.300781 214.269531 65.300781 Z M 225.832031 61.070312 " fill-opacity="1" fill-rule="evenodd"/></g></g></g><g clip-path="url(#603400b2f1)"><path fill="#97afba" d="M 348.222656 255.214844 C 348.179688 255.21875 348.140625 255.226562 348.097656 255.230469 C 348.140625 255.226562 348.179688 255.21875 348.222656 255.214844 Z M 348.542969 255.195312 C 348.503906 255.195312 348.464844 255.199219 348.421875 255.199219 C 348.464844 255.199219 348.503906 255.195312 348.542969 255.195312 Z M 348.871094 255.210938 C 348.835938 255.207031 348.800781 255.207031 348.769531 255.203125 C 348.800781 255.207031 348.835938 255.207031 348.871094 255.210938 Z M 351.5625 295.097656 L 351.585938 297.601562 L 350.554688 297.398438 Z M 379.734375 303.085938 L 373.476562 301.867188 L 373.070312 260.261719 C 373.054688 258.683594 372.5625 257.046875 371.71875 255.765625 C 370.878906 254.488281 369.71875 253.625 368.539062 253.398438 L 362.097656 252.140625 C 361.625 252.050781 361.160156 252.058594 360.722656 252.164062 L 347.824219 255.28125 C 347.851562 255.273438 347.878906 255.273438 347.90625 255.265625 C 346.8125 255.5 345.871094 256.320312 345.316406 257.59375 L 326.207031 301.378906 C 325.460938 303.089844 325.507812 305.347656 326.332031 307.335938 C 327.152344 309.316406 328.625 310.722656 330.203125 311.027344 L 351.757812 315.226562 L 351.828125 322.425781 C 350.546875 321.992188 348.949219 322.570312 348.511719 324.164062 C 348.507812 324.179688 348.5 324.191406 348.5 324.207031 L 347.425781 328.371094 L 344.386719 340.183594 L 343.363281 344.175781 L 343.109375 345.152344 L 335.328125 347.59375 L 335.425781 350.285156 L 349.207031 356.558594 L 366.535156 350.699219 L 366.445312 348.160156 L 358.695312 344.59375 L 358.589844 344.175781 L 357.960938 341.734375 L 357.527344 340.050781 L 360.921875 341.179688 L 373.816406 338.066406 L 373.617188 316.578125 L 379.851562 315.070312 L 379.734375 303.085938 " fill-opacity="1" fill-rule="nonzero"/></g><g clip-path="url(#07edb2a92f)"><path fill="#97afba" d="M 256.300781 223.84375 C 256.257812 223.847656 256.21875 223.851562 256.175781 223.859375 C 256.21875 223.851562 256.257812 223.847656 256.300781 223.84375 Z M 256.621094 223.824219 C 256.582031 223.824219 256.542969 223.824219 256.5 223.828125 C 256.542969 223.824219 256.582031 223.824219 256.621094 223.824219 Z M 256.949219 223.835938 C 256.914062 223.835938 256.882812 223.832031 256.847656 223.832031 C 256.882812 223.832031 256.914062 223.835938 256.949219 223.835938 Z M 259.664062 266.226562 L 258.632812 266.027344 L 259.640625 263.722656 Z M 273.332031 334.246094 L 292.214844 323.25 C 295.023438 321.617188 298.886719 320.988281 302.53125 321.339844 L 283.648438 332.339844 C 280.84375 333.96875 276.976562 334.597656 273.332031 334.246094 Z M 253.394531 226.21875 L 234.285156 270.003906 C 233.539062 271.714844 233.585938 273.972656 234.410156 275.960938 C 235.230469 277.945312 236.703125 279.347656 238.285156 279.65625 L 259.835938 283.855469 L 260.0625 307.953125 L 269 310.839844 L 270.042969 310.585938 L 258.089844 317.550781 C 253.394531 320.285156 251.054688 323.867188 251.058594 327.449219 C 251.058594 327.441406 251.054688 327.429688 251.054688 327.417969 L 251.011719 342.824219 C 251.003906 346.441406 253.382812 350.066406 258.152344 352.828125 C 263.300781 355.804688 270.167969 357.160156 276.875 356.90625 L 276.84375 358.683594 L 276.503906 358.953125 L 273.632812 361.214844 L 270.101562 364 L 268.253906 365.453125 L 263.59375 369.125 L 260.332031 371.695312 C 260.28125 371.734375 260.242188 371.777344 260.199219 371.820312 C 258.347656 373.476562 259.75 376.59375 262.253906 376.246094 C 262.277344 376.246094 262.300781 376.246094 262.324219 376.242188 L 266.558594 375.550781 L 270.523438 374.902344 L 274.714844 374.21875 L 278.570312 373.589844 L 282.628906 372.925781 L 283.621094 372.761719 L 288.984375 378.921875 L 291.402344 377.75 L 291.59375 362.582031 L 285.3125 355.679688 C 287.875 355.003906 290.277344 354.050781 292.382812 352.828125 L 317.773438 338.039062 C 322.453125 335.308594 324.796875 331.742188 324.804688 328.171875 L 324.847656 312.765625 C 324.847656 312.871094 324.839844 312.976562 324.835938 313.082031 C 324.988281 309.359375 322.617188 305.601562 317.703125 302.757812 C 308.21875 297.273438 292.90625 297.273438 283.476562 302.761719 L 281.859375 303.703125 L 281.695312 285.207031 L 287.929688 283.699219 L 287.8125 271.710938 L 281.554688 270.492188 L 281.148438 228.886719 C 281.132812 227.308594 280.640625 225.671875 279.796875 224.394531 C 278.957031 223.113281 277.800781 222.253906 276.621094 222.023438 L 270.175781 220.769531 C 269.703125 220.675781 269.238281 220.6875 268.800781 220.792969 L 255.90625 223.90625 C 255.929688 223.902344 255.957031 223.898438 255.984375 223.894531 C 254.890625 224.128906 253.949219 224.945312 253.394531 226.21875 " fill-opacity="1" fill-rule="nonzero"/></g><g clip-path="url(#a68075ed68)"><path fill="#f9a72b" d="M 246.71875 309.257812 L 238.96875 305.691406 L 238.863281 305.269531 L 238.351562 303.292969 L 236.828125 297.363281 L 236.382812 295.628906 L 234.761719 289.332031 L 233.726562 285.300781 C 233.710938 285.242188 233.683594 285.191406 233.664062 285.132812 C 232.894531 282.761719 229.46875 282.800781 228.789062 285.25 C 228.78125 285.269531 228.777344 285.285156 228.769531 285.300781 L 227.699219 289.46875 L 226.695312 293.367188 L 226.144531 295.507812 L 224.660156 301.28125 L 223.632812 305.269531 L 223.382812 306.246094 L 215.601562 308.691406 L 215.699219 311.382812 L 229.476562 317.65625 L 246.808594 311.796875 L 246.71875 309.257812 " fill-opacity="1" fill-rule="nonzero"/></g><path fill="#d3d2d2" d="M 245.882812 343.269531 C 245.867188 343.253906 245.859375 343.238281 245.84375 343.226562 C 245.730469 343.117188 245.605469 343.019531 245.46875 342.929688 C 245.199219 342.757812 244.894531 342.628906 244.5625 342.5625 C 244.558594 342.503906 244.554688 342.445312 244.542969 342.382812 C 244.523438 342.265625 244.5 342.152344 244.46875 342.042969 C 244.460938 342.003906 244.445312 341.96875 244.4375 341.933594 C 244.414062 341.859375 244.390625 341.789062 244.367188 341.71875 C 244.347656 341.671875 244.328125 341.628906 244.3125 341.585938 C 244.285156 341.527344 244.261719 341.464844 244.234375 341.410156 C 244.210938 341.363281 244.1875 341.316406 244.160156 341.273438 C 244.132812 341.21875 244.105469 341.167969 244.074219 341.117188 C 244.046875 341.070312 244.015625 341.027344 243.984375 340.980469 C 243.957031 340.9375 243.925781 340.890625 243.890625 340.847656 C 243.859375 340.800781 243.820312 340.757812 243.785156 340.710938 C 243.753906 340.671875 243.722656 340.636719 243.6875 340.597656 C 243.648438 340.554688 243.605469 340.507812 243.5625 340.464844 C 243.53125 340.433594 243.5 340.402344 243.464844 340.371094 C 243.417969 340.328125 243.367188 340.285156 243.320312 340.242188 C 243.289062 340.214844 243.257812 340.191406 243.226562 340.167969 C 243.171875 340.125 243.113281 340.082031 243.054688 340.042969 C 243.03125 340.023438 243.003906 340.007812 242.980469 339.992188 C 242.914062 339.949219 242.847656 339.90625 242.777344 339.867188 C 242.761719 339.859375 242.746094 339.851562 242.726562 339.84375 C 242.1875 339.550781 241.574219 339.398438 240.929688 339.421875 C 240.785156 339.429688 240.636719 339.441406 240.492188 339.464844 C 239.460938 339.632812 238.613281 340.234375 238.09375 341.050781 C 237.460938 340.746094 236.734375 340.621094 235.988281 340.746094 C 234.066406 341.0625 232.761719 342.878906 233.078125 344.808594 C 233.132812 345.136719 233.230469 345.445312 233.367188 345.730469 C 232.84375 346.300781 232.570312 347.089844 232.707031 347.910156 C 232.839844 348.722656 233.335938 349.371094 233.992188 349.75 C 233.488281 350.316406 233.226562 351.089844 233.359375 351.898438 C 233.484375 352.664062 233.929688 353.285156 234.53125 353.671875 C 234.558594 353.6875 234.585938 353.707031 234.617188 353.722656 C 234.675781 353.757812 234.738281 353.792969 234.800781 353.824219 C 234.851562 353.847656 234.90625 353.871094 234.957031 353.890625 C 235.011719 353.914062 235.0625 353.933594 235.113281 353.953125 C 235.226562 353.988281 235.335938 354.019531 235.453125 354.042969 C 235.46875 354.046875 235.480469 354.046875 235.496094 354.050781 C 235.621094 354.070312 235.75 354.082031 235.882812 354.085938 C 235.902344 354.085938 235.925781 354.085938 235.945312 354.085938 C 236.078125 354.085938 236.214844 354.078125 236.347656 354.054688 C 236.746094 353.988281 237.105469 353.835938 237.414062 353.621094 C 237.519531 353.546875 237.617188 353.46875 237.707031 353.382812 C 238.230469 353.707031 238.835938 353.894531 239.472656 353.90625 C 239.6875 353.914062 239.902344 353.898438 240.121094 353.863281 C 240.570312 353.789062 240.988281 353.632812 241.359375 353.410156 C 241.480469 353.335938 241.597656 353.253906 241.710938 353.167969 C 242.160156 352.816406 242.519531 352.363281 242.757812 351.847656 C 242.945312 351.4375 243.058594 350.984375 243.078125 350.515625 C 243.085938 350.28125 243.070312 350.039062 243.03125 349.800781 C 243.027344 349.78125 243.023438 349.761719 243.019531 349.738281 C 243.585938 349.207031 243.972656 348.492188 244.097656 347.707031 C 245.375 347.6875 246.480469 346.738281 246.636719 345.425781 C 246.660156 345.257812 246.664062 345.089844 246.652344 344.921875 C 246.605469 344.28125 246.320312 343.703125 245.882812 343.269531 " fill-opacity="1" fill-rule="nonzero"/><path fill="#f9a72b" d="M 366.445312 348.160156 L 358.695312 344.59375 L 358.589844 344.175781 L 357.828125 341.210938 L 357.527344 340.050781 L 356.554688 336.269531 L 355.976562 334.019531 L 354.488281 328.234375 L 353.453125 324.207031 C 353.4375 324.148438 353.410156 324.09375 353.394531 324.035156 C 353.121094 323.203125 352.523438 322.664062 351.828125 322.425781 C 350.554688 321.992188 348.96875 322.566406 348.519531 324.140625 C 348.515625 324.164062 348.503906 324.183594 348.5 324.207031 L 347.425781 328.371094 L 346.421875 332.269531 L 346.132812 333.40625 L 344.386719 340.183594 L 343.363281 344.175781 L 343.109375 345.152344 L 335.328125 347.59375 L 335.425781 350.285156 L 349.207031 356.558594 L 366.535156 350.699219 L 366.445312 348.160156 " fill-opacity="1" fill-rule="nonzero"/><g clip-path="url(#b5e9d02376)"><path fill="#f9a72b" d="M 279.269531 349.035156 L 276.988281 350.140625 L 276.875 356.90625 L 276.84375 358.683594 L 276.503906 358.953125 L 274.195312 360.773438 L 270.101562 364 L 268.152344 365.535156 L 263.59375 369.125 L 260.332031 371.695312 C 260.28125 371.734375 260.246094 371.777344 260.199219 371.820312 C 258.347656 373.476562 259.75 376.59375 262.253906 376.246094 C 262.277344 376.246094 262.300781 376.246094 262.324219 376.242188 L 266.558594 375.550781 L 270.523438 374.902344 L 274.714844 374.21875 L 278.570312 373.589844 L 282.628906 372.925781 L 283.621094 372.761719 L 288.984375 378.921875 L 291.402344 377.75 L 291.59375 362.582031 L 285.3125 355.679688 L 279.269531 349.035156 " fill-opacity="1" fill-rule="nonzero"/></g><path fill="#ed952a" d="M 366.445312 348.160156 L 358.695312 344.59375 L 359.605469 348.136719 C 359.605469 348.136719 349.574219 352.066406 342.34375 348.136719 L 343.109375 345.152344 L 335.328125 347.59375 L 335.425781 350.285156 L 349.207031 356.558594 L 366.535156 350.699219 L 366.445312 348.160156 " fill-opacity="1" fill-rule="nonzero"/><g clip-path="url(#3ebdf03861)"><path fill="#ed952a" d="M 238.96875 305.691406 L 239.878906 309.230469 C 239.878906 309.230469 229.847656 313.160156 222.617188 309.230469 L 223.382812 306.246094 L 215.601562 308.691406 L 215.699219 311.382812 L 229.476562 317.65625 L 246.808594 311.796875 L 246.71875 309.257812 L 238.96875 305.691406 " fill-opacity="1" fill-rule="nonzero"/></g><g clip-path="url(#48da653cf0)"><path fill="#ed952a" d="M 279.269531 349.035156 L 276.988281 350.140625 L 276.875 356.90625 L 276.84375 358.683594 L 279.714844 356.425781 C 279.714844 356.425781 287.339844 364.050781 286.65625 372.269531 L 283.621094 372.761719 L 288.984375 378.921875 L 291.402344 377.75 L 291.59375 362.582031 L 285.3125 355.679688 L 279.269531 349.035156 " fill-opacity="1" fill-rule="nonzero"/></g><path fill="#869aa4" d="M 350.554688 297.398438 L 351.5625 295.097656 L 351.308594 269.246094 L 337.660156 300.519531 L 351.640625 303.242188 L 351.585938 297.601562 L 350.554688 297.398438 " fill-opacity="1" fill-rule="nonzero"/><g clip-path="url(#7f8451a254)"><path fill="#869aa4" d="M 379.851562 315.070312 L 379.734375 303.085938 L 373.476562 301.867188 L 373.070312 260.261719 C 373.054688 258.683594 372.5625 257.046875 371.71875 255.765625 C 370.878906 254.488281 369.71875 253.625 368.539062 253.398438 L 362.097656 252.140625 C 361.625 252.050781 361.160156 252.058594 360.722656 252.164062 L 347.824219 255.28125 C 347.851562 255.273438 347.878906 255.273438 347.90625 255.265625 C 347.96875 255.253906 348.03125 255.242188 348.097656 255.230469 C 348.140625 255.226562 348.179688 255.21875 348.222656 255.214844 C 348.289062 255.207031 348.355469 255.203125 348.421875 255.199219 C 348.464844 255.199219 348.503906 255.195312 348.542969 255.195312 C 348.617188 255.195312 348.691406 255.199219 348.769531 255.203125 C 348.800781 255.207031 348.835938 255.207031 348.871094 255.210938 C 348.980469 255.222656 349.09375 255.234375 349.203125 255.257812 L 355.644531 256.511719 C 356.824219 256.742188 357.980469 257.601562 358.820312 258.882812 C 359.667969 260.164062 360.15625 261.800781 360.171875 263.375 L 360.578125 304.980469 L 366.839844 306.203125 L 366.957031 318.1875 L 360.695312 316.96875 L 360.921875 341.179688 L 373.816406 338.066406 L 373.617188 316.578125 L 379.851562 315.070312 " fill-opacity="1" fill-rule="nonzero"/></g><path fill="#869aa4" d="M 259.664062 266.226562 L 258.632812 266.027344 L 259.640625 263.722656 L 259.386719 237.871094 L 245.738281 269.144531 L 259.71875 271.867188 L 259.664062 266.226562 " fill-opacity="1" fill-rule="nonzero"/><g clip-path="url(#55f6d552cf)"><path fill="#869aa4" d="M 256.175781 223.859375 C 256.21875 223.851562 256.257812 223.847656 256.300781 223.84375 C 256.367188 223.835938 256.433594 223.832031 256.5 223.828125 C 256.542969 223.824219 256.582031 223.824219 256.625 223.824219 C 256.699219 223.824219 256.773438 223.828125 256.847656 223.832031 C 256.882812 223.832031 256.914062 223.835938 256.949219 223.835938 C 257.058594 223.847656 257.171875 223.863281 257.28125 223.882812 L 263.722656 225.140625 C 264.902344 225.367188 266.0625 226.230469 266.902344 227.507812 C 267.746094 228.789062 268.234375 230.425781 268.25 232.003906 L 268.65625 273.609375 L 274.917969 274.828125 L 275.035156 286.816406 L 268.773438 285.59375 L 269 310.839844 L 270.042969 310.585938 L 281.859375 303.703125 L 281.695312 285.207031 L 287.929688 283.699219 L 287.8125 271.710938 L 281.554688 270.492188 L 281.148438 228.886719 C 281.132812 227.308594 280.640625 225.671875 279.796875 224.394531 C 278.957031 223.113281 277.800781 222.253906 276.621094 222.023438 L 270.175781 220.769531 C 269.703125 220.675781 269.238281 220.6875 268.800781 220.792969 L 255.90625 223.90625 C 255.929688 223.902344 255.957031 223.898438 255.984375 223.894531 C 256.046875 223.878906 256.109375 223.867188 256.175781 223.859375 " fill-opacity="1" fill-rule="nonzero"/></g><path fill="#869aa4" d="M 324.820312 313.402344 C 324.8125 313.519531 324.792969 313.636719 324.78125 313.753906 C 324.765625 313.859375 324.757812 313.964844 324.738281 314.070312 C 324.722656 314.1875 324.695312 314.304688 324.667969 314.421875 C 324.648438 314.527344 324.628906 314.632812 324.605469 314.742188 C 324.574219 314.855469 324.539062 314.972656 324.503906 315.085938 C 324.472656 315.191406 324.445312 315.300781 324.410156 315.402344 C 324.375 315.519531 324.328125 315.632812 324.285156 315.75 C 324.246094 315.851562 324.207031 315.957031 324.164062 316.0625 C 324.117188 316.179688 324.0625 316.292969 324.007812 316.40625 C 323.960938 316.507812 323.914062 316.613281 323.863281 316.714844 C 323.804688 316.828125 323.738281 316.945312 323.675781 317.054688 C 323.621094 317.15625 323.566406 317.261719 323.507812 317.363281 C 323.4375 317.476562 323.363281 317.585938 323.289062 317.699219 C 323.222656 317.796875 323.164062 317.898438 323.09375 318 C 323.015625 318.109375 322.929688 318.222656 322.847656 318.332031 C 322.773438 318.429688 322.707031 318.527344 322.628906 318.625 C 322.539062 318.738281 322.441406 318.847656 322.347656 318.957031 C 322.269531 319.050781 322.191406 319.144531 322.105469 319.242188 C 322.007812 319.351562 321.902344 319.457031 321.796875 319.5625 C 321.707031 319.65625 321.621094 319.753906 321.527344 319.84375 C 321.421875 319.949219 321.308594 320.050781 321.199219 320.15625 C 321.097656 320.246094 321 320.34375 320.894531 320.433594 C 320.777344 320.539062 320.648438 320.644531 320.519531 320.75 C 320.417969 320.835938 320.316406 320.921875 320.207031 321.007812 C 320.070312 321.121094 319.921875 321.226562 319.773438 321.335938 C 319.671875 321.414062 319.574219 321.492188 319.464844 321.566406 C 319.296875 321.6875 319.117188 321.808594 318.941406 321.925781 C 318.847656 321.988281 318.761719 322.050781 318.667969 322.109375 C 318.394531 322.285156 318.109375 322.460938 317.816406 322.632812 L 292.425781 337.421875 C 283.003906 342.90625 267.6875 342.910156 258.195312 337.421875 C 257.898438 337.25 257.609375 337.074219 257.332031 336.894531 C 257.238281 336.835938 257.152344 336.773438 257.058594 336.710938 C 256.878906 336.589844 256.695312 336.472656 256.523438 336.347656 C 256.425781 336.28125 256.332031 336.207031 256.238281 336.136719 C 256.082031 336.019531 255.921875 335.90625 255.773438 335.785156 C 255.671875 335.707031 255.578125 335.628906 255.484375 335.546875 C 255.347656 335.433594 255.207031 335.324219 255.074219 335.207031 C 254.976562 335.121094 254.886719 335.03125 254.792969 334.945312 C 254.671875 334.835938 254.546875 334.726562 254.433594 334.613281 C 254.339844 334.523438 254.253906 334.425781 254.164062 334.335938 C 254.058594 334.226562 253.949219 334.117188 253.851562 334.007812 C 253.761719 333.910156 253.679688 333.808594 253.59375 333.710938 C 253.503906 333.601562 253.40625 333.496094 253.320312 333.386719 C 253.238281 333.285156 253.167969 333.183594 253.089844 333.085938 C 253.007812 332.976562 252.921875 332.867188 252.847656 332.757812 C 252.773438 332.652344 252.710938 332.546875 252.640625 332.445312 C 252.570312 332.335938 252.496094 332.226562 252.425781 332.113281 C 252.363281 332.011719 252.308594 331.902344 252.25 331.796875 C 252.1875 331.6875 252.121094 331.578125 252.066406 331.464844 C 252.007812 331.359375 251.964844 331.25 251.914062 331.140625 C 251.859375 331.03125 251.804688 330.917969 251.757812 330.808594 C 251.710938 330.699219 251.675781 330.589844 251.632812 330.480469 C 251.589844 330.367188 251.542969 330.257812 251.507812 330.144531 C 251.46875 330.035156 251.441406 329.925781 251.410156 329.816406 C 251.375 329.703125 251.339844 329.589844 251.3125 329.476562 C 251.28125 329.367188 251.265625 329.257812 251.242188 329.144531 C 251.21875 329.03125 251.191406 328.917969 251.171875 328.804688 C 251.152344 328.695312 251.140625 328.585938 251.128906 328.476562 C 251.113281 328.359375 251.097656 328.242188 251.085938 328.128906 C 251.078125 328.019531 251.074219 327.910156 251.070312 327.804688 C 251.066406 327.6875 251.058594 327.570312 251.058594 327.453125 C 251.058594 327.441406 251.054688 327.429688 251.054688 327.417969 L 251.011719 342.824219 C 251.003906 346.441406 253.382812 350.066406 258.152344 352.828125 C 263.300781 355.804688 270.167969 357.160156 276.875 356.90625 L 276.988281 350.140625 L 279.269531 349.035156 L 285.3125 355.679688 C 287.875 355.003906 290.277344 354.050781 292.382812 352.828125 L 317.773438 338.039062 C 322.453125 335.308594 324.796875 331.742188 324.804688 328.171875 L 324.847656 312.765625 C 324.847656 312.871094 324.839844 312.976562 324.835938 313.082031 C 324.832031 313.1875 324.832031 313.292969 324.820312 313.402344 " fill-opacity="1" fill-rule="nonzero"/><path fill="#869aa4" d="M 266.0625 323.152344 C 265.976562 323.214844 265.902344 323.28125 265.820312 323.34375 C 265.664062 323.464844 265.507812 323.582031 265.367188 323.707031 C 265.28125 323.78125 265.210938 323.859375 265.132812 323.9375 C 265.011719 324.054688 264.886719 324.167969 264.777344 324.289062 C 264.703125 324.367188 264.648438 324.453125 264.582031 324.535156 C 264.484375 324.652344 264.378906 324.773438 264.292969 324.894531 C 264.234375 324.980469 264.191406 325.066406 264.140625 325.152344 C 264.0625 325.277344 263.980469 325.398438 263.917969 325.523438 C 263.875 325.613281 263.84375 325.703125 263.804688 325.792969 C 263.753906 325.914062 263.691406 326.039062 263.652344 326.164062 C 263.621094 326.257812 263.605469 326.347656 263.582031 326.441406 C 263.550781 326.566406 263.511719 326.691406 263.492188 326.8125 C 263.476562 326.910156 263.476562 327.007812 263.46875 327.101562 C 263.300781 328.964844 264.417969 330.855469 266.839844 332.289062 C 266.867188 332.304688 266.890625 332.324219 266.917969 332.339844 C 268.734375 333.386719 270.988281 334.019531 273.332031 334.246094 L 292.214844 323.25 C 295.023438 321.617188 298.886719 320.988281 302.53125 321.339844 L 309.035156 317.550781 C 311.328125 316.210938 312.46875 314.464844 312.464844 312.710938 C 312.464844 312.597656 312.449219 312.484375 312.4375 312.367188 C 312.429688 312.261719 312.429688 312.15625 312.410156 312.054688 C 312.390625 311.9375 312.355469 311.820312 312.324219 311.703125 C 312.300781 311.601562 312.28125 311.5 312.246094 311.398438 C 312.207031 311.28125 312.148438 311.164062 312.097656 311.046875 C 312.058594 310.949219 312.023438 310.847656 311.976562 310.753906 C 311.914062 310.632812 311.835938 310.515625 311.761719 310.398438 C 311.703125 310.304688 311.65625 310.210938 311.59375 310.121094 C 311.507812 310 311.40625 309.882812 311.308594 309.765625 C 311.238281 309.679688 311.179688 309.59375 311.105469 309.507812 C 310.992188 309.386719 310.863281 309.269531 310.738281 309.152344 C 310.660156 309.078125 310.589844 308.996094 310.503906 308.921875 C 310.363281 308.796875 310.203125 308.679688 310.042969 308.558594 C 309.960938 308.496094 309.886719 308.425781 309.796875 308.363281 C 309.542969 308.183594 309.269531 308.007812 308.980469 307.839844 C 304.34375 305.164062 296.871094 305.164062 292.257812 307.84375 L 266.867188 322.628906 C 266.582031 322.796875 266.3125 322.972656 266.0625 323.152344 " fill-opacity="1" fill-rule="nonzero"/><path fill="#7d9099" d="M 350.554688 297.398438 L 337.660156 300.519531 L 351.640625 303.242188 L 351.585938 297.601562 L 350.554688 297.398438 " fill-opacity="1" fill-rule="nonzero"/><g clip-path="url(#1d6cdbd511)"><path fill="#8ba1ab" d="M 366.957031 318.1875 L 373.617188 316.578125 L 379.851562 315.070312 L 379.734375 303.085938 L 366.839844 306.203125 L 366.957031 318.1875 " fill-opacity="1" fill-rule="nonzero"/></g><g clip-path="url(#a8b4bffb94)"><path fill="#94abb6" d="M 366.839844 306.203125 L 379.734375 303.085938 L 373.476562 301.867188 L 360.578125 304.980469 L 366.839844 306.203125 " fill-opacity="1" fill-rule="nonzero"/></g><path fill="#94abb6" d="M 348.222656 255.214844 C 348.289062 255.207031 348.355469 255.203125 348.421875 255.199219 C 348.464844 255.199219 348.503906 255.195312 348.542969 255.195312 C 348.617188 255.195312 348.691406 255.199219 348.769531 255.203125 C 348.800781 255.207031 348.835938 255.207031 348.871094 255.210938 C 348.980469 255.222656 349.09375 255.234375 349.203125 255.257812 L 355.644531 256.511719 L 368.539062 253.398438 L 362.097656 252.140625 C 361.625 252.050781 361.160156 252.058594 360.722656 252.164062 L 347.824219 255.28125 C 347.851562 255.273438 347.878906 255.273438 347.90625 255.265625 C 347.96875 255.253906 348.03125 255.242188 348.097656 255.230469 C 348.140625 255.226562 348.179688 255.21875 348.222656 255.214844 " fill-opacity="1" fill-rule="nonzero"/><path fill="#8ba1ab" d="M 360.578125 304.980469 L 373.476562 301.867188 L 373.070312 260.261719 L 360.171875 263.375 L 360.578125 304.980469 " fill-opacity="1" fill-rule="nonzero"/><path fill="#90a7b1" d="M 358.820312 258.882812 C 359.667969 260.164062 360.15625 261.800781 360.171875 263.375 L 373.070312 260.261719 C 373.054688 258.683594 372.5625 257.046875 371.71875 255.765625 C 370.878906 254.488281 369.71875 253.625 368.539062 253.398438 L 355.644531 256.511719 C 356.824219 256.742188 357.980469 257.601562 358.820312 258.882812 " fill-opacity="1" fill-rule="nonzero"/><path fill="#7d9099" d="M 258.632812 266.027344 L 245.738281 269.144531 L 259.71875 271.867188 L 259.664062 266.226562 L 258.632812 266.027344 " fill-opacity="1" fill-rule="nonzero"/><path fill="#8ba1ab" d="M 275.035156 286.816406 L 281.695312 285.207031 L 287.929688 283.699219 L 287.8125 271.710938 L 274.917969 274.828125 L 275.035156 286.816406 " fill-opacity="1" fill-rule="nonzero"/><path fill="#94abb6" d="M 274.917969 274.828125 L 287.8125 271.710938 L 281.554688 270.492188 L 268.65625 273.609375 L 274.917969 274.828125 " fill-opacity="1" fill-rule="nonzero"/><g clip-path="url(#2aadb62986)"><path fill="#94abb6" d="M 256.300781 223.84375 C 256.367188 223.835938 256.433594 223.832031 256.5 223.828125 C 256.542969 223.824219 256.582031 223.824219 256.625 223.824219 C 256.699219 223.824219 256.773438 223.828125 256.847656 223.832031 C 256.882812 223.832031 256.914062 223.835938 256.949219 223.835938 C 257.058594 223.847656 257.171875 223.863281 257.28125 223.882812 L 263.722656 225.140625 L 276.621094 222.023438 L 270.175781 220.769531 C 269.703125 220.675781 269.238281 220.6875 268.800781 220.792969 L 255.90625 223.90625 C 255.929688 223.902344 255.957031 223.898438 255.984375 223.894531 C 256.046875 223.878906 256.109375 223.867188 256.175781 223.859375 C 256.21875 223.851562 256.257812 223.847656 256.300781 223.84375 " fill-opacity="1" fill-rule="nonzero"/></g><path fill="#8ba1ab" d="M 268.65625 273.609375 L 281.554688 270.492188 L 281.148438 228.886719 L 268.25 232.003906 L 268.65625 273.609375 " fill-opacity="1" fill-rule="nonzero"/><path fill="#90a7b1" d="M 266.902344 227.507812 C 267.746094 228.789062 268.234375 230.425781 268.25 232.003906 L 281.148438 228.886719 C 281.132812 227.308594 280.640625 225.671875 279.796875 224.394531 C 278.957031 223.113281 277.800781 222.253906 276.621094 222.023438 L 263.722656 225.140625 C 264.902344 225.367188 266.0625 226.230469 266.902344 227.507812 " fill-opacity="1" fill-rule="nonzero"/><path fill="#7d9099" d="M 302.53125 321.339844 L 309.035156 317.550781 C 311.328125 316.210938 312.46875 314.464844 312.464844 312.710938 C 312.464844 312.597656 312.449219 312.484375 312.4375 312.367188 C 312.429688 312.261719 312.429688 312.15625 312.410156 312.054688 C 312.390625 311.9375 312.355469 311.820312 312.324219 311.703125 C 312.300781 311.601562 312.28125 311.5 312.246094 311.398438 C 312.207031 311.28125 312.148438 311.164062 312.097656 311.046875 C 312.058594 310.949219 312.023438 310.847656 311.976562 310.753906 C 311.914062 310.632812 311.835938 310.515625 311.761719 310.398438 C 311.703125 310.304688 311.65625 310.210938 311.59375 310.121094 C 311.507812 310 311.40625 309.882812 311.308594 309.765625 C 311.238281 309.679688 311.179688 309.59375 311.105469 309.507812 C 310.992188 309.386719 310.863281 309.269531 310.738281 309.152344 C 310.660156 309.078125 310.589844 308.996094 310.503906 308.921875 C 310.363281 308.796875 310.203125 308.679688 310.042969 308.558594 C 309.960938 308.496094 309.886719 308.425781 309.796875 308.363281 C 309.542969 308.183594 309.269531 308.007812 308.980469 307.839844 C 304.34375 305.164062 296.871094 305.164062 292.257812 307.84375 L 292.214844 323.25 C 295.023438 321.617188 298.886719 320.988281 302.53125 321.339844 " fill-opacity="1" fill-rule="nonzero"/><path fill="#7d9099" d="M 264.292969 324.894531 C 264.234375 324.980469 264.191406 325.066406 264.140625 325.152344 C 264.0625 325.277344 263.980469 325.398438 263.917969 325.523438 C 263.875 325.613281 263.84375 325.703125 263.804688 325.792969 C 263.753906 325.914062 263.691406 326.039062 263.652344 326.164062 C 263.621094 326.257812 263.605469 326.347656 263.582031 326.441406 C 263.550781 326.566406 263.511719 326.691406 263.492188 326.8125 C 263.476562 326.910156 263.476562 327.007812 263.46875 327.101562 C 263.300781 328.964844 264.417969 330.855469 266.839844 332.289062 L 266.867188 322.628906 C 266.582031 322.796875 266.3125 322.972656 266.0625 323.152344 C 265.976562 323.214844 265.902344 323.28125 265.820312 323.34375 C 265.664062 323.464844 265.507812 323.582031 265.367188 323.707031 C 265.28125 323.78125 265.210938 323.859375 265.132812 323.9375 C 265.011719 324.054688 264.886719 324.167969 264.777344 324.289062 C 264.703125 324.367188 264.648438 324.453125 264.582031 324.535156 C 264.484375 324.652344 264.378906 324.773438 264.292969 324.894531 " fill-opacity="1" fill-rule="nonzero"/><path fill="#8ba1ab" d="M 292.425781 337.421875 L 292.382812 352.828125 L 317.773438 338.039062 L 317.816406 322.632812 L 292.425781 337.421875 " fill-opacity="1" fill-rule="nonzero"/><path fill="#90a7b1" d="M 258.195312 337.421875 C 257.898438 337.25 257.609375 337.074219 257.332031 336.894531 C 257.238281 336.835938 257.152344 336.773438 257.058594 336.710938 C 256.878906 336.589844 256.695312 336.472656 256.523438 336.347656 C 256.425781 336.28125 256.332031 336.207031 256.238281 336.136719 C 256.082031 336.019531 255.921875 335.90625 255.773438 335.785156 C 255.671875 335.707031 255.578125 335.628906 255.484375 335.546875 C 255.347656 335.433594 255.207031 335.324219 255.074219 335.207031 C 254.976562 335.121094 254.886719 335.03125 254.792969 334.945312 C 254.671875 334.835938 254.546875 334.726562 254.433594 334.613281 C 254.339844 334.523438 254.253906 334.425781 254.164062 334.335938 C 254.058594 334.226562 253.949219 334.117188 253.851562 334.007812 C 253.761719 333.910156 253.679688 333.808594 253.59375 333.710938 C 253.503906 333.601562 253.40625 333.496094 253.320312 333.386719 C 253.238281 333.285156 253.167969 333.183594 253.089844 333.085938 C 253.007812 332.976562 252.921875 332.867188 252.847656 332.757812 C 252.773438 332.652344 252.710938 332.546875 252.640625 332.445312 C 252.570312 332.335938 252.496094 332.226562 252.425781 332.113281 C 252.363281 332.011719 252.308594 331.902344 252.25 331.796875 C 252.1875 331.6875 252.121094 331.578125 252.066406 331.464844 C 252.007812 331.359375 251.964844 331.25 251.914062 331.140625 C 251.859375 331.03125 251.804688 330.917969 251.757812 330.808594 C 251.710938 330.699219 251.675781 330.589844 251.632812 330.480469 C 251.589844 330.367188 251.542969 330.257812 251.507812 330.144531 C 251.46875 330.035156 251.441406 329.925781 251.410156 329.816406 C 251.375 329.703125 251.339844 329.589844 251.3125 329.476562 C 251.28125 329.367188 251.265625 329.257812 251.242188 329.144531 C 251.21875 329.03125 251.191406 328.917969 251.171875 328.804688 C 251.152344 328.695312 251.140625 328.585938 251.128906 328.476562 C 251.113281 328.359375 251.097656 328.242188 251.085938 328.128906 C 251.078125 328.019531 251.074219 327.910156 251.070312 327.804688 C 251.066406 327.6875 251.058594 327.570312 251.058594 327.453125 C 251.058594 327.441406 251.054688 327.429688 251.054688 327.417969 L 251.011719 342.824219 C 251.003906 346.441406 253.382812 350.066406 258.152344 352.828125 C 263.300781 355.804688 270.167969 357.160156 276.875 356.90625 L 276.988281 350.140625 L 279.269531 349.035156 L 285.3125 355.679688 C 287.875 355.003906 290.277344 354.050781 292.382812 352.828125 L 292.425781 337.421875 C 283.003906 342.90625 267.6875 342.910156 258.195312 337.421875 " fill-opacity="1" fill-rule="nonzero"/><path fill="#bdbcbc" d="M 243.019531 349.738281 C 243.585938 349.207031 243.972656 348.492188 244.097656 347.707031 C 245.375 347.6875 246.480469 346.738281 246.636719 345.425781 C 246.660156 345.257812 246.664062 345.089844 246.652344 344.921875 C 246.605469 344.28125 246.320312 343.703125 245.882812 343.269531 C 245.867188 343.253906 245.859375 343.238281 245.84375 343.226562 C 245.730469 343.117188 245.605469 343.019531 245.46875 342.929688 C 245.199219 342.757812 244.894531 342.628906 244.5625 342.5625 C 244.558594 342.503906 244.554688 342.445312 244.542969 342.382812 C 244.523438 342.265625 244.5 342.152344 244.46875 342.042969 C 244.460938 342.003906 244.445312 341.96875 244.4375 341.933594 C 244.414062 341.859375 244.390625 341.789062 244.367188 341.71875 C 244.347656 341.671875 244.328125 341.628906 244.3125 341.585938 C 244.285156 341.527344 244.261719 341.464844 244.234375 341.410156 C 244.210938 341.363281 244.1875 341.316406 244.160156 341.273438 C 244.132812 341.21875 244.105469 341.167969 244.074219 341.117188 C 244.046875 341.070312 244.015625 341.027344 243.984375 340.980469 C 243.957031 340.9375 243.925781 340.890625 243.890625 340.847656 C 243.859375 340.800781 243.820312 340.757812 243.785156 340.710938 C 243.753906 340.671875 243.722656 340.636719 243.6875 340.597656 C 243.648438 340.554688 243.605469 340.507812 243.5625 340.464844 C 243.53125 340.433594 243.5 340.402344 243.464844 340.371094 C 243.417969 340.328125 243.367188 340.285156 243.320312 340.242188 C 243.289062 340.214844 243.257812 340.191406 243.226562 340.167969 C 243.171875 340.125 243.113281 340.082031 243.054688 340.042969 C 243.03125 340.023438 243.003906 340.007812 242.980469 339.992188 C 242.914062 339.949219 242.847656 339.90625 242.777344 339.867188 C 242.761719 339.859375 242.746094 339.851562 242.726562 339.84375 C 242.1875 339.550781 241.570312 339.398438 240.929688 339.421875 C 242.117188 339.777344 243.0625 340.777344 243.277344 342.082031 C 243.285156 342.140625 243.289062 342.195312 243.292969 342.253906 C 244.542969 342.503906 245.410156 343.667969 245.253906 344.957031 C 245.101562 346.191406 244.0625 347.089844 242.851562 347.109375 C 242.734375 347.851562 242.375 348.523438 241.835938 349.027344 C 241.839844 349.046875 241.847656 349.066406 241.847656 349.085938 C 242.144531 350.902344 240.914062 352.621094 239.101562 352.917969 C 238.277344 353.054688 237.480469 352.875 236.820312 352.46875 C 236.476562 352.789062 236.039062 353.019531 235.539062 353.101562 C 234.800781 353.222656 234.089844 352.992188 233.558594 352.539062 C 233.910156 353.324219 234.621094 353.886719 235.453125 354.042969 C 235.46875 354.046875 235.480469 354.046875 235.496094 354.050781 C 235.621094 354.070312 235.75 354.082031 235.882812 354.085938 C 235.902344 354.085938 235.925781 354.085938 235.945312 354.085938 C 236.078125 354.085938 236.214844 354.078125 236.347656 354.054688 C 236.746094 353.988281 237.105469 353.835938 237.414062 353.621094 C 237.519531 353.546875 237.617188 353.46875 237.707031 353.382812 C 238.230469 353.707031 238.835938 353.894531 239.472656 353.90625 C 239.6875 353.914062 239.902344 353.898438 240.121094 353.863281 C 240.722656 353.761719 241.261719 353.515625 241.710938 353.167969 C 242.160156 352.816406 242.519531 352.363281 242.757812 351.847656 C 242.945312 351.4375 243.058594 350.984375 243.078125 350.515625 C 243.085938 350.28125 243.070312 350.039062 243.03125 349.800781 C 243.027344 349.78125 243.023438 349.761719 243.019531 349.738281 " fill-opacity="1" fill-rule="nonzero"/><path fill="#d3d2d2" d="M 250.320312 349.460938 C 250.945312 349.296875 251.53125 349.007812 252.058594 348.648438 C 251.425781 348.765625 250.832031 348.914062 250.226562 348.976562 C 249.621094 349.058594 249.019531 349.082031 248.421875 349.0625 C 247.820312 349.058594 247.21875 348.976562 246.621094 348.867188 C 246.023438 348.75 245.429688 348.597656 244.828125 348.394531 C 245.304688 348.824219 245.886719 349.125 246.496094 349.339844 C 247.105469 349.554688 247.75 349.671875 248.398438 349.695312 C 249.046875 349.703125 249.703125 349.648438 250.320312 349.460938 " fill-opacity="1" fill-rule="nonzero"/><path fill="#d3d2d2" d="M 245.675781 350.429688 C 245.28125 350.300781 244.894531 350.199219 244.40625 350.195312 C 244.652344 350.632812 245.054688 350.867188 245.46875 351.023438 C 245.886719 351.160156 246.34375 351.222656 246.808594 351.054688 C 246.621094 350.886719 246.433594 350.777344 246.246094 350.675781 C 246.058594 350.578125 245.867188 350.503906 245.675781 350.429688 " fill-opacity="1" fill-rule="nonzero"/><path fill="#d3d2d2" d="M 248.152344 352.589844 C 247.296875 352.597656 246.441406 352.492188 245.59375 352.324219 C 244.75 352.148438 243.90625 351.914062 243.085938 351.574219 C 243.789062 352.125 244.609375 352.53125 245.472656 352.796875 C 246.332031 353.074219 247.242188 353.214844 248.148438 353.21875 C 249.058594 353.210938 249.972656 353.105469 250.832031 352.816406 C 251.269531 352.703125 251.679688 352.503906 252.085938 352.324219 C 252.488281 352.121094 252.867188 351.878906 253.238281 351.636719 C 252.390625 351.914062 251.5625 352.1875 250.710938 352.339844 C 249.867188 352.523438 249.007812 352.59375 248.152344 352.589844 " fill-opacity="1" fill-rule="nonzero"/><path fill="#d78726" d="M 349.207031 356.558594 L 366.535156 350.699219 L 366.445312 348.160156 L 349.085938 353.761719 L 349.207031 356.558594 " fill-opacity="1" fill-rule="nonzero"/><path fill="#e28e28" d="M 335.328125 347.59375 L 335.425781 350.285156 L 349.207031 356.558594 L 349.085938 353.761719 L 335.328125 347.59375 " fill-opacity="1" fill-rule="nonzero"/><path fill="#e9e9e9" d="M 356.554688 336.269531 L 355.976562 334.019531 L 355.492188 332.128906 C 353.125 332.507812 349.730469 332.8125 346.421875 332.269531 L 346.132812 333.40625 L 345.363281 336.394531 C 349.511719 337.320312 354.019531 336.75 356.554688 336.269531 " fill-opacity="1" fill-rule="nonzero"/><path fill="#e9e9e9" d="M 354.488281 328.234375 L 353.453125 324.207031 C 353.4375 324.148438 353.410156 324.09375 353.394531 324.035156 C 351.914062 324.183594 350.238281 324.253906 348.519531 324.140625 C 348.515625 324.164062 348.503906 324.183594 348.5 324.207031 L 347.425781 328.371094 C 349.960938 328.660156 352.484375 328.5 354.488281 328.234375 " fill-opacity="1" fill-rule="nonzero"/><path fill="#e9e9e9" d="M 344.386719 340.183594 L 343.363281 344.175781 C 349.949219 346.601562 358.589844 344.175781 358.589844 344.175781 L 357.828125 341.210938 L 357.542969 340.105469 C 355.210938 340.621094 349.390625 341.625 344.386719 340.183594 " fill-opacity="1" fill-rule="nonzero"/><path fill="#d78726" d="M 246.71875 309.257812 L 229.359375 314.855469 L 229.476562 317.65625 L 246.808594 311.796875 L 246.71875 309.257812 " fill-opacity="1" fill-rule="nonzero"/><g clip-path="url(#28e581bf99)"><path fill="#e28e28" d="M 215.601562 308.691406 L 215.699219 311.382812 L 229.476562 317.65625 L 229.359375 314.855469 L 215.601562 308.691406 " fill-opacity="1" fill-rule="nonzero"/></g><path fill="#e9e9e9" d="M 236.828125 297.363281 L 236.25 295.113281 L 235.761719 293.226562 C 233.398438 293.601562 230 293.90625 226.695312 293.367188 L 226.144531 295.507812 L 225.636719 297.488281 C 229.785156 298.417969 234.292969 297.84375 236.828125 297.363281 " fill-opacity="1" fill-rule="nonzero"/><path fill="#e9e9e9" d="M 234.761719 289.332031 L 233.726562 285.300781 C 233.710938 285.242188 233.683594 285.191406 233.664062 285.132812 C 232.1875 285.28125 230.511719 285.351562 228.792969 285.238281 C 228.789062 285.257812 228.777344 285.277344 228.769531 285.300781 L 227.699219 289.46875 C 230.230469 289.753906 232.757812 289.59375 234.761719 289.332031 " fill-opacity="1" fill-rule="nonzero"/><path fill="#e9e9e9" d="M 238.863281 305.269531 L 238.015625 301.980469 L 237.816406 301.203125 C 235.484375 301.71875 229.664062 302.722656 224.660156 301.28125 L 223.632812 305.269531 C 230.21875 307.699219 238.859375 305.273438 238.863281 305.269531 " fill-opacity="1" fill-rule="nonzero"/><path fill="#d78726" d="M 276.988281 350.140625 L 289.082031 363.820312 L 291.59375 362.582031 L 285.3125 355.679688 L 279.269531 349.035156 L 276.988281 350.140625 " fill-opacity="1" fill-rule="nonzero"/><g clip-path="url(#5ba76904b0)"><path fill="#e28e28" d="M 288.984375 378.921875 L 291.402344 377.75 L 291.59375 362.582031 L 289.082031 363.820312 L 288.984375 378.921875 " fill-opacity="1" fill-rule="nonzero"/></g><path fill="#e9e9e9" d="M 270.101562 364 L 268.152344 365.535156 L 266.746094 366.640625 C 268.042969 368.65625 269.6875 371.652344 270.523438 374.902344 L 274.714844 374.21875 C 273.894531 370.039062 271.558594 366.132812 270.101562 364 " fill-opacity="1" fill-rule="nonzero"/><path fill="#e9e9e9" d="M 263.59375 369.125 L 260.332031 371.695312 C 260.28125 371.734375 260.246094 371.777344 260.199219 371.820312 C 260.929688 373.117188 261.667969 374.628906 262.253906 376.246094 C 262.277344 376.246094 262.300781 376.246094 262.324219 376.242188 L 266.558594 375.550781 C 265.800781 373.113281 264.640625 370.859375 263.59375 369.125 " fill-opacity="1" fill-rule="nonzero"/><path fill="#e9e9e9" d="M 276.503906 358.953125 L 274.195312 360.773438 L 273.210938 361.546875 C 274.621094 363.480469 277.875 368.417969 278.570312 373.589844 L 282.628906 372.925781 C 282.199219 365.90625 276.507812 358.953125 276.503906 358.953125 " fill-opacity="1" fill-rule="nonzero"/></svg>