<svg xmlns="http://www.w3.org/2000/svg" xmlns:xlink="http://www.w3.org/1999/xlink" width="512" zoomAndPan="magnify" viewBox="0 0 384 383.999986" height="512" preserveAspectRatio="xMidYMid meet" version="1.0"><defs><clipPath id="a58adcf953"><path d="M 0.363281 44 L 272.25 44 L 272.25 322.753906 L 0.363281 322.753906 Z M 0.363281 44 " clip-rule="nonzero"/></clipPath><clipPath id="a3da624a8a"><path d="M 190 29 L 254 29 L 254 83 L 190 83 Z M 190 29 " clip-rule="nonzero"/></clipPath><clipPath id="c33a8da2e8"><path d="M 175.539062 40.652344 L 239.636719 17.207031 L 255.867188 61.582031 L 191.773438 85.027344 Z M 175.539062 40.652344 " clip-rule="nonzero"/></clipPath><clipPath id="5f2c1b6157"><path d="M 175.539062 40.652344 L 239.636719 17.207031 L 255.867188 61.582031 L 191.773438 85.027344 Z M 175.539062 40.652344 " clip-rule="nonzero"/></clipPath><clipPath id="23c12be3af"><path d="M 189 27 L 256 27 L 256 85 L 189 85 Z M 189 27 " clip-rule="nonzero"/></clipPath><clipPath id="23374d33f1"><path d="M 175.539062 40.652344 L 239.636719 17.207031 L 255.867188 61.582031 L 191.773438 85.027344 Z M 175.539062 40.652344 " clip-rule="nonzero"/></clipPath><clipPath id="95b1bcb5a0"><path d="M 175.539062 40.652344 L 239.636719 17.207031 L 255.867188 61.582031 L 191.773438 85.027344 Z M 175.539062 40.652344 " clip-rule="nonzero"/></clipPath><clipPath id="288eeca118"><path d="M 325 252 L 379.855469 252 L 379.855469 357 L 325 357 Z M 325 252 " clip-rule="nonzero"/></clipPath><clipPath id="fc8bb1fea0"><path d="M 233 220.667969 L 325 220.667969 L 325 378.917969 L 233 378.917969 Z M 233 220.667969 " clip-rule="nonzero"/></clipPath><clipPath id="a1f0b98cd2"><path d="M 215.605469 283 L 247 283 L 247 318 L 215.605469 318 Z M 215.605469 283 " clip-rule="nonzero"/></clipPath><clipPath id="ad79c9cc2b"><path d="M 259 349 L 292 349 L 292 378.917969 L 259 378.917969 Z M 259 349 " clip-rule="nonzero"/></clipPath><clipPath id="a2180af8a4"><path d="M 215.605469 305 L 247 305 L 247 318 L 215.605469 318 Z M 215.605469 305 " clip-rule="nonzero"/></clipPath><clipPath id="5c82906430"><path d="M 276 349 L 292 349 L 292 378.917969 L 276 378.917969 Z M 276 349 " clip-rule="nonzero"/></clipPath><clipPath id="0a7fef208e"><path d="M 347 252 L 379.855469 252 L 379.855469 342 L 347 342 Z M 347 252 " clip-rule="nonzero"/></clipPath><clipPath id="fb32a89b82"><path d="M 255 220.667969 L 288 220.667969 L 288 311 L 255 311 Z M 255 220.667969 " clip-rule="nonzero"/></clipPath><clipPath id="346533dbbd"><path d="M 366 303 L 379.855469 303 L 379.855469 319 L 366 319 Z M 366 303 " clip-rule="nonzero"/></clipPath><clipPath id="73e7e404bd"><path d="M 360 301 L 379.855469 301 L 379.855469 307 L 360 307 Z M 360 301 " clip-rule="nonzero"/></clipPath><clipPath id="77f566acd1"><path d="M 255 220.667969 L 277 220.667969 L 277 226 L 255 226 Z M 255 220.667969 " clip-rule="nonzero"/></clipPath><clipPath id="e59997c367"><path d="M 215.605469 308 L 230 308 L 230 318 L 215.605469 318 Z M 215.605469 308 " clip-rule="nonzero"/></clipPath><clipPath id="57c193a31c"><path d="M 288 362 L 292 362 L 292 378.917969 L 288 378.917969 Z M 288 362 " clip-rule="nonzero"/></clipPath></defs><path fill="#f1f1f1" d="M 238.375 76.597656 C 238.738281 76.753906 239.085938 76.945312 239.410156 77.167969 C 239.738281 77.390625 240.042969 77.644531 240.320312 77.925781 C 240.597656 78.210938 240.84375 78.519531 241.058594 78.847656 C 241.277344 79.179688 241.460938 79.53125 241.605469 79.898438 C 241.753906 80.265625 241.867188 80.644531 241.9375 81.035156 C 242.011719 81.425781 242.046875 81.816406 242.042969 82.214844 C 242.039062 82.609375 241.996094 83 241.914062 83.390625 C 241.835938 83.777344 241.714844 84.152344 241.5625 84.519531 C 241.40625 84.882812 241.214844 85.230469 240.992188 85.554688 C 240.769531 85.882812 240.515625 86.1875 240.230469 86.464844 C 239.949219 86.742188 239.640625 86.988281 239.308594 87.203125 C 238.976562 87.421875 238.628906 87.605469 238.261719 87.753906 C 237.894531 87.898438 237.515625 88.011719 237.125 88.085938 C 236.734375 88.15625 236.34375 88.191406 235.945312 88.1875 C 235.550781 88.183594 235.15625 88.140625 234.769531 88.0625 C 234.382812 87.980469 234.003906 87.859375 233.640625 87.707031 C 233.277344 87.550781 232.929688 87.359375 232.601562 87.136719 C 232.277344 86.914062 231.972656 86.660156 231.695312 86.378906 C 231.417969 86.09375 231.171875 85.785156 230.953125 85.457031 C 230.738281 85.125 230.554688 84.773438 230.40625 84.40625 C 230.257812 84.039062 230.148438 83.660156 230.074219 83.269531 C 230 82.878906 229.96875 82.488281 229.972656 82.089844 C 229.976562 81.695312 230.015625 81.304688 230.097656 80.914062 C 230.179688 80.527344 230.296875 80.152344 230.453125 79.785156 C 230.609375 79.421875 230.796875 79.074219 231.023438 78.75 C 231.246094 78.421875 231.5 78.117188 231.78125 77.839844 C 232.066406 77.5625 232.371094 77.316406 232.703125 77.097656 C 233.035156 76.882812 233.386719 76.699219 233.753906 76.550781 C 234.121094 76.402344 234.5 76.292969 234.890625 76.21875 C 235.277344 76.148438 235.671875 76.113281 236.066406 76.117188 C 236.464844 76.121094 236.855469 76.164062 237.246094 76.242188 C 237.632812 76.324219 238.007812 76.445312 238.375 76.597656 Z M 238.375 76.597656 " fill-opacity="1" fill-rule="nonzero"/><g clip-path="url(#a58adcf953)"><path fill="#f1f1f1" d="M 0.554688 249.390625 C 0.792969 248.957031 1.132812 248.628906 1.574219 248.402344 C 2.015625 248.179688 2.480469 248.097656 2.96875 248.160156 L 5.167969 248.375 C 5.191406 248.070312 5.273438 247.78125 5.410156 247.507812 C 7.183594 243.632812 9.496094 240.105469 12.339844 236.929688 C 13.140625 236.058594 14.03125 235.289062 15.007812 234.617188 C 15.984375 233.945312 17.023438 233.390625 18.125 232.953125 C 19.226562 232.519531 20.363281 232.210938 21.535156 232.027344 C 22.707031 231.847656 23.882812 231.800781 25.0625 231.882812 C 26.949219 232.164062 28.726562 232.769531 30.390625 233.699219 C 32.054688 234.632812 33.5 235.828125 34.722656 237.292969 C 35.414062 238.148438 36.046875 239.042969 36.628906 239.972656 C 36.917969 237.523438 37.585938 235.179688 38.632812 232.945312 C 41.410156 226.984375 47.15625 220.875 53.703125 220.875 C 57.507812 220.921875 61.179688 221.652344 64.710938 223.070312 C 64.25 222.09375 63.894531 221.078125 63.644531 220.027344 C 63.394531 218.976562 63.253906 217.910156 63.226562 216.828125 C 63.195312 215.746094 63.277344 214.675781 63.472656 213.613281 C 63.667969 212.546875 63.964844 211.515625 64.375 210.515625 C 65.046875 209.234375 65.875 208.0625 66.859375 207 C 67.84375 205.941406 68.949219 205.023438 70.171875 204.253906 C 71.398438 203.484375 72.703125 202.886719 74.085938 202.464844 C 75.46875 202.039062 76.886719 201.800781 78.332031 201.75 C 81.191406 201.542969 83.992188 201.855469 86.734375 202.691406 C 85.707031 199.832031 85.484375 196.910156 86.058594 193.925781 C 87.023438 188.46875 90.644531 182.675781 96.5625 182.117188 C 99.875 182.03125 103.09375 182.53125 106.226562 183.617188 C 109.355469 184.699219 112.195312 186.300781 114.742188 188.421875 C 115.152344 185.527344 115.910156 182.726562 117.011719 180.019531 C 117.464844 178.855469 118.027344 177.75 118.710938 176.703125 C 119.390625 175.65625 120.171875 174.691406 121.050781 173.808594 C 121.933594 172.925781 122.894531 172.140625 123.941406 171.460938 C 124.984375 170.777344 126.089844 170.207031 127.25 169.753906 C 128.035156 169.535156 128.832031 169.367188 129.640625 169.261719 C 130.449219 169.15625 131.257812 169.105469 132.074219 169.117188 C 132.890625 169.125 133.699219 169.195312 134.503906 169.324219 C 135.308594 169.449219 136.101562 169.636719 136.878906 169.878906 C 137.65625 170.121094 138.414062 170.417969 139.148438 170.769531 C 139.886719 171.121094 140.589844 171.523438 141.269531 171.976562 C 141.945312 172.429688 142.585938 172.929688 143.191406 173.476562 C 143.796875 174.023438 144.359375 174.609375 144.878906 175.238281 C 146.25 176.832031 147.367188 178.585938 148.234375 180.5 C 148.277344 180.25 148.332031 180 148.402344 179.753906 C 148.933594 177.796875 149.777344 175.988281 150.9375 174.332031 C 152.101562 172.671875 153.507812 171.257812 155.164062 170.09375 C 156.140625 169.515625 157.164062 169.046875 158.234375 168.683594 C 159.308594 168.320312 160.40625 168.070312 161.53125 167.933594 C 162.65625 167.800781 163.78125 167.78125 164.910156 167.882812 C 166.039062 167.980469 167.144531 168.195312 168.226562 168.523438 C 167.917969 167.011719 167.800781 165.480469 167.878906 163.9375 C 167.953125 162.394531 168.21875 160.882812 168.675781 159.40625 C 169.128906 157.929688 169.761719 156.53125 170.570312 155.214844 C 171.378906 153.894531 172.335938 152.699219 173.445312 151.621094 C 173.003906 151.476562 172.578125 151.296875 172.164062 151.089844 C 171.335938 150.589844 170.566406 150.007812 169.863281 149.34375 C 169.160156 148.679688 168.535156 147.945312 167.988281 147.144531 C 167.441406 146.347656 166.988281 145.496094 166.625 144.597656 C 166.261719 143.699219 166 142.773438 165.835938 141.816406 C 165.492188 140.28125 165.339844 138.722656 165.390625 137.144531 C 165.4375 135.570312 165.683594 134.023438 166.125 132.511719 C 166.566406 130.996094 167.191406 129.5625 167.996094 128.207031 C 168.800781 126.847656 169.765625 125.617188 170.882812 124.503906 C 173.050781 122.5625 175.570312 121.355469 178.441406 120.882812 C 176.535156 119.679688 174.929688 118.15625 173.632812 116.308594 C 172.335938 114.460938 171.445312 112.4375 170.957031 110.234375 C 170.699219 108.640625 170.664062 107.039062 170.851562 105.433594 C 171.039062 103.828125 171.445312 102.277344 172.066406 100.785156 C 172.6875 99.289062 173.5 97.910156 174.503906 96.644531 C 175.511719 95.378906 176.667969 94.273438 177.984375 93.332031 C 175.109375 90.917969 172.792969 86.691406 173.855469 79.425781 C 173.992188 78.601562 174.1875 77.796875 174.445312 77.003906 C 174.703125 76.210938 175.019531 75.441406 175.390625 74.699219 C 175.765625 73.953125 176.191406 73.242188 176.675781 72.5625 C 177.15625 71.882812 177.683594 71.242188 178.261719 70.640625 C 178.839844 70.042969 179.457031 69.488281 180.121094 68.980469 C 180.78125 68.476562 181.476562 68.019531 182.207031 67.617188 C 182.9375 67.21875 183.691406 66.871094 184.472656 66.585938 C 185.253906 66.296875 186.054688 66.070312 186.871094 65.902344 C 189.320312 65.472656 191.734375 65.628906 194.113281 66.359375 C 193.679688 64.527344 193.546875 62.675781 193.714844 60.800781 C 193.886719 58.921875 194.347656 57.125 195.101562 55.398438 C 195.550781 54.457031 196.074219 53.5625 196.667969 52.707031 C 197.261719 51.851562 197.921875 51.050781 198.644531 50.300781 C 199.367188 49.550781 200.148438 48.867188 200.984375 48.242188 C 201.816406 47.621094 202.695312 47.070312 203.621094 46.589844 C 204.546875 46.109375 205.5 45.707031 206.492188 45.378906 C 207.480469 45.054688 208.488281 44.8125 209.515625 44.648438 C 210.546875 44.484375 211.582031 44.40625 212.621094 44.410156 C 213.664062 44.417969 214.699219 44.503906 215.722656 44.675781 C 216.730469 44.890625 217.71875 45.171875 218.683594 45.523438 C 219.652344 45.871094 220.585938 46.289062 221.496094 46.773438 C 222.402344 47.257812 223.273438 47.800781 224.105469 48.40625 C 224.933594 49.011719 225.71875 49.675781 226.457031 50.390625 C 227.195312 51.105469 227.878906 51.871094 228.507812 52.683594 C 229.136719 53.496094 229.707031 54.351562 230.21875 55.246094 C 230.726562 56.136719 231.171875 57.0625 231.550781 58.019531 C 231.929688 58.972656 232.242188 59.953125 232.480469 60.953125 C 235.402344 60.25 238.375 59.671875 241.609375 59.1875 C 253.054688 56.96875 261.410156 60.492188 266.335938 69.742188 C 268.789062 74.847656 270.398438 80.207031 271.164062 85.824219 C 272.460938 91.476562 272.695312 97.175781 271.863281 102.917969 C 271.621094 104.46875 271.191406 105.96875 270.574219 107.410156 C 269.960938 108.855469 269.175781 110.203125 268.222656 111.449219 C 267.269531 112.699219 266.175781 113.8125 264.945312 114.785156 C 263.714844 115.761719 262.382812 116.570312 260.949219 117.214844 C 258.507812 118.042969 255.996094 118.507812 253.417969 118.613281 C 251.148438 118.664062 248.953125 119.082031 246.824219 119.871094 C 244.769531 120.917969 242.988281 122.316406 241.488281 124.070312 C 239.984375 125.820312 238.875 127.792969 238.15625 129.988281 C 236.554688 135.210938 235.75 140.554688 235.742188 146.019531 L 235.546875 149.8125 C 232.988281 199.09375 230.355469 250.042969 212.535156 296.644531 C 210.882812 301.863281 208.21875 306.5 204.542969 310.554688 C 200.679688 314.367188 194.113281 317.167969 188.148438 314.828125 C 180.90625 312.050781 179.140625 304.757812 177.355469 297.707031 C 176.625 294.269531 175.507812 290.960938 174 287.785156 C 173.3125 286.511719 172.472656 285.355469 171.480469 284.304688 C 170.488281 283.257812 169.375 282.355469 168.144531 281.601562 C 166.914062 280.847656 165.605469 280.265625 164.222656 279.855469 C 162.835938 279.449219 161.421875 279.226562 159.980469 279.191406 C 158.535156 279.15625 157.113281 279.308594 155.710938 279.648438 C 154.308594 279.988281 152.972656 280.503906 151.707031 281.199219 C 150.441406 281.890625 149.285156 282.734375 148.242188 283.734375 C 147.199219 284.730469 146.304688 285.847656 145.554688 287.082031 C 143.621094 290.773438 142.382812 294.6875 141.835938 298.820312 C 141.179688 303.363281 139.800781 307.675781 137.707031 311.761719 C 136.71875 313.414062 135.539062 314.910156 134.164062 316.257812 C 132.792969 317.605469 131.269531 318.757812 129.597656 319.710938 C 127.929688 320.664062 126.164062 321.390625 124.304688 321.886719 C 122.445312 322.386719 120.554688 322.640625 118.632812 322.652344 C 117.503906 322.648438 116.386719 322.554688 115.273438 322.359375 C 114.191406 322.171875 113.125 321.90625 112.082031 321.558594 C 111.039062 321.214844 110.023438 320.792969 109.042969 320.296875 C 108.058594 319.796875 107.121094 319.234375 106.222656 318.597656 C 105.324219 317.960938 104.476562 317.261719 103.683594 316.5 C 102.886719 315.738281 102.15625 314.921875 101.480469 314.054688 C 100.808594 313.183594 100.203125 312.269531 99.664062 311.308594 C 99.125 310.347656 98.660156 309.355469 98.269531 308.324219 C 97.882812 307.296875 97.570312 306.242188 97.335938 305.167969 C 96.855469 302.371094 96.660156 299.554688 96.753906 296.71875 C 97.054688 293.125 96.554688 289.648438 95.257812 286.285156 C 91.683594 279.042969 81.589844 277.882812 71.109375 277.761719 C 36.917969 277.351562 13.882812 268.949219 0.773438 252.046875 C 0.472656 251.664062 0.304688 251.234375 0.265625 250.75 C 0.226562 250.269531 0.320312 249.816406 0.554688 249.390625 Z M 30.90625 240.503906 C 30.691406 240.207031 30.457031 239.921875 30.207031 239.648438 C 29.957031 239.378906 29.691406 239.121094 29.414062 238.882812 C 29.132812 238.640625 28.839844 238.417969 28.535156 238.210938 C 28.230469 238.003906 27.910156 237.816406 27.585938 237.648438 C 27.257812 237.476562 26.921875 237.328125 26.574219 237.199219 C 26.230469 237.066406 25.878906 236.957031 25.519531 236.871094 C 25.160156 236.78125 24.800781 236.710938 24.433594 236.664062 C 24.066406 236.617188 23.699219 236.59375 23.332031 236.589844 C 22.960938 236.585938 22.59375 236.601562 22.226562 236.640625 C 21.859375 236.679688 21.496094 236.738281 21.136719 236.820312 C 20.777344 236.902344 20.425781 237.003906 20.074219 237.125 C 19.726562 237.25 19.386719 237.390625 19.058594 237.554688 C 18.726562 237.714844 18.40625 237.894531 18.09375 238.09375 C 17.785156 238.296875 17.484375 238.511719 17.199219 238.746094 C 16.917969 238.980469 16.644531 239.230469 16.390625 239.496094 C 16.132812 239.761719 15.894531 240.042969 15.671875 240.335938 C 13.386719 242.871094 11.527344 245.691406 10.09375 248.785156 C 18.71875 249.492188 27.332031 249.347656 35.929688 248.351562 C 35.828125 248.246094 35.730469 248.132812 35.640625 248.015625 C 34.355469 245.328125 32.777344 242.824219 30.90625 240.503906 Z M 42.980469 235.144531 C 42.472656 236.066406 42.082031 237.03125 41.808594 238.046875 C 41.53125 239.058594 41.378906 240.089844 41.351562 241.140625 C 41.320312 242.191406 41.414062 243.226562 41.632812 244.253906 C 41.851562 245.28125 42.1875 246.269531 42.644531 247.21875 L 43.898438 247 C 49.097656 245.925781 54.074219 244.210938 58.828125 241.847656 C 63.582031 239.488281 67.960938 236.5625 71.957031 233.066406 C 70.738281 231.914062 69.425781 230.886719 68.015625 229.984375 C 66.601562 229.082031 65.117188 228.320312 63.5625 227.699219 C 62.003906 227.078125 60.402344 226.613281 58.757812 226.296875 C 57.109375 225.980469 55.449219 225.824219 53.773438 225.824219 C 49.984375 225.824219 45.394531 229.6875 42.980469 235.144531 Z M 78.597656 206.484375 C 77.582031 206.507812 76.585938 206.660156 75.613281 206.945312 C 74.636719 207.226562 73.714844 207.628906 72.847656 208.152344 C 71.976562 208.675781 71.1875 209.300781 70.480469 210.027344 C 69.773438 210.757812 69.171875 211.5625 68.671875 212.445312 C 68.09375 213.953125 67.859375 215.507812 67.96875 217.117188 C 68.078125 218.722656 68.523438 220.234375 69.300781 221.644531 C 70.914062 224.59375 73.023438 227.128906 75.625 229.253906 C 76.351562 228.429688 77.074219 227.609375 77.726562 226.839844 C 79.824219 223.929688 81.75 220.914062 83.5 217.78125 C 85.195312 214.773438 87.046875 211.859375 89.050781 209.042969 C 87.480469 208.09375 85.800781 207.402344 84.019531 206.964844 C 82.238281 206.527344 80.429688 206.367188 78.597656 206.484375 Z M 96.921875 186.851562 C 93.519531 187.1875 91.371094 191.027344 90.71875 194.699219 C 90.066406 198.371094 90.71875 202.113281 93.398438 203.777344 C 96.128906 201.214844 99.144531 199.046875 102.445312 197.273438 C 105.742188 195.503906 109.214844 194.183594 112.859375 193.324219 C 111.820312 192.273438 110.683594 191.339844 109.453125 190.519531 C 108.222656 189.699219 106.925781 189.011719 105.554688 188.453125 C 104.183594 187.898438 102.773438 187.484375 101.320312 187.214844 C 99.867188 186.945312 98.402344 186.824219 96.921875 186.851562 Z M 141.136719 178.328125 C 140.40625 177.425781 139.5625 176.644531 138.605469 175.988281 C 137.652344 175.328125 136.621094 174.816406 135.519531 174.457031 C 134.417969 174.09375 133.285156 173.894531 132.125 173.859375 C 130.964844 173.824219 129.824219 173.953125 128.699219 174.246094 C 127.019531 174.957031 125.546875 175.976562 124.289062 177.296875 C 123.027344 178.621094 122.085938 180.136719 121.457031 181.851562 C 120.1875 185.132812 119.378906 188.519531 119.042969 192.019531 C 123.625 191.261719 128.238281 190.792969 132.878906 190.617188 L 139.953125 190.375 L 145.917969 190.183594 C 145.714844 188.015625 145.210938 185.921875 144.394531 183.90625 C 143.582031 181.886719 142.496094 180.027344 141.136719 178.328125 Z M 157.699219 174.175781 C 156.515625 175.011719 155.507812 176.023438 154.675781 177.214844 C 153.847656 178.40625 153.246094 179.703125 152.871094 181.105469 C 152.136719 183.972656 151.726562 186.886719 151.640625 189.84375 C 155.308594 189.601562 158.945312 189.128906 162.554688 188.421875 C 165.585938 187.882812 168.488281 186.953125 171.265625 185.628906 C 174.046875 184.304688 176.597656 182.636719 178.925781 180.621094 C 178.105469 179.847656 177.28125 179.125 176.511719 178.425781 C 174.945312 177.640625 173.515625 176.667969 172.210938 175.503906 C 171.441406 175.066406 170.644531 174.632812 169.796875 174.199219 C 168.867188 173.695312 167.894531 173.316406 166.871094 173.054688 C 165.847656 172.796875 164.808594 172.664062 163.753906 172.664062 C 162.695312 172.660156 161.65625 172.789062 160.632812 173.042969 C 159.609375 173.300781 158.632812 173.675781 157.699219 174.175781 Z M 172.671875 163.671875 C 172.367188 165.660156 172.597656 167.582031 173.371094 169.441406 C 173.769531 170.25 174.292969 170.964844 174.941406 171.589844 C 176.316406 172.410156 177.625 173.320312 178.875 174.320312 C 180.011719 174.851562 181.292969 175.359375 182.402344 175.792969 C 184.664062 170.652344 185.902344 165.273438 186.121094 159.664062 L 186.339844 157.511719 C 186.339844 157.03125 186.339844 156.546875 186.484375 156.089844 C 186.148438 155.492188 185.710938 154.984375 185.167969 154.566406 C 184.628906 154.148438 184.027344 153.851562 183.367188 153.675781 C 182.464844 153.410156 181.546875 153.320312 180.613281 153.414062 C 179.675781 153.503906 178.792969 153.769531 177.960938 154.207031 C 177.179688 154.734375 176.472656 155.34375 175.835938 156.039062 C 175.199219 156.730469 174.652344 157.488281 174.191406 158.3125 C 173.734375 159.132812 173.375 159.996094 173.117188 160.902344 C 172.863281 161.808594 172.710938 162.730469 172.671875 163.671875 Z M 170.472656 140.972656 C 170.644531 142.207031 171.0625 143.351562 171.734375 144.402344 C 172.40625 145.449219 173.265625 146.3125 174.3125 146.984375 C 175.769531 147.582031 177.28125 147.921875 178.851562 148 L 187.230469 148.894531 C 187.738281 142.640625 188.027344 136.359375 188.101562 130.132812 C 188.101562 129.238281 188.101562 128.34375 188.101562 127.449219 C 187.359375 127.679688 186.664062 127.578125 186.023438 127.136719 C 185.566406 126.84375 185.085938 126.585938 184.585938 126.371094 C 184.085938 126.15625 183.570312 125.984375 183.039062 125.855469 C 182.511719 125.726562 181.972656 125.640625 181.429688 125.597656 C 180.886719 125.558594 180.34375 125.5625 179.800781 125.609375 C 179.257812 125.660156 178.722656 125.753906 178.195312 125.890625 C 177.667969 126.027344 177.15625 126.207031 176.660156 126.429688 C 176.160156 126.652344 175.683594 126.914062 175.230469 127.214844 C 174.777344 127.515625 174.347656 127.851562 173.949219 128.222656 C 173.144531 129.054688 172.457031 129.96875 171.882812 130.972656 C 171.3125 131.976562 170.875 133.035156 170.570312 134.148438 C 170.265625 135.265625 170.105469 136.398438 170.089844 137.554688 C 170.074219 138.710938 170.199219 139.851562 170.472656 140.972656 Z M 175.640625 109.339844 C 175.808594 110.035156 176.03125 110.710938 176.3125 111.371094 C 176.59375 112.027344 176.925781 112.65625 177.316406 113.253906 C 177.703125 113.855469 178.140625 114.417969 178.625 114.945312 C 179.109375 115.46875 179.632812 115.949219 180.199219 116.386719 C 180.765625 116.824219 181.363281 117.207031 181.996094 117.542969 C 182.628906 117.878906 183.28125 118.15625 183.960938 118.378906 C 184.640625 118.601562 185.332031 118.765625 186.039062 118.867188 C 186.746094 118.972656 187.457031 119.015625 188.171875 119 C 188.164062 114.15625 188.410156 109.328125 188.921875 104.511719 C 189.210938 102.097656 189.621094 99.078125 190.25 96.0625 L 190.082031 96.0625 C 188.386719 95.296875 186.640625 95.148438 184.839844 95.625 C 184.113281 95.820312 183.410156 96.078125 182.726562 96.398438 C 182.046875 96.71875 181.398438 97.101562 180.785156 97.539062 C 180.171875 97.976562 179.605469 98.464844 179.078125 99.003906 C 178.554688 99.546875 178.082031 100.128906 177.664062 100.753906 C 177.242188 101.378906 176.882812 102.039062 176.582031 102.726562 C 176.28125 103.417969 176.042969 104.128906 175.871094 104.863281 C 175.699219 105.597656 175.59375 106.339844 175.554688 107.09375 C 175.515625 107.84375 175.542969 108.59375 175.640625 109.339844 Z M 187.714844 70.707031 C 186.570312 70.953125 185.488281 71.359375 184.464844 71.929688 C 183.441406 72.496094 182.527344 73.203125 181.714844 74.046875 C 180.902344 74.890625 180.234375 75.835938 179.703125 76.878906 C 179.175781 77.921875 178.8125 79.019531 178.609375 80.171875 C 177.839844 85.53125 179.191406 89.011719 182.789062 90.84375 L 182.933594 90.964844 L 183.851562 90.699219 C 186.453125 90.105469 188.996094 90.289062 191.480469 91.253906 C 192.621094 87.21875 194.414062 83.5 196.867188 80.101562 C 197.808594 78.902344 198.832031 77.773438 199.933594 76.71875 C 199.800781 76.59375 199.679688 76.457031 199.570312 76.308594 C 198.972656 75.304688 198.238281 74.410156 197.371094 73.625 C 196.503906 72.839844 195.542969 72.199219 194.484375 71.703125 C 193.425781 71.207031 192.316406 70.875 191.160156 70.710938 C 190 70.542969 188.84375 70.550781 187.691406 70.730469 Z M 227.773438 62.0625 C 227.40625 60.507812 226.828125 59.035156 226.042969 57.644531 C 225.257812 56.253906 224.292969 55 223.152344 53.882812 C 222.011719 52.765625 220.738281 51.828125 219.332031 51.074219 C 217.925781 50.316406 216.441406 49.769531 214.878906 49.433594 C 214.113281 49.304688 213.34375 49.234375 212.566406 49.230469 C 211.792969 49.222656 211.019531 49.28125 210.253906 49.398438 C 209.488281 49.515625 208.734375 49.695312 207.996094 49.933594 C 207.257812 50.171875 206.542969 50.464844 205.851562 50.820312 C 205.164062 51.171875 204.503906 51.578125 203.878906 52.039062 C 203.253906 52.5 202.667969 53.003906 202.125 53.558594 C 201.582031 54.109375 201.085938 54.703125 200.636719 55.335938 C 200.1875 55.96875 199.792969 56.632812 199.449219 57.328125 C 199.164062 58.015625 198.945312 58.722656 198.785156 59.449219 C 198.625 60.171875 198.53125 60.90625 198.503906 61.648438 C 198.476562 62.390625 198.511719 63.132812 198.617188 63.867188 C 198.71875 64.601562 198.886719 65.324219 199.117188 66.03125 C 199.347656 66.738281 199.636719 67.417969 199.988281 68.070312 C 200.339844 68.726562 200.746094 69.34375 201.207031 69.925781 C 201.667969 70.507812 202.175781 71.046875 202.734375 71.539062 C 203.289062 72.03125 203.886719 72.46875 204.519531 72.855469 C 208.207031 70.207031 212.160156 68.042969 216.375 66.359375 C 220.601562 64.644531 224.273438 63.34375 227.871094 62.28125 C 227.832031 62.210938 227.800781 62.136719 227.773438 62.0625 Z M 71.28125 272.933594 C 78.71875 272.933594 94.21875 273.222656 99.605469 284.160156 C 101.257812 288.191406 101.917969 292.375 101.585938 296.71875 C 101.496094 299.230469 101.65625 301.722656 102.066406 304.203125 C 102.226562 305.054688 102.449219 305.886719 102.734375 306.703125 C 103.019531 307.515625 103.367188 308.308594 103.773438 309.070312 C 104.179688 309.832031 104.644531 310.558594 105.160156 311.25 C 105.679688 311.941406 106.25 312.589844 106.867188 313.195312 C 107.484375 313.800781 108.144531 314.351562 108.847656 314.855469 C 109.550781 315.359375 110.289062 315.804688 111.058594 316.195312 C 111.832031 316.585938 112.628906 316.914062 113.449219 317.183594 C 114.273438 317.449219 115.109375 317.652344 115.964844 317.792969 C 116.816406 317.929688 117.675781 318.003906 118.539062 318.011719 C 119.40625 318.019531 120.265625 317.960938 121.121094 317.835938 C 121.976562 317.710938 122.816406 317.523438 123.644531 317.269531 C 124.46875 317.015625 125.273438 316.699219 126.050781 316.324219 C 126.828125 315.945312 127.574219 315.511719 128.285156 315.019531 C 128.996094 314.53125 129.664062 313.988281 130.292969 313.394531 C 130.921875 312.800781 131.5 312.164062 132.03125 311.480469 C 132.5625 310.796875 133.039062 310.078125 133.457031 309.320312 C 135.277344 305.722656 136.46875 301.921875 137.03125 297.925781 C 137.695312 293.234375 139.144531 288.800781 141.378906 284.621094 C 142.335938 283.070312 143.476562 281.664062 144.792969 280.402344 C 146.109375 279.140625 147.5625 278.0625 149.152344 277.167969 C 150.742188 276.277344 152.417969 275.59375 154.179688 275.128906 C 155.941406 274.660156 157.734375 274.417969 159.558594 274.40625 L 160.066406 274.40625 C 161.925781 274.46875 163.75 274.769531 165.535156 275.304688 C 167.316406 275.835938 169.003906 276.589844 170.59375 277.5625 C 172.179688 278.53125 173.621094 279.691406 174.910156 281.035156 C 176.199219 282.375 177.296875 283.863281 178.199219 285.488281 C 179.914062 289.011719 181.175781 292.691406 181.992188 296.523438 C 183.609375 302.921875 185.011719 308.453125 189.863281 310.335938 C 190.855469 310.617188 191.867188 310.753906 192.898438 310.753906 C 193.929688 310.75 194.941406 310.609375 195.933594 310.324219 C 196.925781 310.042969 197.859375 309.628906 198.734375 309.085938 C 199.613281 308.539062 200.398438 307.886719 201.089844 307.125 C 204.230469 303.582031 206.523438 299.558594 207.972656 295.050781 C 225.527344 249.171875 228.160156 198.585938 230.671875 149.664062 L 230.863281 145.800781 C 230.898438 139.84375 231.816406 134.023438 233.617188 128.34375 C 234.082031 126.953125 234.679688 125.625 235.40625 124.351562 C 236.136719 123.078125 236.980469 121.890625 237.945312 120.789062 C 238.90625 119.683594 239.96875 118.683594 241.132812 117.789062 C 242.292969 116.894531 243.53125 116.125 244.84375 115.472656 C 247.484375 114.441406 250.222656 113.878906 253.054688 113.785156 C 255.164062 113.71875 257.226562 113.367188 259.234375 112.722656 C 260.28125 112.21875 261.253906 111.597656 262.148438 110.859375 C 263.042969 110.117188 263.832031 109.28125 264.519531 108.347656 C 265.210938 107.410156 265.773438 106.40625 266.214844 105.332031 C 266.65625 104.261719 266.964844 103.148438 267.132812 102 C 267.851562 96.839844 267.617188 91.71875 266.433594 86.644531 C 265.742188 81.542969 264.300781 76.667969 262.109375 72.011719 C 258.199219 64.765625 251.992188 62.109375 242.550781 63.996094 C 234.214844 65.242188 226.164062 67.511719 218.40625 70.804688 C 214.980469 72.058594 211.769531 73.71875 208.769531 75.789062 C 205.765625 77.859375 203.070312 80.269531 200.679688 83.023438 C 197.15625 87.632812 194.863281 94.78125 193.703125 104.875 C 193.097656 111.300781 192.855469 117.738281 192.976562 124.191406 C 192.976562 126.171875 192.976562 128.175781 192.976562 130.15625 C 192.976562 139.429688 192.300781 148.796875 191.289062 158.042969 L 191.070312 160.167969 C 190.296875 167.582031 189.429688 175.960938 183.972656 182.382812 C 179.503906 187.625 172.621094 191.246094 163.542969 193.128906 C 155.78125 194.515625 147.957031 195.207031 140.074219 195.207031 C 137.660156 195.207031 135.390625 195.207031 133.070312 195.449219 C 121.117188 195.980469 106.195312 197.863281 96.632812 207.519531 C 93.117188 211.375 90.136719 215.609375 87.699219 220.222656 C 85.855469 223.480469 83.828125 226.617188 81.613281 229.640625 C 80.285156 231.339844 78.851562 232.949219 77.316406 234.46875 C 77.269531 234.554688 77.210938 234.636719 77.148438 234.710938 L 76.859375 234.902344 C 72.4375 239.136719 67.519531 242.675781 62.101562 245.527344 C 56.683594 248.375 50.976562 250.417969 44.984375 251.660156 L 42.570312 252.144531 C 42.289062 252.25 42 252.304688 41.699219 252.3125 C 30.714844 254.117188 19.679688 254.496094 8.597656 253.449219 C 21.25 266.222656 41.796875 272.59375 71.28125 272.933594 Z M 71.28125 272.933594 " fill-opacity="1" fill-rule="nonzero"/></g><g clip-path="url(#a3da624a8a)"><g clip-path="url(#c33a8da2e8)"><g clip-path="url(#5f2c1b6157)"><path fill="#f4c50b" d="M 253.152344 58.738281 C 252.058594 55.753906 248.753906 54.21875 245.769531 55.308594 C 234.15625 59.558594 206.933594 69.515625 195.320312 73.761719 C 192.335938 74.855469 190.800781 78.160156 191.890625 81.144531 C 192.269531 82.179688 192.550781 82.949219 192.550781 82.949219 L 253.8125 60.539062 Z M 192.617188 74.753906 C 188.90625 64.609375 191.074219 53.742188 197.382812 45.890625 C 197.382812 45.890625 196.992188 44.824219 196.574219 43.683594 C 196.3125 42.964844 196.34375 42.175781 196.667969 41.484375 C 196.988281 40.789062 197.570312 40.253906 198.289062 39.992188 C 200.851562 39.054688 204.308594 37.789062 204.308594 37.789062 C 204.308594 37.789062 203.855469 36.3125 203.417969 34.890625 C 202.96875 33.425781 203.746094 31.867188 205.183594 31.34375 C 206.898438 30.714844 209.148438 29.890625 210.863281 29.265625 C 212.300781 28.738281 213.898438 29.429688 214.5 30.835938 C 215.085938 32.207031 215.691406 33.628906 215.691406 33.628906 C 215.691406 33.628906 219.148438 32.363281 221.710938 31.425781 C 222.429688 31.164062 223.21875 31.195312 223.914062 31.515625 C 224.605469 31.839844 225.140625 32.421875 225.402344 33.140625 C 225.820312 34.277344 226.210938 35.34375 226.210938 35.34375 C 236.09375 37.277344 244.761719 44.179688 248.472656 54.320312 Z M 192.617188 74.753906 " fill-opacity="1" fill-rule="evenodd"/></g></g></g><g clip-path="url(#23c12be3af)"><g clip-path="url(#23374d33f1)"><g clip-path="url(#95b1bcb5a0)"><path fill="#545454" d="M 191.265625 75.246094 C 190.074219 77.078125 189.730469 79.429688 190.539062 81.640625 C 190.917969 82.675781 191.199219 83.441406 191.199219 83.441406 C 191.472656 84.1875 192.296875 84.570312 193.046875 84.300781 L 254.304688 61.890625 C 255.050781 61.617188 255.433594 60.792969 255.164062 60.046875 L 254.503906 58.242188 C 253.695312 56.035156 251.914062 54.460938 249.824219 53.828125 C 246.035156 43.46875 237.316406 36.332031 227.285156 34.101562 C 227.285156 34.101562 226.753906 32.644531 226.753906 32.644531 C 226.359375 31.570312 225.554688 30.695312 224.519531 30.210938 C 223.480469 29.730469 222.292969 29.679688 221.21875 30.074219 C 221.21875 30.074219 216.476562 31.808594 216.476562 31.808594 C 216.476562 31.808594 215.824219 30.273438 215.824219 30.273438 C 214.921875 28.160156 212.527344 27.125 210.371094 27.914062 C 208.652344 28.539062 206.402344 29.363281 204.6875 29.992188 C 202.53125 30.78125 201.371094 33.117188 202.042969 35.3125 C 202.042969 35.3125 202.535156 36.90625 202.535156 36.90625 C 202.535156 36.90625 197.792969 38.640625 197.792969 38.640625 C 196.71875 39.035156 195.84375 39.839844 195.363281 40.875 C 194.878906 41.914062 194.828125 43.101562 195.222656 44.179688 L 195.753906 45.632812 C 189.535156 53.808594 187.476562 64.890625 191.265625 75.246094 Z M 251.800781 59.234375 L 251.964844 59.683594 C 243.839844 62.65625 201.535156 78.128906 193.40625 81.101562 C 193.40625 81.101562 193.242188 80.652344 193.242188 80.652344 C 192.425781 78.414062 193.574219 75.933594 195.8125 75.113281 C 207.429688 70.867188 234.648438 60.910156 246.265625 56.660156 C 248.503906 55.84375 250.980469 56.992188 251.800781 59.234375 Z M 203.378906 39.660156 L 198.78125 41.34375 C 198.425781 41.476562 198.132812 41.742188 197.972656 42.089844 C 197.8125 42.433594 197.792969 42.832031 197.925781 43.1875 L 201.550781 53.097656 C 201.824219 53.84375 201.4375 54.671875 200.695312 54.945312 C 199.949219 55.21875 199.121094 54.832031 198.847656 54.085938 L 196.953125 48.914062 C 192.394531 55.816406 190.902344 64.625 193.550781 73.027344 C 193.945312 72.785156 194.371094 72.578125 194.824219 72.414062 L 211.5625 66.289062 Z M 217.609375 34.457031 L 228.539062 60.082031 L 245.277344 53.957031 C 245.726562 53.792969 246.1875 53.675781 246.648438 53.605469 C 243.25 45.476562 236.425781 39.710938 228.484375 37.378906 L 230.378906 42.554688 C 230.652344 43.300781 230.269531 44.128906 229.523438 44.398438 C 228.777344 44.671875 227.949219 44.289062 227.675781 43.542969 L 224.050781 33.632812 C 223.921875 33.273438 223.652344 32.984375 223.304688 32.824219 C 222.960938 32.660156 222.5625 32.644531 222.207031 32.777344 Z M 225.832031 61.070312 L 213.175781 31.402344 C 212.875 30.699219 212.078125 30.351562 211.359375 30.613281 C 209.640625 31.242188 207.390625 32.066406 205.675781 32.695312 C 204.957031 32.957031 204.570312 33.734375 204.792969 34.46875 L 205.6875 37.367188 C 205.6875 37.367188 214.269531 65.300781 214.269531 65.300781 Z M 225.832031 61.070312 " fill-opacity="1" fill-rule="evenodd"/></g></g></g><g clip-path="url(#288eeca118)"><path fill="#97afba" d="M 348.222656 255.214844 C 348.179688 255.21875 348.140625 255.226562 348.097656 255.230469 C 348.140625 255.226562 348.179688 255.21875 348.222656 255.214844 Z M 348.542969 255.195312 C 348.503906 255.195312 348.464844 255.199219 348.421875 255.199219 C 348.464844 255.199219 348.503906 255.195312 348.542969 255.195312 Z M 348.871094 255.210938 C 348.835938 255.207031 348.800781 255.207031 348.769531 255.203125 C 348.800781 255.207031 348.835938 255.207031 348.871094 255.210938 Z M 351.5625 295.097656 L 351.585938 297.601562 L 350.554688 297.398438 Z M 379.734375 303.085938 L 373.476562 301.867188 L 373.070312 260.261719 C 373.054688 258.683594 372.5625 257.046875 371.71875 255.765625 C 370.878906 254.488281 369.71875 253.625 368.539062 253.398438 L 362.097656 252.140625 C 361.625 252.050781 361.160156 252.058594 360.722656 252.164062 L 347.824219 255.28125 C 347.851562 255.273438 347.878906 255.273438 347.90625 255.265625 C 346.8125 255.5 345.871094 256.320312 345.316406 257.59375 L 326.207031 301.378906 C 325.460938 303.089844 325.507812 305.347656 326.332031 307.335938 C 327.152344 309.316406 328.625 310.722656 330.203125 311.027344 L 351.757812 315.226562 L 351.828125 322.425781 C 350.546875 321.992188 348.949219 322.570312 348.511719 324.164062 C 348.507812 324.179688 348.5 324.191406 348.5 324.207031 L 347.425781 328.371094 L 344.386719 340.183594 L 343.363281 344.175781 L 343.109375 345.152344 L 335.328125 347.59375 L 335.425781 350.285156 L 349.207031 356.558594 L 366.535156 350.699219 L 366.445312 348.160156 L 358.695312 344.59375 L 358.589844 344.175781 L 357.960938 341.734375 L 357.527344 340.050781 L 360.921875 341.179688 L 373.816406 338.066406 L 373.617188 316.578125 L 379.851562 315.070312 L 379.734375 303.085938 " fill-opacity="1" fill-rule="nonzero"/></g><g clip-path="url(#fc8bb1fea0)"><path fill="#97afba" d="M 256.300781 223.84375 C 256.257812 223.847656 256.21875 223.851562 256.175781 223.859375 C 256.21875 223.851562 256.257812 223.847656 256.300781 223.84375 Z M 256.621094 223.824219 C 256.582031 223.824219 256.542969 223.824219 256.5 223.828125 C 256.542969 223.824219 256.582031 223.824219 256.621094 223.824219 Z M 256.949219 223.835938 C 256.914062 223.835938 256.882812 223.832031 256.847656 223.832031 C 256.882812 223.832031 256.914062 223.835938 256.949219 223.835938 Z M 259.664062 266.226562 L 258.632812 266.027344 L 259.640625 263.722656 Z M 273.332031 334.246094 L 292.214844 323.25 C 295.023438 321.617188 298.886719 320.988281 302.53125 321.339844 L 283.648438 332.339844 C 280.84375 333.96875 276.976562 334.597656 273.332031 334.246094 Z M 253.394531 226.21875 L 234.285156 270.003906 C 233.539062 271.714844 233.585938 273.972656 234.410156 275.960938 C 235.230469 277.945312 236.703125 279.347656 238.285156 279.65625 L 259.835938 283.855469 L 260.0625 307.953125 L 269 310.839844 L 270.042969 310.585938 L 258.089844 317.550781 C 253.394531 320.285156 251.054688 323.867188 251.058594 327.449219 C 251.058594 327.441406 251.054688 327.429688 251.054688 327.417969 L 251.011719 342.824219 C 251.003906 346.441406 253.382812 350.066406 258.152344 352.828125 C 263.300781 355.804688 270.167969 357.160156 276.875 356.90625 L 276.84375 358.683594 L 276.503906 358.953125 L 273.632812 361.214844 L 270.101562 364 L 268.253906 365.453125 L 263.59375 369.125 L 260.332031 371.695312 C 260.28125 371.734375 260.242188 371.777344 260.199219 371.820312 C 258.347656 373.476562 259.75 376.59375 262.253906 376.246094 C 262.277344 376.246094 262.300781 376.246094 262.324219 376.242188 L 266.558594 375.550781 L 270.523438 374.902344 L 274.714844 374.21875 L 278.570312 373.589844 L 282.628906 372.925781 L 283.621094 372.761719 L 288.984375 378.921875 L 291.402344 377.75 L 291.59375 362.582031 L 285.3125 355.679688 C 287.875 355.003906 290.277344 354.050781 292.382812 352.828125 L 317.773438 338.039062 C 322.453125 335.308594 324.796875 331.742188 324.804688 328.171875 L 324.847656 312.765625 C 324.847656 312.871094 324.839844 312.976562 324.835938 313.082031 C 324.988281 309.359375 322.617188 305.601562 317.703125 302.757812 C 308.21875 297.273438 292.90625 297.273438 283.476562 302.761719 L 281.859375 303.703125 L 281.695312 285.207031 L 287.929688 283.699219 L 287.8125 271.710938 L 281.554688 270.492188 L 281.148438 228.886719 C 281.132812 227.308594 280.640625 225.671875 279.796875 224.394531 C 278.957031 223.113281 277.800781 222.253906 276.621094 222.023438 L 270.175781 220.769531 C 269.703125 220.675781 269.238281 220.6875 268.800781 220.792969 L 255.90625 223.90625 C 255.929688 223.902344 255.957031 223.898438 255.984375 223.894531 C 254.890625 224.128906 253.949219 224.945312 253.394531 226.21875 " fill-opacity="1" fill-rule="nonzero"/></g><g clip-path="url(#a1f0b98cd2)"><path fill="#f9a72b" d="M 246.71875 309.257812 L 238.96875 305.691406 L 238.863281 305.269531 L 238.351562 303.292969 L 236.828125 297.363281 L 236.382812 295.628906 L 234.761719 289.332031 L 233.726562 285.300781 C 233.710938 285.242188 233.683594 285.191406 233.664062 285.132812 C 232.894531 282.761719 229.46875 282.800781 228.789062 285.25 C 228.78125 285.269531 228.777344 285.285156 228.769531 285.300781 L 227.699219 289.46875 L 226.695312 293.367188 L 226.144531 295.507812 L 224.660156 301.28125 L 223.632812 305.269531 L 223.382812 306.246094 L 215.601562 308.691406 L 215.699219 311.382812 L 229.476562 317.65625 L 246.808594 311.796875 L 246.71875 309.257812 " fill-opacity="1" fill-rule="nonzero"/></g><path fill="#d3d2d2" d="M 245.882812 343.269531 C 245.867188 343.253906 245.859375 343.238281 245.84375 343.226562 C 245.730469 343.117188 245.605469 343.019531 245.46875 342.929688 C 245.199219 342.757812 244.894531 342.628906 244.5625 342.5625 C 244.558594 342.503906 244.554688 342.445312 244.542969 342.382812 C 244.523438 342.265625 244.5 342.152344 244.46875 342.042969 C 244.460938 342.003906 244.445312 341.96875 244.4375 341.933594 C 244.414062 341.859375 244.390625 341.789062 244.367188 341.71875 C 244.347656 341.671875 244.328125 341.628906 244.3125 341.585938 C 244.285156 341.527344 244.261719 341.464844 244.234375 341.410156 C 244.210938 341.363281 244.1875 341.316406 244.160156 341.273438 C 244.132812 341.21875 244.105469 341.167969 244.074219 341.117188 C 244.046875 341.070312 244.015625 341.027344 243.984375 340.980469 C 243.957031 340.9375 243.925781 340.890625 243.890625 340.847656 C 243.859375 340.800781 243.820312 340.757812 243.785156 340.710938 C 243.753906 340.671875 243.722656 340.636719 243.6875 340.597656 C 243.648438 340.554688 243.605469 340.507812 243.5625 340.464844 C 243.53125 340.433594 243.5 340.402344 243.464844 340.371094 C 243.417969 340.328125 243.367188 340.285156 243.320312 340.242188 C 243.289062 340.214844 243.257812 340.191406 243.226562 340.167969 C 243.171875 340.125 243.113281 340.082031 243.054688 340.042969 C 243.03125 340.023438 243.003906 340.007812 242.980469 339.992188 C 242.914062 339.949219 242.847656 339.90625 242.777344 339.867188 C 242.761719 339.859375 242.746094 339.851562 242.726562 339.84375 C 242.1875 339.550781 241.574219 339.398438 240.929688 339.421875 C 240.785156 339.429688 240.636719 339.441406 240.492188 339.464844 C 239.460938 339.632812 238.613281 340.234375 238.09375 341.050781 C 237.460938 340.746094 236.734375 340.621094 235.988281 340.746094 C 234.066406 341.0625 232.761719 342.878906 233.078125 344.808594 C 233.132812 345.136719 233.230469 345.445312 233.367188 345.730469 C 232.84375 346.300781 232.570312 347.089844 232.707031 347.910156 C 232.839844 348.722656 233.335938 349.371094 233.992188 349.75 C 233.488281 350.316406 233.226562 351.089844 233.359375 351.898438 C 233.484375 352.664062 233.929688 353.285156 234.53125 353.671875 C 234.558594 353.6875 234.585938 353.707031 234.617188 353.722656 C 234.675781 353.757812 234.738281 353.792969 234.800781 353.824219 C 234.851562 353.847656 234.90625 353.871094 234.957031 353.890625 C 235.011719 353.914062 235.0625 353.933594 235.113281 353.953125 C 235.226562 353.988281 235.335938 354.019531 235.453125 354.042969 C 235.46875 354.046875 235.480469 354.046875 235.496094 354.050781 C 235.621094 354.070312 235.75 354.082031 235.882812 354.085938 C 235.902344 354.085938 235.925781 354.085938 235.945312 354.085938 C 236.078125 354.085938 236.214844 354.078125 236.347656 354.054688 C 236.746094 353.988281 237.105469 353.835938 237.414062 353.621094 C 237.519531 353.546875 237.617188 353.46875 237.707031 353.382812 C 238.230469 353.707031 238.835938 353.894531 239.472656 353.90625 C 239.6875 353.914062 239.902344 353.898438 240.121094 353.863281 C 240.570312 353.789062 240.988281 353.632812 241.359375 353.410156 C 241.480469 353.335938 241.597656 353.253906 241.710938 353.167969 C 242.160156 352.816406 242.519531 352.363281 242.757812 351.847656 C 242.945312 351.4375 243.058594 350.984375 243.078125 350.515625 C 243.085938 350.28125 243.070312 350.039062 243.03125 349.800781 C 243.027344 349.78125 243.023438 349.761719 243.019531 349.738281 C 243.585938 349.207031 243.972656 348.492188 244.097656 347.707031 C 245.375 347.6875 246.480469 346.738281 246.636719 345.425781 C 246.660156 345.257812 246.664062 345.089844 246.652344 344.921875 C 246.605469 344.28125 246.320312 343.703125 245.882812 343.269531 " fill-opacity="1" fill-rule="nonzero"/><path fill="#f9a72b" d="M 366.445312 348.160156 L 358.695312 344.59375 L 358.589844 344.175781 L 357.828125 341.210938 L 357.527344 340.050781 L 356.554688 336.269531 L 355.976562 334.019531 L 354.488281 328.234375 L 353.453125 324.207031 C 353.4375 324.148438 353.410156 324.09375 353.394531 324.035156 C 353.121094 323.203125 352.523438 322.664062 351.828125 322.425781 C 350.554688 321.992188 348.96875 322.566406 348.519531 324.140625 C 348.515625 324.164062 348.503906 324.183594 348.5 324.207031 L 347.425781 328.371094 L 346.421875 332.269531 L 346.132812 333.40625 L 344.386719 340.183594 L 343.363281 344.175781 L 343.109375 345.152344 L 335.328125 347.59375 L 335.425781 350.285156 L 349.207031 356.558594 L 366.535156 350.699219 L 366.445312 348.160156 " fill-opacity="1" fill-rule="nonzero"/><g clip-path="url(#ad79c9cc2b)"><path fill="#f9a72b" d="M 279.269531 349.035156 L 276.988281 350.140625 L 276.875 356.90625 L 276.84375 358.683594 L 276.503906 358.953125 L 274.195312 360.773438 L 270.101562 364 L 268.152344 365.535156 L 263.59375 369.125 L 260.332031 371.695312 C 260.28125 371.734375 260.246094 371.777344 260.199219 371.820312 C 258.347656 373.476562 259.75 376.59375 262.253906 376.246094 C 262.277344 376.246094 262.300781 376.246094 262.324219 376.242188 L 266.558594 375.550781 L 270.523438 374.902344 L 274.714844 374.21875 L 278.570312 373.589844 L 282.628906 372.925781 L 283.621094 372.761719 L 288.984375 378.921875 L 291.402344 377.75 L 291.59375 362.582031 L 285.3125 355.679688 L 279.269531 349.035156 " fill-opacity="1" fill-rule="nonzero"/></g><path fill="#ed952a" d="M 366.445312 348.160156 L 358.695312 344.59375 L 359.605469 348.136719 C 359.605469 348.136719 349.574219 352.066406 342.34375 348.136719 L 343.109375 345.152344 L 335.328125 347.59375 L 335.425781 350.285156 L 349.207031 356.558594 L 366.535156 350.699219 L 366.445312 348.160156 " fill-opacity="1" fill-rule="nonzero"/><g clip-path="url(#a2180af8a4)"><path fill="#ed952a" d="M 238.96875 305.691406 L 239.878906 309.230469 C 239.878906 309.230469 229.847656 313.160156 222.617188 309.230469 L 223.382812 306.246094 L 215.601562 308.691406 L 215.699219 311.382812 L 229.476562 317.65625 L 246.808594 311.796875 L 246.71875 309.257812 L 238.96875 305.691406 " fill-opacity="1" fill-rule="nonzero"/></g><g clip-path="url(#5c82906430)"><path fill="#ed952a" d="M 279.269531 349.035156 L 276.988281 350.140625 L 276.875 356.90625 L 276.84375 358.683594 L 279.714844 356.425781 C 279.714844 356.425781 287.339844 364.050781 286.65625 372.269531 L 283.621094 372.761719 L 288.984375 378.921875 L 291.402344 377.75 L 291.59375 362.582031 L 285.3125 355.679688 L 279.269531 349.035156 " fill-opacity="1" fill-rule="nonzero"/></g><path fill="#869aa4" d="M 350.554688 297.398438 L 351.5625 295.097656 L 351.308594 269.246094 L 337.660156 300.519531 L 351.640625 303.242188 L 351.585938 297.601562 L 350.554688 297.398438 " fill-opacity="1" fill-rule="nonzero"/><g clip-path="url(#0a7fef208e)"><path fill="#869aa4" d="M 379.851562 315.070312 L 379.734375 303.085938 L 373.476562 301.867188 L 373.070312 260.261719 C 373.054688 258.683594 372.5625 257.046875 371.71875 255.765625 C 370.878906 254.488281 369.71875 253.625 368.539062 253.398438 L 362.097656 252.140625 C 361.625 252.050781 361.160156 252.058594 360.722656 252.164062 L 347.824219 255.28125 C 347.851562 255.273438 347.878906 255.273438 347.90625 255.265625 C 347.96875 255.253906 348.03125 255.242188 348.097656 255.230469 C 348.140625 255.226562 348.179688 255.21875 348.222656 255.214844 C 348.289062 255.207031 348.355469 255.203125 348.421875 255.199219 C 348.464844 255.199219 348.503906 255.195312 348.542969 255.195312 C 348.617188 255.195312 348.691406 255.199219 348.769531 255.203125 C 348.800781 255.207031 348.835938 255.207031 348.871094 255.210938 C 348.980469 255.222656 349.09375 255.234375 349.203125 255.257812 L 355.644531 256.511719 C 356.824219 256.742188 357.980469 257.601562 358.820312 258.882812 C 359.667969 260.164062 360.15625 261.800781 360.171875 263.375 L 360.578125 304.980469 L 366.839844 306.203125 L 366.957031 318.1875 L 360.695312 316.96875 L 360.921875 341.179688 L 373.816406 338.066406 L 373.617188 316.578125 L 379.851562 315.070312 " fill-opacity="1" fill-rule="nonzero"/></g><path fill="#869aa4" d="M 259.664062 266.226562 L 258.632812 266.027344 L 259.640625 263.722656 L 259.386719 237.871094 L 245.738281 269.144531 L 259.71875 271.867188 L 259.664062 266.226562 " fill-opacity="1" fill-rule="nonzero"/><g clip-path="url(#fb32a89b82)"><path fill="#869aa4" d="M 256.175781 223.859375 C 256.21875 223.851562 256.257812 223.847656 256.300781 223.84375 C 256.367188 223.835938 256.433594 223.832031 256.5 223.828125 C 256.542969 223.824219 256.582031 223.824219 256.625 223.824219 C 256.699219 223.824219 256.773438 223.828125 256.847656 223.832031 C 256.882812 223.832031 256.914062 223.835938 256.949219 223.835938 C 257.058594 223.847656 257.171875 223.863281 257.28125 223.882812 L 263.722656 225.140625 C 264.902344 225.367188 266.0625 226.230469 266.902344 227.507812 C 267.746094 228.789062 268.234375 230.425781 268.25 232.003906 L 268.65625 273.609375 L 274.917969 274.828125 L 275.035156 286.816406 L 268.773438 285.59375 L 269 310.839844 L 270.042969 310.585938 L 281.859375 303.703125 L 281.695312 285.207031 L 287.929688 283.699219 L 287.8125 271.710938 L 281.554688 270.492188 L 281.148438 228.886719 C 281.132812 227.308594 280.640625 225.671875 279.796875 224.394531 C 278.957031 223.113281 277.800781 222.253906 276.621094 222.023438 L 270.175781 220.769531 C 269.703125 220.675781 269.238281 220.6875 268.800781 220.792969 L 255.90625 223.90625 C 255.929688 223.902344 255.957031 223.898438 255.984375 223.894531 C 256.046875 223.878906 256.109375 223.867188 256.175781 223.859375 " fill-opacity="1" fill-rule="nonzero"/></g><path fill="#869aa4" d="M 324.820312 313.402344 C 324.8125 313.519531 324.792969 313.636719 324.78125 313.753906 C 324.765625 313.859375 324.757812 313.964844 324.738281 314.070312 C 324.722656 314.1875 324.695312 314.304688 324.667969 314.421875 C 324.648438 314.527344 324.628906 314.632812 324.605469 314.742188 C 324.574219 314.855469 324.539062 314.972656 324.503906 315.085938 C 324.472656 315.191406 324.445312 315.300781 324.410156 315.402344 C 324.375 315.519531 324.328125 315.632812 324.285156 315.75 C 324.246094 315.851562 324.207031 315.957031 324.164062 316.0625 C 324.117188 316.179688 324.0625 316.292969 324.007812 316.40625 C 323.960938 316.507812 323.914062 316.613281 323.863281 316.714844 C 323.804688 316.828125 323.738281 316.945312 323.675781 317.054688 C 323.621094 317.15625 323.566406 317.261719 323.507812 317.363281 C 323.4375 317.476562 323.363281 317.585938 323.289062 317.699219 C 323.222656 317.796875 323.164062 317.898438 323.09375 318 C 323.015625 318.109375 322.929688 318.222656 322.847656 318.332031 C 322.773438 318.429688 322.707031 318.527344 322.628906 318.625 C 322.539062 318.738281 322.441406 318.847656 322.347656 318.957031 C 322.269531 319.050781 322.191406 319.144531 322.105469 319.242188 C 322.007812 319.351562 321.902344 319.457031 321.796875 319.5625 C 321.707031 319.65625 321.621094 319.753906 321.527344 319.84375 C 321.421875 319.949219 321.308594 320.050781 321.199219 320.15625 C 321.097656 320.246094 321 320.34375 320.894531 320.433594 C 320.777344 320.539062 320.648438 320.644531 320.519531 320.75 C 320.417969 320.835938 320.316406 320.921875 320.207031 321.007812 C 320.070312 321.121094 319.921875 321.226562 319.773438 321.335938 C 319.671875 321.414062 319.574219 321.492188 319.464844 321.566406 C 319.296875 321.6875 319.117188 321.808594 318.941406 321.925781 C 318.847656 321.988281 318.761719 322.050781 318.667969 322.109375 C 318.394531 322.285156 318.109375 322.460938 317.816406 322.632812 L 292.425781 337.421875 C 283.003906 342.90625 267.6875 342.910156 258.195312 337.421875 C 257.898438 337.25 257.609375 337.074219 257.332031 336.894531 C 257.238281 336.835938 257.152344 336.773438 257.058594 336.710938 C 256.878906 336.589844 256.695312 336.472656 256.523438 336.347656 C 256.425781 336.28125 256.332031 336.207031 256.238281 336.136719 C 256.082031 336.019531 255.921875 335.90625 255.773438 335.785156 C 255.671875 335.707031 255.578125 335.628906 255.484375 335.546875 C 255.347656 335.433594 255.207031 335.324219 255.074219 335.207031 C 254.976562 335.121094 254.886719 335.03125 254.792969 334.945312 C 254.671875 334.835938 254.546875 334.726562 254.433594 334.613281 C 254.339844 334.523438 254.253906 334.425781 254.164062 334.335938 C 254.058594 334.226562 253.949219 334.117188 253.851562 334.007812 C 253.761719 333.910156 253.679688 333.808594 253.59375 333.710938 C 253.503906 333.601562 253.40625 333.496094 253.320312 333.386719 C 253.238281 333.285156 253.167969 333.183594 253.089844 333.085938 C 253.007812 332.976562 252.921875 332.867188 252.847656 332.757812 C 252.773438 332.652344 252.710938 332.546875 252.640625 332.445312 C 252.570312 332.335938 252.496094 332.226562 252.425781 332.113281 C 252.363281 332.011719 252.308594 331.902344 252.25 331.796875 C 252.1875 331.6875 252.121094 331.578125 252.066406 331.464844 C 252.007812 331.359375 251.964844 331.25 251.914062 331.140625 C 251.859375 331.03125 251.804688 330.917969 251.757812 330.808594 C 251.710938 330.699219 251.675781 330.589844 251.632812 330.480469 C 251.589844 330.367188 251.542969 330.257812 251.507812 330.144531 C 251.46875 330.035156 251.441406 329.925781 251.410156 329.816406 C 251.375 329.703125 251.339844 329.589844 251.3125 329.476562 C 251.28125 329.367188 251.265625 329.257812 251.242188 329.144531 C 251.21875 329.03125 251.191406 328.917969 251.171875 328.804688 C 251.152344 328.695312 251.140625 328.585938 251.128906 328.476562 C 251.113281 328.359375 251.097656 328.242188 251.085938 328.128906 C 251.078125 328.019531 251.074219 327.910156 251.070312 327.804688 C 251.066406 327.6875 251.058594 327.570312 251.058594 327.453125 C 251.058594 327.441406 251.054688 327.429688 251.054688 327.417969 L 251.011719 342.824219 C 251.003906 346.441406 253.382812 350.066406 258.152344 352.828125 C 263.300781 355.804688 270.167969 357.160156 276.875 356.90625 L 276.988281 350.140625 L 279.269531 349.035156 L 285.3125 355.679688 C 287.875 355.003906 290.277344 354.050781 292.382812 352.828125 L 317.773438 338.039062 C 322.453125 335.308594 324.796875 331.742188 324.804688 328.171875 L 324.847656 312.765625 C 324.847656 312.871094 324.839844 312.976562 324.835938 313.082031 C 324.832031 313.1875 324.832031 313.292969 324.820312 313.402344 " fill-opacity="1" fill-rule="nonzero"/><path fill="#869aa4" d="M 266.0625 323.152344 C 265.976562 323.214844 265.902344 323.28125 265.820312 323.34375 C 265.664062 323.464844 265.507812 323.582031 265.367188 323.707031 C 265.28125 323.78125 265.210938 323.859375 265.132812 323.9375 C 265.011719 324.054688 264.886719 324.167969 264.777344 324.289062 C 264.703125 324.367188 264.648438 324.453125 264.582031 324.535156 C 264.484375 324.652344 264.378906 324.773438 264.292969 324.894531 C 264.234375 324.980469 264.191406 325.066406 264.140625 325.152344 C 264.0625 325.277344 263.980469 325.398438 263.917969 325.523438 C 263.875 325.613281 263.84375 325.703125 263.804688 325.792969 C 263.753906 325.914062 263.691406 326.039062 263.652344 326.164062 C 263.621094 326.257812 263.605469 326.347656 263.582031 326.441406 C 263.550781 326.566406 263.511719 326.691406 263.492188 326.8125 C 263.476562 326.910156 263.476562 327.007812 263.46875 327.101562 C 263.300781 328.964844 264.417969 330.855469 266.839844 332.289062 C 266.867188 332.304688 266.890625 332.324219 266.917969 332.339844 C 268.734375 333.386719 270.988281 334.019531 273.332031 334.246094 L 292.214844 323.25 C 295.023438 321.617188 298.886719 320.988281 302.53125 321.339844 L 309.035156 317.550781 C 311.328125 316.210938 312.46875 314.464844 312.464844 312.710938 C 312.464844 312.597656 312.449219 312.484375 312.4375 312.367188 C 312.429688 312.261719 312.429688 312.15625 312.410156 312.054688 C 312.390625 311.9375 312.355469 311.820312 312.324219 311.703125 C 312.300781 311.601562 312.28125 311.5 312.246094 311.398438 C 312.207031 311.28125 312.148438 311.164062 312.097656 311.046875 C 312.058594 310.949219 312.023438 310.847656 311.976562 310.753906 C 311.914062 310.632812 311.835938 310.515625 311.761719 310.398438 C 311.703125 310.304688 311.65625 310.210938 311.59375 310.121094 C 311.507812 310 311.40625 309.882812 311.308594 309.765625 C 311.238281 309.679688 311.179688 309.59375 311.105469 309.507812 C 310.992188 309.386719 310.863281 309.269531 310.738281 309.152344 C 310.660156 309.078125 310.589844 308.996094 310.503906 308.921875 C 310.363281 308.796875 310.203125 308.679688 310.042969 308.558594 C 309.960938 308.496094 309.886719 308.425781 309.796875 308.363281 C 309.542969 308.183594 309.269531 308.007812 308.980469 307.839844 C 304.34375 305.164062 296.871094 305.164062 292.257812 307.84375 L 266.867188 322.628906 C 266.582031 322.796875 266.3125 322.972656 266.0625 323.152344 " fill-opacity="1" fill-rule="nonzero"/><path fill="#7d9099" d="M 350.554688 297.398438 L 337.660156 300.519531 L 351.640625 303.242188 L 351.585938 297.601562 L 350.554688 297.398438 " fill-opacity="1" fill-rule="nonzero"/><g clip-path="url(#346533dbbd)"><path fill="#8ba1ab" d="M 366.957031 318.1875 L 373.617188 316.578125 L 379.851562 315.070312 L 379.734375 303.085938 L 366.839844 306.203125 L 366.957031 318.1875 " fill-opacity="1" fill-rule="nonzero"/></g><g clip-path="url(#73e7e404bd)"><path fill="#94abb6" d="M 366.839844 306.203125 L 379.734375 303.085938 L 373.476562 301.867188 L 360.578125 304.980469 L 366.839844 306.203125 " fill-opacity="1" fill-rule="nonzero"/></g><path fill="#94abb6" d="M 348.222656 255.214844 C 348.289062 255.207031 348.355469 255.203125 348.421875 255.199219 C 348.464844 255.199219 348.503906 255.195312 348.542969 255.195312 C 348.617188 255.195312 348.691406 255.199219 348.769531 255.203125 C 348.800781 255.207031 348.835938 255.207031 348.871094 255.210938 C 348.980469 255.222656 349.09375 255.234375 349.203125 255.257812 L 355.644531 256.511719 L 368.539062 253.398438 L 362.097656 252.140625 C 361.625 252.050781 361.160156 252.058594 360.722656 252.164062 L 347.824219 255.28125 C 347.851562 255.273438 347.878906 255.273438 347.90625 255.265625 C 347.96875 255.253906 348.03125 255.242188 348.097656 255.230469 C 348.140625 255.226562 348.179688 255.21875 348.222656 255.214844 " fill-opacity="1" fill-rule="nonzero"/><path fill="#8ba1ab" d="M 360.578125 304.980469 L 373.476562 301.867188 L 373.070312 260.261719 L 360.171875 263.375 L 360.578125 304.980469 " fill-opacity="1" fill-rule="nonzero"/><path fill="#90a7b1" d="M 358.820312 258.882812 C 359.667969 260.164062 360.15625 261.800781 360.171875 263.375 L 373.070312 260.261719 C 373.054688 258.683594 372.5625 257.046875 371.71875 255.765625 C 370.878906 254.488281 369.71875 253.625 368.539062 253.398438 L 355.644531 256.511719 C 356.824219 256.742188 357.980469 257.601562 358.820312 258.882812 " fill-opacity="1" fill-rule="nonzero"/><path fill="#7d9099" d="M 258.632812 266.027344 L 245.738281 269.144531 L 259.71875 271.867188 L 259.664062 266.226562 L 258.632812 266.027344 " fill-opacity="1" fill-rule="nonzero"/><path fill="#8ba1ab" d="M 275.035156 286.816406 L 281.695312 285.207031 L 287.929688 283.699219 L 287.8125 271.710938 L 274.917969 274.828125 L 275.035156 286.816406 " fill-opacity="1" fill-rule="nonzero"/><path fill="#94abb6" d="M 274.917969 274.828125 L 287.8125 271.710938 L 281.554688 270.492188 L 268.65625 273.609375 L 274.917969 274.828125 " fill-opacity="1" fill-rule="nonzero"/><g clip-path="url(#77f566acd1)"><path fill="#94abb6" d="M 256.300781 223.84375 C 256.367188 223.835938 256.433594 223.832031 256.5 223.828125 C 256.542969 223.824219 256.582031 223.824219 256.625 223.824219 C 256.699219 223.824219 256.773438 223.828125 256.847656 223.832031 C 256.882812 223.832031 256.914062 223.835938 256.949219 223.835938 C 257.058594 223.847656 257.171875 223.863281 257.28125 223.882812 L 263.722656 225.140625 L 276.621094 222.023438 L 270.175781 220.769531 C 269.703125 220.675781 269.238281 220.6875 268.800781 220.792969 L 255.90625 223.90625 C 255.929688 223.902344 255.957031 223.898438 255.984375 223.894531 C 256.046875 223.878906 256.109375 223.867188 256.175781 223.859375 C 256.21875 223.851562 256.257812 223.847656 256.300781 223.84375 " fill-opacity="1" fill-rule="nonzero"/></g><path fill="#8ba1ab" d="M 268.65625 273.609375 L 281.554688 270.492188 L 281.148438 228.886719 L 268.25 232.003906 L 268.65625 273.609375 " fill-opacity="1" fill-rule="nonzero"/><path fill="#90a7b1" d="M 266.902344 227.507812 C 267.746094 228.789062 268.234375 230.425781 268.25 232.003906 L 281.148438 228.886719 C 281.132812 227.308594 280.640625 225.671875 279.796875 224.394531 C 278.957031 223.113281 277.800781 222.253906 276.621094 222.023438 L 263.722656 225.140625 C 264.902344 225.367188 266.0625 226.230469 266.902344 227.507812 " fill-opacity="1" fill-rule="nonzero"/><path fill="#7d9099" d="M 302.53125 321.339844 L 309.035156 317.550781 C 311.328125 316.210938 312.46875 314.464844 312.464844 312.710938 C 312.464844 312.597656 312.449219 312.484375 312.4375 312.367188 C 312.429688 312.261719 312.429688 312.15625 312.410156 312.054688 C 312.390625 311.9375 312.355469 311.820312 312.324219 311.703125 C 312.300781 311.601562 312.28125 311.5 312.246094 311.398438 C 312.207031 311.28125 312.148438 311.164062 312.097656 311.046875 C 312.058594 310.949219 312.023438 310.847656 311.976562 310.753906 C 311.914062 310.632812 311.835938 310.515625 311.761719 310.398438 C 311.703125 310.304688 311.65625 310.210938 311.59375 310.121094 C 311.507812 310 311.40625 309.882812 311.308594 309.765625 C 311.238281 309.679688 311.179688 309.59375 311.105469 309.507812 C 310.992188 309.386719 310.863281 309.269531 310.738281 309.152344 C 310.660156 309.078125 310.589844 308.996094 310.503906 308.921875 C 310.363281 308.796875 310.203125 308.679688 310.042969 308.558594 C 309.960938 308.496094 309.886719 308.425781 309.796875 308.363281 C 309.542969 308.183594 309.269531 308.007812 308.980469 307.839844 C 304.34375 305.164062 296.871094 305.164062 292.257812 307.84375 L 292.214844 323.25 C 295.023438 321.617188 298.886719 320.988281 302.53125 321.339844 " fill-opacity="1" fill-rule="nonzero"/><path fill="#7d9099" d="M 264.292969 324.894531 C 264.234375 324.980469 264.191406 325.066406 264.140625 325.152344 C 264.0625 325.277344 263.980469 325.398438 263.917969 325.523438 C 263.875 325.613281 263.84375 325.703125 263.804688 325.792969 C 263.753906 325.914062 263.691406 326.039062 263.652344 326.164062 C 263.621094 326.257812 263.605469 326.347656 263.582031 326.441406 C 263.550781 326.566406 263.511719 326.691406 263.492188 326.8125 C 263.476562 326.910156 263.476562 327.007812 263.46875 327.101562 C 263.300781 328.964844 264.417969 330.855469 266.839844 332.289062 L 266.867188 322.628906 C 266.582031 322.796875 266.3125 322.972656 266.0625 323.152344 C 265.976562 323.214844 265.902344 323.28125 265.820312 323.34375 C 265.664062 323.464844 265.507812 323.582031 265.367188 323.707031 C 265.28125 323.78125 265.210938 323.859375 265.132812 323.9375 C 265.011719 324.054688 264.886719 324.167969 264.777344 324.289062 C 264.703125 324.367188 264.648438 324.453125 264.582031 324.535156 C 264.484375 324.652344 264.378906 324.773438 264.292969 324.894531 " fill-opacity="1" fill-rule="nonzero"/><path fill="#8ba1ab" d="M 292.425781 337.421875 L 292.382812 352.828125 L 317.773438 338.039062 L 317.816406 322.632812 L 292.425781 337.421875 " fill-opacity="1" fill-rule="nonzero"/><path fill="#90a7b1" d="M 258.195312 337.421875 C 257.898438 337.25 257.609375 337.074219 257.332031 336.894531 C 257.238281 336.835938 257.152344 336.773438 257.058594 336.710938 C 256.878906 336.589844 256.695312 336.472656 256.523438 336.347656 C 256.425781 336.28125 256.332031 336.207031 256.238281 336.136719 C 256.082031 336.019531 255.921875 335.90625 255.773438 335.785156 C 255.671875 335.707031 255.578125 335.628906 255.484375 335.546875 C 255.347656 335.433594 255.207031 335.324219 255.074219 335.207031 C 254.976562 335.121094 254.886719 335.03125 254.792969 334.945312 C 254.671875 334.835938 254.546875 334.726562 254.433594 334.613281 C 254.339844 334.523438 254.253906 334.425781 254.164062 334.335938 C 254.058594 334.226562 253.949219 334.117188 253.851562 334.007812 C 253.761719 333.910156 253.679688 333.808594 253.59375 333.710938 C 253.503906 333.601562 253.40625 333.496094 253.320312 333.386719 C 253.238281 333.285156 253.167969 333.183594 253.089844 333.085938 C 253.007812 332.976562 252.921875 332.867188 252.847656 332.757812 C 252.773438 332.652344 252.710938 332.546875 252.640625 332.445312 C 252.570312 332.335938 252.496094 332.226562 252.425781 332.113281 C 252.363281 332.011719 252.308594 331.902344 252.25 331.796875 C 252.1875 331.6875 252.121094 331.578125 252.066406 331.464844 C 252.007812 331.359375 251.964844 331.25 251.914062 331.140625 C 251.859375 331.03125 251.804688 330.917969 251.757812 330.808594 C 251.710938 330.699219 251.675781 330.589844 251.632812 330.480469 C 251.589844 330.367188 251.542969 330.257812 251.507812 330.144531 C 251.46875 330.035156 251.441406 329.925781 251.410156 329.816406 C 251.375 329.703125 251.339844 329.589844 251.3125 329.476562 C 251.28125 329.367188 251.265625 329.257812 251.242188 329.144531 C 251.21875 329.03125 251.191406 328.917969 251.171875 328.804688 C 251.152344 328.695312 251.140625 328.585938 251.128906 328.476562 C 251.113281 328.359375 251.097656 328.242188 251.085938 328.128906 C 251.078125 328.019531 251.074219 327.910156 251.070312 327.804688 C 251.066406 327.6875 251.058594 327.570312 251.058594 327.453125 C 251.058594 327.441406 251.054688 327.429688 251.054688 327.417969 L 251.011719 342.824219 C 251.003906 346.441406 253.382812 350.066406 258.152344 352.828125 C 263.300781 355.804688 270.167969 357.160156 276.875 356.90625 L 276.988281 350.140625 L 279.269531 349.035156 L 285.3125 355.679688 C 287.875 355.003906 290.277344 354.050781 292.382812 352.828125 L 292.425781 337.421875 C 283.003906 342.90625 267.6875 342.910156 258.195312 337.421875 " fill-opacity="1" fill-rule="nonzero"/><path fill="#bdbcbc" d="M 243.019531 349.738281 C 243.585938 349.207031 243.972656 348.492188 244.097656 347.707031 C 245.375 347.6875 246.480469 346.738281 246.636719 345.425781 C 246.660156 345.257812 246.664062 345.089844 246.652344 344.921875 C 246.605469 344.28125 246.320312 343.703125 245.882812 343.269531 C 245.867188 343.253906 245.859375 343.238281 245.84375 343.226562 C 245.730469 343.117188 245.605469 343.019531 245.46875 342.929688 C 245.199219 342.757812 244.894531 342.628906 244.5625 342.5625 C 244.558594 342.503906 244.554688 342.445312 244.542969 342.382812 C 244.523438 342.265625 244.5 342.152344 244.46875 342.042969 C 244.460938 342.003906 244.445312 341.96875 244.4375 341.933594 C 244.414062 341.859375 244.390625 341.789062 244.367188 341.71875 C 244.347656 341.671875 244.328125 341.628906 244.3125 341.585938 C 244.285156 341.527344 244.261719 341.464844 244.234375 341.410156 C 244.210938 341.363281 244.1875 341.316406 244.160156 341.273438 C 244.132812 341.21875 244.105469 341.167969 244.074219 341.117188 C 244.046875 341.070312 244.015625 341.027344 243.984375 340.980469 C 243.957031 340.9375 243.925781 340.890625 243.890625 340.847656 C 243.859375 340.800781 243.820312 340.757812 243.785156 340.710938 C 243.753906 340.671875 243.722656 340.636719 243.6875 340.597656 C 243.648438 340.554688 243.605469 340.507812 243.5625 340.464844 C 243.53125 340.433594 243.5 340.402344 243.464844 340.371094 C 243.417969 340.328125 243.367188 340.285156 243.320312 340.242188 C 243.289062 340.214844 243.257812 340.191406 243.226562 340.167969 C 243.171875 340.125 243.113281 340.082031 243.054688 340.042969 C 243.03125 340.023438 243.003906 340.007812 242.980469 339.992188 C 242.914062 339.949219 242.847656 339.90625 242.777344 339.867188 C 242.761719 339.859375 242.746094 339.851562 242.726562 339.84375 C 242.1875 339.550781 241.570312 339.398438 240.929688 339.421875 C 242.117188 339.777344 243.0625 340.777344 243.277344 342.082031 C 243.285156 342.140625 243.289062 342.195312 243.292969 342.253906 C 244.542969 342.503906 245.410156 343.667969 245.253906 344.957031 C 245.101562 346.191406 244.0625 347.089844 242.851562 347.109375 C 242.734375 347.851562 242.375 348.523438 241.835938 349.027344 C 241.839844 349.046875 241.847656 349.066406 241.847656 349.085938 C 242.144531 350.902344 240.914062 352.621094 239.101562 352.917969 C 238.277344 353.054688 237.480469 352.875 236.820312 352.46875 C 236.476562 352.789062 236.039062 353.019531 235.539062 353.101562 C 234.800781 353.222656 234.089844 352.992188 233.558594 352.539062 C 233.910156 353.324219 234.621094 353.886719 235.453125 354.042969 C 235.46875 354.046875 235.480469 354.046875 235.496094 354.050781 C 235.621094 354.070312 235.75 354.082031 235.882812 354.085938 C 235.902344 354.085938 235.925781 354.085938 235.945312 354.085938 C 236.078125 354.085938 236.214844 354.078125 236.347656 354.054688 C 236.746094 353.988281 237.105469 353.835938 237.414062 353.621094 C 237.519531 353.546875 237.617188 353.46875 237.707031 353.382812 C 238.230469 353.707031 238.835938 353.894531 239.472656 353.90625 C 239.6875 353.914062 239.902344 353.898438 240.121094 353.863281 C 240.722656 353.761719 241.261719 353.515625 241.710938 353.167969 C 242.160156 352.816406 242.519531 352.363281 242.757812 351.847656 C 242.945312 351.4375 243.058594 350.984375 243.078125 350.515625 C 243.085938 350.28125 243.070312 350.039062 243.03125 349.800781 C 243.027344 349.78125 243.023438 349.761719 243.019531 349.738281 " fill-opacity="1" fill-rule="nonzero"/><path fill="#d3d2d2" d="M 250.320312 349.460938 C 250.945312 349.296875 251.53125 349.007812 252.058594 348.648438 C 251.425781 348.765625 250.832031 348.914062 250.226562 348.976562 C 249.621094 349.058594 249.019531 349.082031 248.421875 349.0625 C 247.820312 349.058594 247.21875 348.976562 246.621094 348.867188 C 246.023438 348.75 245.429688 348.597656 244.828125 348.394531 C 245.304688 348.824219 245.886719 349.125 246.496094 349.339844 C 247.105469 349.554688 247.75 349.671875 248.398438 349.695312 C 249.046875 349.703125 249.703125 349.648438 250.320312 349.460938 " fill-opacity="1" fill-rule="nonzero"/><path fill="#d3d2d2" d="M 245.675781 350.429688 C 245.28125 350.300781 244.894531 350.199219 244.40625 350.195312 C 244.652344 350.632812 245.054688 350.867188 245.46875 351.023438 C 245.886719 351.160156 246.34375 351.222656 246.808594 351.054688 C 246.621094 350.886719 246.433594 350.777344 246.246094 350.675781 C 246.058594 350.578125 245.867188 350.503906 245.675781 350.429688 " fill-opacity="1" fill-rule="nonzero"/><path fill="#d3d2d2" d="M 248.152344 352.589844 C 247.296875 352.597656 246.441406 352.492188 245.59375 352.324219 C 244.75 352.148438 243.90625 351.914062 243.085938 351.574219 C 243.789062 352.125 244.609375 352.53125 245.472656 352.796875 C 246.332031 353.074219 247.242188 353.214844 248.148438 353.21875 C 249.058594 353.210938 249.972656 353.105469 250.832031 352.816406 C 251.269531 352.703125 251.679688 352.503906 252.085938 352.324219 C 252.488281 352.121094 252.867188 351.878906 253.238281 351.636719 C 252.390625 351.914062 251.5625 352.1875 250.710938 352.339844 C 249.867188 352.523438 249.007812 352.59375 248.152344 352.589844 " fill-opacity="1" fill-rule="nonzero"/><path fill="#d78726" d="M 349.207031 356.558594 L 366.535156 350.699219 L 366.445312 348.160156 L 349.085938 353.761719 L 349.207031 356.558594 " fill-opacity="1" fill-rule="nonzero"/><path fill="#e28e28" d="M 335.328125 347.59375 L 335.425781 350.285156 L 349.207031 356.558594 L 349.085938 353.761719 L 335.328125 347.59375 " fill-opacity="1" fill-rule="nonzero"/><path fill="#e9e9e9" d="M 356.554688 336.269531 L 355.976562 334.019531 L 355.492188 332.128906 C 353.125 332.507812 349.730469 332.8125 346.421875 332.269531 L 346.132812 333.40625 L 345.363281 336.394531 C 349.511719 337.320312 354.019531 336.75 356.554688 336.269531 " fill-opacity="1" fill-rule="nonzero"/><path fill="#e9e9e9" d="M 354.488281 328.234375 L 353.453125 324.207031 C 353.4375 324.148438 353.410156 324.09375 353.394531 324.035156 C 351.914062 324.183594 350.238281 324.253906 348.519531 324.140625 C 348.515625 324.164062 348.503906 324.183594 348.5 324.207031 L 347.425781 328.371094 C 349.960938 328.660156 352.484375 328.5 354.488281 328.234375 " fill-opacity="1" fill-rule="nonzero"/><path fill="#e9e9e9" d="M 344.386719 340.183594 L 343.363281 344.175781 C 349.949219 346.601562 358.589844 344.175781 358.589844 344.175781 L 357.828125 341.210938 L 357.542969 340.105469 C 355.210938 340.621094 349.390625 341.625 344.386719 340.183594 " fill-opacity="1" fill-rule="nonzero"/><path fill="#d78726" d="M 246.71875 309.257812 L 229.359375 314.855469 L 229.476562 317.65625 L 246.808594 311.796875 L 246.71875 309.257812 " fill-opacity="1" fill-rule="nonzero"/><g clip-path="url(#e59997c367)"><path fill="#e28e28" d="M 215.601562 308.691406 L 215.699219 311.382812 L 229.476562 317.65625 L 229.359375 314.855469 L 215.601562 308.691406 " fill-opacity="1" fill-rule="nonzero"/></g><path fill="#e9e9e9" d="M 236.828125 297.363281 L 236.25 295.113281 L 235.761719 293.226562 C 233.398438 293.601562 230 293.90625 226.695312 293.367188 L 226.144531 295.507812 L 225.636719 297.488281 C 229.785156 298.417969 234.292969 297.84375 236.828125 297.363281 " fill-opacity="1" fill-rule="nonzero"/><path fill="#e9e9e9" d="M 234.761719 289.332031 L 233.726562 285.300781 C 233.710938 285.242188 233.683594 285.191406 233.664062 285.132812 C 232.1875 285.28125 230.511719 285.351562 228.792969 285.238281 C 228.789062 285.257812 228.777344 285.277344 228.769531 285.300781 L 227.699219 289.46875 C 230.230469 289.753906 232.757812 289.59375 234.761719 289.332031 " fill-opacity="1" fill-rule="nonzero"/><path fill="#e9e9e9" d="M 238.863281 305.269531 L 238.015625 301.980469 L 237.816406 301.203125 C 235.484375 301.71875 229.664062 302.722656 224.660156 301.28125 L 223.632812 305.269531 C 230.21875 307.699219 238.859375 305.273438 238.863281 305.269531 " fill-opacity="1" fill-rule="nonzero"/><path fill="#d78726" d="M 276.988281 350.140625 L 289.082031 363.820312 L 291.59375 362.582031 L 285.3125 355.679688 L 279.269531 349.035156 L 276.988281 350.140625 " fill-opacity="1" fill-rule="nonzero"/><g clip-path="url(#57c193a31c)"><path fill="#e28e28" d="M 288.984375 378.921875 L 291.402344 377.75 L 291.59375 362.582031 L 289.082031 363.820312 L 288.984375 378.921875 " fill-opacity="1" fill-rule="nonzero"/></g><path fill="#e9e9e9" d="M 270.101562 364 L 268.152344 365.535156 L 266.746094 366.640625 C 268.042969 368.65625 269.6875 371.652344 270.523438 374.902344 L 274.714844 374.21875 C 273.894531 370.039062 271.558594 366.132812 270.101562 364 " fill-opacity="1" fill-rule="nonzero"/><path fill="#e9e9e9" d="M 263.59375 369.125 L 260.332031 371.695312 C 260.28125 371.734375 260.246094 371.777344 260.199219 371.820312 C 260.929688 373.117188 261.667969 374.628906 262.253906 376.246094 C 262.277344 376.246094 262.300781 376.246094 262.324219 376.242188 L 266.558594 375.550781 C 265.800781 373.113281 264.640625 370.859375 263.59375 369.125 " fill-opacity="1" fill-rule="nonzero"/><path fill="#e9e9e9" d="M 276.503906 358.953125 L 274.195312 360.773438 L 273.210938 361.546875 C 274.621094 363.480469 277.875 368.417969 278.570312 373.589844 L 282.628906 372.925781 C 282.199219 365.90625 276.507812 358.953125 276.503906 358.953125 " fill-opacity="1" fill-rule="nonzero"/></svg>