<svg xmlns="http://www.w3.org/2000/svg" xmlns:xlink="http://www.w3.org/1999/xlink" width="500" zoomAndPan="magnify" viewBox="0 0 375 374.999991" height="500" preserveAspectRatio="xMidYMid meet" version="1.0"><defs><clipPath id="af65515433"><path d="M 22 30 L 353 30 L 353 368.214844 L 22 368.214844 Z M 22 30 " clip-rule="nonzero"/></clipPath><clipPath id="3b2e0c1b11"><path d="M 250 10 L 328 10 L 328 77 L 250 77 Z M 250 10 " clip-rule="nonzero"/></clipPath><clipPath id="56f4bf5e48"><path d="M 232.570312 24.484375 L 310.285156 -3.199219 L 329.414062 50.496094 L 251.695312 78.179688 Z M 232.570312 24.484375 " clip-rule="nonzero"/></clipPath><clipPath id="7facddb467"><path d="M 232.570312 24.484375 L 310.285156 -3.199219 L 329.414062 50.496094 L 251.695312 78.179688 Z M 232.570312 24.484375 " clip-rule="nonzero"/></clipPath><clipPath id="28a41f8158"><path d="M 249 9 L 330 9 L 330 78 L 249 78 Z M 249 9 " clip-rule="nonzero"/></clipPath><clipPath id="7491c6fe50"><path d="M 232.570312 24.484375 L 310.285156 -3.199219 L 329.414062 50.496094 L 251.695312 78.179688 Z M 232.570312 24.484375 " clip-rule="nonzero"/></clipPath><clipPath id="0be31765ef"><path d="M 232.570312 24.484375 L 310.285156 -3.199219 L 329.414062 50.496094 L 251.695312 78.179688 Z M 232.570312 24.484375 " clip-rule="nonzero"/></clipPath></defs><path fill="#f1f1f1" d="M 311.515625 69.289062 C 311.957031 69.476562 312.378906 69.707031 312.773438 69.976562 C 313.171875 70.25 313.539062 70.558594 313.878906 70.902344 C 314.214844 71.246094 314.515625 71.617188 314.777344 72.023438 C 315.042969 72.425781 315.261719 72.851562 315.441406 73.296875 C 315.621094 73.742188 315.757812 74.203125 315.847656 74.675781 C 315.9375 75.148438 315.976562 75.628906 315.972656 76.109375 C 315.96875 76.589844 315.917969 77.066406 315.816406 77.539062 C 315.71875 78.011719 315.574219 78.46875 315.386719 78.910156 C 315.199219 79.351562 314.96875 79.773438 314.695312 80.171875 C 314.425781 80.570312 314.117188 80.9375 313.773438 81.273438 C 313.429688 81.609375 313.054688 81.910156 312.652344 82.175781 C 312.25 82.4375 311.824219 82.660156 311.375 82.839844 C 310.929688 83.019531 310.46875 83.152344 309.996094 83.242188 C 309.523438 83.332031 309.046875 83.375 308.566406 83.371094 C 308.082031 83.363281 307.605469 83.3125 307.136719 83.214844 C 306.664062 83.117188 306.207031 82.972656 305.761719 82.78125 C 305.320312 82.59375 304.898438 82.363281 304.503906 82.09375 C 304.105469 81.820312 303.738281 81.511719 303.398438 81.167969 C 303.0625 80.824219 302.761719 80.453125 302.5 80.046875 C 302.234375 79.644531 302.015625 79.21875 301.835938 78.773438 C 301.652344 78.328125 301.519531 77.867188 301.429688 77.394531 C 301.339844 76.921875 301.300781 76.441406 301.304688 75.960938 C 301.308594 75.480469 301.359375 75.003906 301.460938 74.53125 C 301.558594 74.058594 301.703125 73.601562 301.890625 73.160156 C 302.078125 72.71875 302.308594 72.296875 302.582031 71.898438 C 302.851562 71.5 303.160156 71.132812 303.503906 70.796875 C 303.847656 70.460938 304.222656 70.160156 304.625 69.894531 C 305.027344 69.632812 305.453125 69.410156 305.898438 69.230469 C 306.347656 69.050781 306.808594 68.917969 307.28125 68.828125 C 307.753906 68.738281 308.230469 68.695312 308.710938 68.699219 C 309.195312 68.707031 309.671875 68.757812 310.140625 68.855469 C 310.613281 68.953125 311.070312 69.097656 311.515625 69.289062 Z M 311.515625 69.289062 " fill-opacity="1" fill-rule="nonzero"/><g clip-path="url(#af65515433)"><path fill="#f1f1f1" d="M 22.550781 279.242188 C 22.839844 278.714844 23.253906 278.316406 23.785156 278.042969 C 24.320312 277.769531 24.886719 277.667969 25.484375 277.742188 L 28.152344 278.007812 C 28.183594 277.636719 28.28125 277.285156 28.445312 276.953125 C 30.605469 272.242188 33.410156 267.960938 36.867188 264.101562 C 37.84375 263.042969 38.925781 262.105469 40.109375 261.289062 C 41.296875 260.472656 42.558594 259.800781 43.898438 259.269531 C 45.238281 258.738281 46.617188 258.363281 48.039062 258.144531 C 49.464844 257.925781 50.894531 257.867188 52.328125 257.96875 C 54.621094 258.308594 56.78125 259.042969 58.800781 260.175781 C 60.824219 261.308594 62.578125 262.761719 64.066406 264.542969 C 64.902344 265.578125 65.675781 266.664062 66.382812 267.796875 C 66.730469 264.820312 67.542969 261.972656 68.816406 259.261719 C 72.191406 252.011719 79.175781 244.589844 87.125 244.589844 C 91.75 244.648438 96.210938 245.539062 100.503906 247.261719 C 99.945312 246.070312 99.511719 244.839844 99.207031 243.5625 C 98.902344 242.285156 98.734375 240.988281 98.699219 239.675781 C 98.664062 238.363281 98.761719 237.058594 99 235.765625 C 99.234375 234.476562 99.597656 233.21875 100.09375 232.003906 C 100.914062 230.449219 101.917969 229.023438 103.113281 227.734375 C 104.308594 226.445312 105.652344 225.332031 107.140625 224.398438 C 108.628906 223.460938 110.214844 222.734375 111.894531 222.21875 C 113.574219 221.703125 115.296875 221.414062 117.050781 221.355469 C 120.527344 221.101562 123.929688 221.480469 127.261719 222.496094 C 126.015625 219.023438 125.742188 215.472656 126.441406 211.847656 C 127.613281 205.21875 132.015625 198.175781 139.203125 197.5 C 141.199219 197.449219 143.183594 197.574219 145.15625 197.878906 C 147.128906 198.183594 149.058594 198.664062 150.945312 199.320312 C 152.832031 199.972656 154.644531 200.789062 156.386719 201.773438 C 158.125 202.753906 159.761719 203.882812 161.296875 205.160156 C 161.792969 201.640625 162.710938 198.238281 164.054688 194.949219 C 164.601562 193.535156 165.289062 192.191406 166.113281 190.921875 C 166.941406 189.648438 167.890625 188.476562 168.960938 187.402344 C 170.03125 186.328125 171.203125 185.378906 172.46875 184.546875 C 173.738281 183.71875 175.082031 183.027344 176.492188 182.480469 C 177.445312 182.207031 178.414062 182.007812 179.394531 181.878906 C 180.378906 181.75 181.363281 181.691406 182.355469 181.703125 C 183.34375 181.714844 184.328125 181.796875 185.304688 181.953125 C 186.285156 182.109375 187.246094 182.332031 188.191406 182.625 C 189.136719 182.921875 190.058594 183.28125 190.949219 183.707031 C 191.84375 184.136719 192.703125 184.625 193.527344 185.175781 C 194.347656 185.726562 195.128906 186.335938 195.863281 187 C 196.597656 187.664062 197.28125 188.375 197.910156 189.140625 C 199.578125 191.078125 200.9375 193.207031 201.988281 195.535156 C 202.042969 195.226562 202.109375 194.925781 202.195312 194.625 C 202.835938 192.25 203.863281 190.054688 205.273438 188.039062 C 206.6875 186.023438 208.398438 184.304688 210.410156 182.890625 C 211.59375 182.1875 212.839844 181.617188 214.140625 181.175781 C 215.445312 180.734375 216.78125 180.429688 218.144531 180.265625 C 219.511719 180.101562 220.878906 180.082031 222.25 180.199219 C 223.621094 180.320312 224.964844 180.582031 226.28125 180.984375 C 225.90625 179.140625 225.765625 177.285156 225.855469 175.410156 C 225.949219 173.53125 226.273438 171.699219 226.824219 169.902344 C 227.378906 168.109375 228.148438 166.410156 229.128906 164.808594 C 230.109375 163.207031 231.273438 161.753906 232.621094 160.445312 C 232.085938 160.265625 231.566406 160.050781 231.066406 159.800781 C 230.058594 159.191406 229.125 158.484375 228.269531 157.675781 C 227.414062 156.867188 226.652344 155.980469 225.988281 155.007812 C 225.328125 154.035156 224.773438 153.003906 224.335938 151.910156 C 223.894531 150.820312 223.574219 149.695312 223.378906 148.53125 C 222.957031 146.664062 222.773438 144.769531 222.835938 142.855469 C 222.894531 140.941406 223.191406 139.0625 223.726562 137.222656 C 224.261719 135.382812 225.019531 133.640625 226 131.992188 C 226.980469 130.34375 228.148438 128.847656 229.511719 127.496094 C 230.800781 126.339844 232.226562 125.386719 233.785156 124.640625 C 235.347656 123.890625 236.984375 123.375 238.695312 123.097656 C 237.546875 122.371094 236.480469 121.542969 235.496094 120.605469 C 234.511719 119.671875 233.632812 118.648438 232.851562 117.535156 C 232.070312 116.425781 231.40625 115.25 230.859375 114.007812 C 230.3125 112.765625 229.890625 111.484375 229.597656 110.15625 C 229.441406 109.191406 229.351562 108.222656 229.332031 107.242188 C 229.3125 106.265625 229.355469 105.292969 229.472656 104.320312 C 229.585938 103.351562 229.765625 102.390625 230.011719 101.445312 C 230.257812 100.5 230.570312 99.578125 230.945312 98.671875 C 231.320312 97.769531 231.757812 96.898438 232.253906 96.054688 C 232.75 95.214844 233.300781 94.410156 233.910156 93.644531 C 234.515625 92.878906 235.175781 92.160156 235.882812 91.484375 C 236.589844 90.8125 237.339844 90.1875 238.136719 89.621094 C 234.644531 86.6875 231.828125 81.550781 233.117188 72.71875 C 233.285156 71.722656 233.523438 70.742188 233.835938 69.777344 C 234.148438 68.816406 234.535156 67.882812 234.988281 66.976562 C 235.441406 66.074219 235.960938 65.207031 236.546875 64.382812 C 237.128906 63.554688 237.773438 62.777344 238.472656 62.050781 C 239.175781 61.320312 239.929688 60.648438 240.730469 60.03125 C 241.535156 59.417969 242.378906 58.863281 243.265625 58.375 C 244.152344 57.886719 245.070312 57.46875 246.019531 57.121094 C 246.972656 56.769531 247.941406 56.492188 248.933594 56.289062 C 251.910156 55.769531 254.84375 55.957031 257.734375 56.847656 C 257.207031 54.621094 257.046875 52.367188 257.253906 50.089844 C 257.457031 47.8125 258.019531 45.625 258.9375 43.527344 C 259.484375 42.386719 260.117188 41.296875 260.839844 40.257812 C 261.5625 39.21875 262.363281 38.242188 263.242188 37.332031 C 264.121094 36.421875 265.066406 35.589844 266.082031 34.835938 C 267.097656 34.078125 268.164062 33.40625 269.289062 32.824219 C 270.410156 32.242188 271.570312 31.75 272.773438 31.355469 C 273.976562 30.960938 275.203125 30.664062 276.453125 30.464844 C 277.699219 30.269531 278.957031 30.171875 280.222656 30.179688 C 281.488281 30.183594 282.746094 30.292969 283.992188 30.5 C 285.214844 30.757812 286.414062 31.101562 287.589844 31.527344 C 288.765625 31.953125 289.902344 32.460938 291.007812 33.046875 C 292.109375 33.632812 293.164062 34.296875 294.175781 35.03125 C 295.183594 35.769531 296.136719 36.570312 297.035156 37.441406 C 297.929688 38.3125 298.761719 39.242188 299.527344 40.230469 C 300.292969 41.21875 300.984375 42.253906 301.605469 43.339844 C 302.222656 44.425781 302.761719 45.550781 303.222656 46.710938 C 303.683594 47.871094 304.0625 49.0625 304.355469 50.273438 C 307.90625 49.425781 311.515625 48.71875 315.445312 48.132812 C 329.351562 45.433594 339.503906 49.71875 345.488281 60.953125 C 348.46875 67.160156 350.425781 73.675781 351.355469 80.496094 C 352.929688 87.367188 353.214844 94.289062 352.207031 101.265625 C 351.914062 103.152344 351.390625 104.972656 350.640625 106.726562 C 349.890625 108.480469 348.9375 110.117188 347.78125 111.632812 C 346.621094 113.152344 345.296875 114.503906 343.800781 115.6875 C 342.304688 116.871094 340.6875 117.855469 338.945312 118.636719 C 335.976562 119.644531 332.925781 120.210938 329.792969 120.339844 C 327.035156 120.398438 324.367188 120.90625 321.78125 121.863281 C 320.546875 122.492188 319.382812 123.238281 318.289062 124.097656 C 317.199219 124.953125 316.199219 125.910156 315.296875 126.964844 C 314.394531 128.019531 313.601562 129.152344 312.921875 130.363281 C 312.238281 131.574219 311.683594 132.835938 311.25 134.15625 C 309.300781 140.503906 308.324219 147 308.316406 153.636719 L 308.082031 158.246094 C 304.972656 218.125 301.773438 280.03125 280.121094 336.65625 C 278.109375 342.996094 274.875 348.628906 270.410156 353.558594 C 265.714844 358.191406 257.734375 361.597656 250.488281 358.75 C 241.6875 355.375 239.542969 346.515625 237.375 337.949219 C 236.488281 333.769531 235.128906 329.75 233.296875 325.890625 C 232.460938 324.347656 231.441406 322.9375 230.234375 321.664062 C 229.027344 320.390625 227.675781 319.296875 226.179688 318.378906 C 224.6875 317.460938 223.097656 316.753906 221.414062 316.257812 C 219.730469 315.761719 218.015625 315.492188 216.261719 315.449219 C 214.507812 315.40625 212.777344 315.589844 211.074219 316.003906 C 209.367188 316.417969 207.746094 317.046875 206.207031 317.886719 C 204.667969 318.730469 203.265625 319.757812 202 320.96875 C 200.730469 322.183594 199.640625 323.539062 198.734375 325.039062 C 196.382812 329.523438 194.878906 334.277344 194.214844 339.296875 C 193.414062 344.820312 191.742188 350.0625 189.199219 355.023438 C 188.601562 356.023438 187.941406 356.980469 187.222656 357.894531 C 186.503906 358.808594 185.726562 359.675781 184.894531 360.488281 C 184.0625 361.304688 183.183594 362.0625 182.253906 362.765625 C 181.328125 363.464844 180.355469 364.105469 179.34375 364.683594 C 178.335938 365.257812 177.289062 365.769531 176.214844 366.210938 C 175.136719 366.65625 174.039062 367.027344 172.914062 367.328125 C 171.789062 367.628906 170.648438 367.859375 169.496094 368.015625 C 168.34375 368.167969 167.183594 368.25 166.019531 368.257812 C 164.648438 368.253906 163.289062 368.136719 161.941406 367.902344 C 160.625 367.675781 159.332031 367.351562 158.0625 366.929688 C 156.792969 366.507812 155.5625 365.996094 154.367188 365.394531 C 153.175781 364.789062 152.03125 364.101562 150.941406 363.328125 C 149.851562 362.558594 148.820312 361.707031 147.855469 360.785156 C 146.890625 359.859375 146 358.867188 145.179688 357.808594 C 144.363281 356.753906 143.625 355.640625 142.972656 354.472656 C 142.320312 353.308594 141.753906 352.097656 141.28125 350.847656 C 140.808594 349.597656 140.425781 348.320312 140.140625 347.015625 C 139.558594 343.617188 139.324219 340.191406 139.4375 336.746094 C 139.800781 332.382812 139.195312 328.15625 137.617188 324.070312 C 133.277344 315.269531 121.011719 313.859375 108.28125 313.714844 C 66.734375 313.214844 38.746094 303.003906 22.8125 282.46875 C 22.449219 282.003906 22.246094 281.480469 22.195312 280.894531 C 22.148438 280.308594 22.265625 279.757812 22.550781 279.242188 Z M 59.429688 268.445312 C 59.167969 268.082031 58.882812 267.734375 58.578125 267.40625 C 58.277344 267.074219 57.953125 266.761719 57.613281 266.472656 C 57.273438 266.179688 56.917969 265.90625 56.546875 265.65625 C 56.175781 265.40625 55.789062 265.175781 55.390625 264.972656 C 54.992188 264.765625 54.585938 264.582031 54.164062 264.425781 C 53.746094 264.265625 53.320312 264.132812 52.882812 264.027344 C 52.449219 263.917969 52.007812 263.835938 51.5625 263.777344 C 51.121094 263.722656 50.671875 263.691406 50.222656 263.683594 C 49.777344 263.679688 49.328125 263.699219 48.882812 263.75 C 48.4375 263.796875 47.996094 263.867188 47.558594 263.96875 C 47.121094 264.066406 46.691406 264.1875 46.269531 264.339844 C 45.84375 264.488281 45.433594 264.660156 45.03125 264.855469 C 44.628906 265.054688 44.238281 265.273438 43.859375 265.515625 C 43.484375 265.757812 43.121094 266.023438 42.777344 266.308594 C 42.429688 266.589844 42.101562 266.894531 41.789062 267.21875 C 41.480469 267.542969 41.1875 267.882812 40.917969 268.238281 C 38.140625 271.320312 35.882812 274.742188 34.140625 278.507812 C 44.621094 279.363281 55.085938 279.1875 65.53125 277.980469 C 65.40625 277.847656 65.289062 277.710938 65.179688 277.566406 C 63.617188 274.304688 61.699219 271.261719 59.429688 268.445312 Z M 74.097656 261.929688 C 73.484375 263.046875 73.007812 264.222656 72.675781 265.453125 C 72.339844 266.6875 72.15625 267.941406 72.117188 269.214844 C 72.082031 270.492188 72.199219 271.753906 72.464844 273 C 72.730469 274.25 73.136719 275.449219 73.6875 276.601562 L 75.214844 276.335938 C 81.53125 275.03125 87.578125 272.945312 93.355469 270.078125 C 99.132812 267.207031 104.449219 263.652344 109.304688 259.40625 C 107.828125 258.007812 106.230469 256.757812 104.515625 255.660156 C 102.800781 254.5625 100.996094 253.636719 99.105469 252.882812 C 97.214844 252.128906 95.269531 251.5625 93.269531 251.179688 C 91.269531 250.796875 89.25 250.605469 87.214844 250.605469 C 82.609375 250.605469 77.03125 255.300781 74.097656 261.929688 Z M 117.375 227.105469 C 116.140625 227.132812 114.933594 227.320312 113.75 227.664062 C 112.566406 228.007812 111.445312 228.496094 110.386719 229.132812 C 109.332031 229.769531 108.371094 230.527344 107.511719 231.414062 C 106.652344 232.296875 105.921875 233.277344 105.316406 234.351562 C 104.96875 235.253906 104.722656 236.183594 104.578125 237.140625 C 104.433594 238.097656 104.394531 239.058594 104.460938 240.023438 C 104.527344 240.988281 104.699219 241.9375 104.96875 242.863281 C 105.242188 243.792969 105.613281 244.679688 106.078125 245.527344 C 108.039062 249.109375 110.601562 252.191406 113.765625 254.769531 C 114.644531 253.773438 115.527344 252.777344 116.320312 251.835938 C 118.867188 248.304688 121.207031 244.636719 123.332031 240.835938 C 125.394531 237.175781 127.644531 233.636719 130.078125 230.214844 C 128.167969 229.0625 126.128906 228.222656 123.964844 227.691406 C 121.796875 227.160156 119.601562 226.964844 117.375 227.105469 Z M 139.644531 203.25 C 135.507812 203.660156 132.894531 208.328125 132.101562 212.785156 C 131.3125 217.246094 132.101562 221.792969 135.359375 223.816406 C 138.679688 220.703125 142.34375 218.070312 146.351562 215.917969 C 150.359375 213.761719 154.578125 212.160156 159.007812 211.113281 C 157.742188 209.839844 156.363281 208.703125 154.867188 207.707031 C 153.375 206.710938 151.792969 205.875 150.128906 205.199219 C 148.464844 204.523438 146.75 204.023438 144.984375 203.695312 C 143.21875 203.367188 141.4375 203.21875 139.644531 203.25 Z M 193.363281 192.894531 C 192.476562 191.796875 191.453125 190.851562 190.289062 190.050781 C 189.128906 189.25 187.878906 188.628906 186.539062 188.191406 C 185.199219 187.75 183.824219 187.507812 182.414062 187.464844 C 181.003906 187.421875 179.617188 187.578125 178.253906 187.9375 C 176.210938 188.800781 174.421875 190.035156 172.894531 191.640625 C 171.363281 193.25 170.214844 195.09375 169.453125 197.179688 C 167.90625 201.160156 166.929688 205.277344 166.519531 209.53125 C 172.085938 208.609375 177.691406 208.042969 183.328125 207.828125 L 191.925781 207.535156 L 199.171875 207.300781 C 198.929688 204.667969 198.3125 202.125 197.324219 199.671875 C 196.335938 197.21875 195.015625 194.960938 193.363281 192.894531 Z M 213.492188 187.847656 C 212.050781 188.863281 210.824219 190.097656 209.816406 191.542969 C 208.808594 192.988281 208.078125 194.566406 207.621094 196.269531 C 206.730469 199.753906 206.230469 203.292969 206.125 206.890625 C 210.582031 206.59375 215.003906 206.015625 219.386719 205.160156 C 223.070312 204.503906 226.597656 203.375 229.976562 201.765625 C 233.351562 200.15625 236.453125 198.128906 239.28125 195.679688 C 238.28125 194.742188 237.285156 193.863281 236.347656 193.011719 C 234.445312 192.0625 232.707031 190.878906 231.125 189.460938 C 230.183594 188.933594 229.21875 188.40625 228.191406 187.878906 C 227.0625 187.269531 225.875 186.804688 224.632812 186.488281 C 223.390625 186.175781 222.125 186.015625 220.84375 186.011719 C 219.5625 186.007812 218.296875 186.164062 217.054688 186.472656 C 215.808594 186.785156 214.621094 187.242188 213.492188 187.847656 Z M 231.679688 175.085938 C 231.308594 177.503906 231.59375 179.839844 232.53125 182.097656 C 233.015625 183.078125 233.652344 183.949219 234.4375 184.707031 C 236.109375 185.707031 237.703125 186.808594 239.222656 188.023438 C 240.601562 188.667969 242.15625 189.285156 243.503906 189.8125 C 246.253906 183.566406 247.757812 177.035156 248.023438 170.214844 L 248.289062 167.605469 C 248.289062 167.015625 248.289062 166.429688 248.464844 165.871094 C 248.054688 165.148438 247.523438 164.53125 246.867188 164.023438 C 246.210938 163.515625 245.480469 163.152344 244.679688 162.9375 C 243.582031 162.617188 242.464844 162.511719 241.328125 162.621094 C 240.191406 162.734375 239.117188 163.054688 238.105469 163.585938 C 237.160156 164.226562 236.300781 164.96875 235.527344 165.8125 C 234.753906 166.652344 234.089844 167.574219 233.53125 168.574219 C 232.972656 169.570312 232.539062 170.621094 232.226562 171.722656 C 231.914062 172.820312 231.730469 173.941406 231.679688 175.085938 Z M 229.011719 147.507812 C 229.21875 149.007812 229.726562 150.394531 230.542969 151.671875 C 231.359375 152.945312 232.402344 153.992188 233.675781 154.8125 C 235.445312 155.539062 237.28125 155.949219 239.191406 156.042969 L 249.371094 157.128906 C 249.988281 149.53125 250.339844 141.902344 250.429688 134.332031 C 250.429688 133.246094 250.429688 132.160156 250.429688 131.074219 C 250 131.207031 249.566406 131.242188 249.125 131.175781 C 248.679688 131.105469 248.277344 130.949219 247.90625 130.695312 C 247.347656 130.335938 246.765625 130.027344 246.15625 129.765625 C 245.550781 129.503906 244.921875 129.292969 244.28125 129.136719 C 243.636719 128.980469 242.984375 128.875 242.324219 128.824219 C 241.664062 128.773438 241.003906 128.78125 240.34375 128.839844 C 239.683594 128.898438 239.035156 129.011719 238.394531 129.179688 C 237.753906 129.347656 237.128906 129.566406 236.527344 129.835938 C 235.921875 130.105469 235.34375 130.421875 234.789062 130.789062 C 234.238281 131.15625 233.71875 131.5625 233.234375 132.015625 C 232.257812 133.023438 231.421875 134.136719 230.726562 135.355469 C 230.027344 136.574219 229.496094 137.863281 229.128906 139.214844 C 228.757812 140.570312 228.5625 141.949219 228.542969 143.355469 C 228.523438 144.757812 228.679688 146.140625 229.011719 147.507812 Z M 235.289062 109.070312 C 235.492188 109.917969 235.761719 110.738281 236.105469 111.535156 C 236.445312 112.335938 236.851562 113.097656 237.324219 113.828125 C 237.796875 114.558594 238.324219 115.242188 238.914062 115.878906 C 239.5 116.519531 240.140625 117.101562 240.828125 117.632812 C 241.515625 118.164062 242.242188 118.632812 243.011719 119.039062 C 243.777344 119.441406 244.574219 119.78125 245.398438 120.050781 C 246.226562 120.320312 247.066406 120.519531 247.925781 120.648438 C 248.785156 120.773438 249.648438 120.828125 250.515625 120.808594 C 250.503906 114.921875 250.808594 109.054688 251.425781 103.203125 C 251.777344 100.269531 252.277344 96.601562 253.039062 92.933594 L 252.835938 92.933594 C 251.835938 92.484375 250.789062 92.210938 249.695312 92.121094 C 248.605469 92.03125 247.527344 92.125 246.46875 92.40625 C 245.585938 92.644531 244.726562 92.957031 243.898438 93.347656 C 243.070312 93.734375 242.285156 94.195312 241.539062 94.730469 C 240.796875 95.261719 240.105469 95.855469 239.46875 96.511719 C 238.828125 97.167969 238.253906 97.878906 237.746094 98.636719 C 237.234375 99.398438 236.796875 100.195312 236.433594 101.035156 C 236.066406 101.875 235.777344 102.742188 235.570312 103.632812 C 235.359375 104.523438 235.230469 105.425781 235.183594 106.339844 C 235.136719 107.253906 235.171875 108.164062 235.289062 109.070312 Z M 249.960938 62.128906 C 249.269531 62.277344 248.59375 62.476562 247.929688 62.722656 C 247.269531 62.972656 246.628906 63.269531 246.011719 63.613281 C 245.394531 63.957031 244.804688 64.34375 244.246094 64.777344 C 243.683594 65.207031 243.160156 65.675781 242.667969 66.1875 C 242.179688 66.695312 241.730469 67.238281 241.320312 67.816406 C 240.910156 68.390625 240.546875 68.996094 240.226562 69.625 C 239.910156 70.257812 239.636719 70.90625 239.414062 71.578125 C 239.191406 72.25 239.019531 72.933594 238.898438 73.628906 C 237.960938 80.144531 239.601562 84.367188 243.972656 86.597656 L 244.152344 86.746094 L 245.265625 86.421875 C 246.808594 86.066406 248.371094 85.949219 249.953125 86.0625 C 251.53125 86.179688 253.058594 86.523438 254.535156 87.097656 C 255.921875 82.191406 258.101562 77.675781 261.078125 73.542969 C 262.222656 72.085938 263.464844 70.714844 264.804688 69.433594 C 264.644531 69.28125 264.496094 69.113281 264.367188 68.933594 C 264.003906 68.328125 263.597656 67.753906 263.148438 67.207031 C 262.703125 66.660156 262.214844 66.148438 261.691406 65.675781 C 261.167969 65.203125 260.613281 64.769531 260.023438 64.378906 C 259.4375 63.984375 258.824219 63.640625 258.183594 63.339844 C 257.542969 63.039062 256.886719 62.789062 256.210938 62.585938 C 255.53125 62.382812 254.84375 62.230469 254.144531 62.132812 C 253.445312 62.03125 252.742188 61.984375 252.035156 61.988281 C 251.332031 61.992188 250.628906 62.050781 249.929688 62.15625 Z M 298.632812 51.625 C 298.410156 50.683594 298.125 49.765625 297.773438 48.867188 C 297.417969 47.96875 297.007812 47.097656 296.53125 46.257812 C 296.054688 45.417969 295.523438 44.613281 294.9375 43.847656 C 294.347656 43.082031 293.710938 42.363281 293.019531 41.6875 C 292.328125 41.011719 291.597656 40.386719 290.820312 39.816406 C 290.039062 39.242188 289.226562 38.726562 288.375 38.269531 C 287.527344 37.8125 286.648438 37.417969 285.742188 37.085938 C 284.835938 36.75 283.910156 36.484375 282.964844 36.28125 C 282.039062 36.121094 281.101562 36.039062 280.160156 36.03125 C 279.214844 36.023438 278.277344 36.09375 277.347656 36.234375 C 276.414062 36.378906 275.5 36.59375 274.605469 36.886719 C 273.707031 37.175781 272.839844 37.535156 272 37.964844 C 271.160156 38.394531 270.359375 38.886719 269.601562 39.445312 C 268.839844 40.003906 268.132812 40.617188 267.46875 41.289062 C 266.808594 41.960938 266.207031 42.683594 265.660156 43.453125 C 265.113281 44.222656 264.632812 45.027344 264.21875 45.875 C 263.875 46.707031 263.605469 47.566406 263.410156 48.449219 C 263.21875 49.328125 263.105469 50.222656 263.070312 51.125 C 263.035156 52.027344 263.082031 52.921875 263.207031 53.816406 C 263.328125 54.710938 263.53125 55.585938 263.8125 56.445312 C 264.09375 57.304688 264.445312 58.128906 264.875 58.925781 C 265.300781 59.722656 265.792969 60.472656 266.355469 61.179688 C 266.914062 61.886719 267.53125 62.539062 268.210938 63.136719 C 268.886719 63.738281 269.609375 64.269531 270.378906 64.738281 C 274.859375 61.519531 279.660156 58.890625 284.785156 56.847656 C 289.921875 54.765625 294.378906 53.179688 298.75 51.890625 C 298.707031 51.804688 298.667969 51.714844 298.632812 51.625 Z M 108.484375 307.847656 C 117.523438 307.847656 136.359375 308.199219 142.898438 321.488281 C 144.90625 326.382812 145.710938 331.46875 145.304688 336.746094 C 145.199219 339.796875 145.394531 342.828125 145.894531 345.839844 C 146.085938 346.875 146.355469 347.886719 146.703125 348.875 C 147.050781 349.867188 147.472656 350.828125 147.964844 351.753906 C 148.460938 352.679688 149.023438 353.5625 149.652344 354.402344 C 150.28125 355.246094 150.972656 356.03125 151.726562 356.765625 C 152.476562 357.5 153.277344 358.171875 154.132812 358.785156 C 154.988281 359.394531 155.882812 359.9375 156.820312 360.410156 C 157.757812 360.886719 158.726562 361.285156 159.726562 361.609375 C 160.722656 361.9375 161.742188 362.183594 162.777344 362.351562 C 163.816406 362.519531 164.859375 362.609375 165.910156 362.617188 C 166.960938 362.628906 168.003906 362.558594 169.042969 362.40625 C 170.082031 362.253906 171.105469 362.023438 172.109375 361.714844 C 173.113281 361.40625 174.085938 361.023438 175.035156 360.566406 C 175.980469 360.109375 176.882812 359.582031 177.75 358.984375 C 178.613281 358.390625 179.425781 357.730469 180.191406 357.007812 C 180.953125 356.289062 181.65625 355.511719 182.300781 354.683594 C 182.945312 353.851562 183.523438 352.980469 184.035156 352.0625 C 186.246094 347.683594 187.695312 343.070312 188.375 338.210938 C 189.183594 332.511719 190.945312 327.125 193.65625 322.046875 C 194.824219 320.164062 196.207031 318.453125 197.804688 316.921875 C 199.40625 315.386719 201.171875 314.078125 203.105469 312.992188 C 205.035156 311.90625 207.070312 311.082031 209.214844 310.511719 C 211.355469 309.945312 213.535156 309.652344 215.75 309.636719 L 216.367188 309.636719 C 217.492188 309.675781 218.609375 309.785156 219.722656 309.964844 C 220.835938 310.148438 221.929688 310.402344 223.007812 310.726562 C 224.085938 311.050781 225.140625 311.441406 226.171875 311.898438 C 227.199219 312.359375 228.195312 312.882812 229.15625 313.46875 C 230.117188 314.058594 231.035156 314.703125 231.914062 315.410156 C 232.792969 316.117188 233.621094 316.875 234.402344 317.6875 C 235.179688 318.5 235.90625 319.359375 236.574219 320.265625 C 237.246094 321.171875 237.851562 322.117188 238.398438 323.101562 C 240.480469 327.382812 242.015625 331.855469 243.007812 336.511719 C 244.972656 344.285156 246.671875 351.003906 252.570312 353.292969 C 253.777344 353.632812 255.007812 353.800781 256.257812 353.800781 C 257.511719 353.796875 258.742188 353.625 259.945312 353.28125 C 261.152344 352.933594 262.285156 352.433594 263.351562 351.773438 C 264.414062 351.109375 265.371094 350.316406 266.214844 349.390625 C 270.027344 345.085938 272.816406 340.195312 274.574219 334.722656 C 295.90625 278.976562 299.101562 217.511719 302.15625 158.070312 L 302.390625 153.375 C 302.429688 146.132812 303.546875 139.0625 305.734375 132.160156 C 306.300781 130.472656 307.023438 128.855469 307.910156 127.308594 C 308.792969 125.765625 309.820312 124.320312 310.992188 122.980469 C 312.164062 121.636719 313.453125 120.421875 314.867188 119.335938 C 316.277344 118.25 317.78125 117.3125 319.375 116.523438 C 322.585938 115.265625 325.910156 114.582031 329.351562 114.46875 C 331.917969 114.390625 334.421875 113.960938 336.863281 113.179688 C 338.136719 112.570312 339.3125 111.816406 340.402344 110.914062 C 341.488281 110.015625 342.449219 109 343.285156 107.863281 C 344.121094 106.726562 344.808594 105.507812 345.34375 104.203125 C 345.882812 102.898438 346.253906 101.546875 346.457031 100.152344 C 347.332031 93.878906 347.046875 87.660156 345.605469 81.492188 C 344.769531 75.296875 343.015625 69.371094 340.355469 63.710938 C 335.601562 54.910156 328.0625 51.683594 316.589844 53.972656 C 306.460938 55.488281 296.679688 58.246094 287.25 62.246094 C 283.089844 63.769531 279.1875 65.789062 275.539062 68.300781 C 271.894531 70.816406 268.617188 73.746094 265.714844 77.089844 C 261.429688 82.695312 258.644531 91.378906 257.234375 103.644531 C 256.5 111.449219 256.207031 119.273438 256.355469 127.117188 C 256.355469 129.519531 256.355469 131.957031 256.355469 134.363281 C 256.355469 145.628906 255.535156 157.011719 254.300781 168.25 L 254.039062 170.832031 C 253.097656 179.839844 252.042969 190.019531 245.414062 197.824219 C 239.984375 204.191406 231.621094 208.589844 220.589844 210.878906 C 211.160156 212.5625 201.652344 213.40625 192.074219 213.402344 C 189.140625 213.402344 186.382812 213.402344 183.566406 213.695312 C 169.042969 214.339844 150.910156 216.628906 139.292969 228.367188 C 135.015625 233.046875 131.398438 238.191406 128.4375 243.796875 C 126.195312 247.757812 123.730469 251.570312 121.042969 255.242188 C 119.425781 257.308594 117.683594 259.261719 115.820312 261.109375 C 115.761719 261.214844 115.691406 261.3125 115.613281 261.402344 L 115.261719 261.636719 C 112.589844 264.195312 109.753906 266.558594 106.75 268.71875 C 103.746094 270.878906 100.605469 272.824219 97.332031 274.542969 C 94.058594 276.265625 90.675781 277.75 87.195312 279 C 83.710938 280.25 80.15625 281.246094 76.535156 282 L 73.601562 282.585938 C 73.261719 282.714844 72.90625 282.78125 72.542969 282.789062 C 59.195312 284.984375 45.789062 285.445312 32.320312 284.167969 C 47.695312 299.691406 72.660156 307.433594 108.484375 307.847656 Z M 108.484375 307.847656 " fill-opacity="1" fill-rule="nonzero"/></g><g clip-path="url(#3b2e0c1b11)"><g clip-path="url(#56f4bf5e48)"><g clip-path="url(#7facddb467)"><path fill="#f4c50b" d="M 326.691406 47.257812 C 325.394531 43.621094 321.394531 41.722656 317.753906 43.015625 C 303.597656 48.058594 270.417969 59.878906 256.265625 64.921875 C 252.625 66.21875 250.726562 70.21875 252.023438 73.855469 C 252.472656 75.117188 252.804688 76.054688 252.804688 76.054688 L 327.472656 49.453125 Z M 252.96875 66.09375 C 248.566406 53.734375 251.3125 40.550781 259.054688 31.074219 C 259.054688 31.074219 258.589844 29.773438 258.097656 28.382812 C 257.785156 27.511719 257.835938 26.546875 258.230469 25.710938 C 258.628906 24.871094 259.34375 24.226562 260.21875 23.917969 C 263.339844 22.804688 267.558594 21.300781 267.558594 21.300781 C 267.558594 21.300781 267.023438 19.503906 266.503906 17.769531 C 265.972656 15.988281 266.929688 14.101562 268.683594 13.476562 C 270.773438 12.730469 273.515625 11.753906 275.609375 11.007812 C 277.359375 10.386719 279.296875 11.242188 280.011719 12.957031 C 280.707031 14.628906 281.429688 16.359375 281.429688 16.359375 C 281.429688 16.359375 285.644531 14.859375 288.769531 13.746094 C 289.640625 13.433594 290.601562 13.484375 291.441406 13.882812 C 292.277344 14.277344 292.925781 14.992188 293.234375 15.867188 C 293.730469 17.253906 294.191406 18.554688 294.191406 18.554688 C 306.1875 21.003906 316.648438 29.484375 321.050781 41.84375 Z M 252.96875 66.09375 " fill-opacity="1" fill-rule="evenodd"/></g></g></g><g clip-path="url(#28a41f8158)"><g clip-path="url(#7491c6fe50)"><g clip-path="url(#0be31765ef)"><path fill="#545454" d="M 251.320312 66.679688 C 249.855469 68.894531 249.414062 71.75 250.375 74.445312 C 250.824219 75.703125 251.15625 76.640625 251.15625 76.640625 C 251.480469 77.550781 252.480469 78.023438 253.390625 77.699219 L 328.058594 51.101562 C 328.96875 50.777344 329.445312 49.777344 329.121094 48.867188 L 328.339844 46.671875 C 327.378906 43.976562 325.230469 42.046875 322.695312 41.257812 C 318.199219 28.632812 307.675781 19.871094 295.515625 17.054688 C 295.515625 17.054688 294.882812 15.28125 294.882812 15.28125 C 294.414062 13.96875 293.449219 12.898438 292.191406 12.300781 C 290.933594 11.707031 289.492188 11.632812 288.179688 12.097656 C 288.179688 12.097656 282.402344 14.15625 282.402344 14.15625 C 282.402344 14.15625 281.625 12.285156 281.625 12.285156 C 280.550781 9.710938 277.652344 8.425781 275.023438 9.363281 C 272.929688 10.105469 270.1875 11.085938 268.097656 11.828125 C 265.46875 12.765625 264.03125 15.59375 264.828125 18.269531 C 264.828125 18.269531 265.410156 20.210938 265.410156 20.210938 C 265.410156 20.210938 259.632812 22.269531 259.632812 22.269531 C 258.320312 22.734375 257.25 23.703125 256.652344 24.960938 C 256.054688 26.21875 255.984375 27.660156 256.449219 28.96875 L 257.082031 30.746094 C 249.4375 40.617188 246.824219 54.058594 251.320312 66.679688 Z M 325.042969 47.84375 L 325.238281 48.394531 C 315.332031 51.921875 263.769531 70.289062 253.863281 73.820312 C 253.863281 73.820312 253.667969 73.269531 253.667969 73.269531 C 252.695312 70.542969 254.121094 67.539062 256.851562 66.570312 C 271.007812 61.527344 304.1875 49.707031 318.34375 44.664062 C 321.070312 43.691406 324.070312 45.117188 325.042969 47.84375 Z M 266.410156 23.566406 L 260.804688 25.5625 C 260.367188 25.71875 260.011719 26.042969 259.8125 26.460938 C 259.613281 26.878906 259.589844 27.359375 259.746094 27.796875 L 264.046875 39.875 C 264.371094 40.785156 263.894531 41.785156 262.988281 42.109375 C 262.078125 42.433594 261.078125 41.957031 260.753906 41.050781 L 258.507812 34.742188 C 252.894531 43.082031 250.988281 53.769531 254.121094 64.007812 C 254.605469 63.71875 255.125 63.472656 255.675781 63.273438 L 276.074219 56.007812 Z M 283.75 17.390625 L 296.769531 48.636719 L 317.167969 41.371094 C 317.722656 41.171875 318.28125 41.035156 318.839844 40.953125 C 314.792969 31.042969 306.558594 23.964844 296.9375 21.050781 L 299.183594 27.359375 C 299.507812 28.269531 299.035156 29.269531 298.125 29.59375 C 297.214844 29.917969 296.214844 29.441406 295.890625 28.53125 L 291.589844 16.453125 C 291.433594 16.015625 291.109375 15.660156 290.691406 15.460938 C 290.273438 15.261719 289.792969 15.238281 289.355469 15.394531 Z M 293.472656 49.8125 L 278.398438 13.632812 C 278.039062 12.773438 277.070312 12.34375 276.195312 12.65625 C 274.105469 13.402344 271.363281 14.378906 269.269531 15.125 C 268.394531 15.4375 267.914062 16.378906 268.179688 17.269531 L 269.234375 20.800781 C 269.234375 20.800781 279.375 54.832031 279.375 54.832031 Z M 293.472656 49.8125 " fill-opacity="1" fill-rule="evenodd"/></g></g></g></svg>