<svg xmlns="http://www.w3.org/2000/svg" xmlns:xlink="http://www.w3.org/1999/xlink" width="500" zoomAndPan="magnify" viewBox="0 0 375 374.999991" height="500" preserveAspectRatio="xMidYMid meet" version="1.0"><defs><clipPath id="152d21ed55"><path d="M 21.875 31 L 353 31 L 353 369.296875 L 21.875 369.296875 Z M 21.875 31 " clip-rule="nonzero"/></clipPath><clipPath id="68444ed833"><path d="M 250 10 L 328 10 L 328 77 L 250 77 Z M 250 10 " clip-rule="nonzero"/></clipPath><clipPath id="2acb8b13ea"><path d="M 232.570312 24.484375 L 310.285156 -3.199219 L 329.414062 50.496094 L 251.695312 78.179688 Z M 232.570312 24.484375 " clip-rule="nonzero"/></clipPath><clipPath id="411a428940"><path d="M 232.570312 24.484375 L 310.285156 -3.199219 L 329.414062 50.496094 L 251.695312 78.179688 Z M 232.570312 24.484375 " clip-rule="nonzero"/></clipPath><clipPath id="d0597a15a3"><path d="M 249 9 L 330 9 L 330 78 L 249 78 Z M 249 9 " clip-rule="nonzero"/></clipPath><clipPath id="1432066b1d"><path d="M 232.570312 24.484375 L 310.285156 -3.199219 L 329.414062 50.496094 L 251.695312 78.179688 Z M 232.570312 24.484375 " clip-rule="nonzero"/></clipPath><clipPath id="0854ef999f"><path d="M 232.570312 24.484375 L 310.285156 -3.199219 L 329.414062 50.496094 L 251.695312 78.179688 Z M 232.570312 24.484375 " clip-rule="nonzero"/></clipPath></defs><path fill="#000000" d="M 311.480469 70.351562 C 311.925781 70.542969 312.34375 70.773438 312.742188 71.042969 C 313.140625 71.316406 313.507812 71.621094 313.847656 71.964844 C 314.183594 72.308594 314.484375 72.683594 314.75 73.085938 C 315.011719 73.488281 315.234375 73.914062 315.414062 74.359375 C 315.59375 74.808594 315.726562 75.265625 315.816406 75.738281 C 315.90625 76.214844 315.949219 76.691406 315.945312 77.171875 C 315.9375 77.652344 315.886719 78.128906 315.789062 78.601562 C 315.691406 79.070312 315.546875 79.527344 315.355469 79.972656 C 315.167969 80.414062 314.9375 80.835938 314.664062 81.230469 C 314.394531 81.628906 314.085938 81.996094 313.742188 82.335938 C 313.398438 82.671875 313.023438 82.972656 312.621094 83.234375 C 312.21875 83.496094 311.792969 83.71875 311.34375 83.898438 C 310.898438 84.078125 310.4375 84.214844 309.964844 84.300781 C 309.488281 84.390625 309.011719 84.433594 308.53125 84.429688 C 308.046875 84.425781 307.570312 84.371094 307.097656 84.273438 C 306.628906 84.175781 306.171875 84.03125 305.726562 83.84375 C 305.28125 83.652344 304.863281 83.425781 304.464844 83.152344 C 304.066406 82.882812 303.699219 82.574219 303.359375 82.230469 C 303.023438 81.886719 302.722656 81.511719 302.460938 81.109375 C 302.195312 80.707031 301.972656 80.28125 301.792969 79.835938 C 301.613281 79.386719 301.480469 78.929688 301.390625 78.457031 C 301.300781 77.984375 301.257812 77.503906 301.265625 77.023438 C 301.269531 76.542969 301.320312 76.066406 301.417969 75.59375 C 301.519531 75.125 301.660156 74.667969 301.851562 74.222656 C 302.039062 73.78125 302.269531 73.359375 302.542969 72.964844 C 302.8125 72.566406 303.121094 72.199219 303.464844 71.859375 C 303.808594 71.523438 304.183594 71.222656 304.585938 70.960938 C 304.992188 70.699219 305.417969 70.476562 305.863281 70.296875 C 306.3125 70.117188 306.769531 69.980469 307.246094 69.894531 C 307.71875 69.804688 308.195312 69.761719 308.679688 69.765625 C 309.160156 69.769531 309.636719 69.824219 310.109375 69.921875 C 310.582031 70.019531 311.039062 70.164062 311.480469 70.351562 Z M 311.480469 70.351562 " fill-opacity="1" fill-rule="nonzero"/><g clip-path="url(#152d21ed55)"><path fill="#000000" d="M 22.292969 280.21875 C 22.582031 279.691406 22.996094 279.292969 23.53125 279.019531 C 24.066406 278.746094 24.632812 278.648438 25.230469 278.722656 L 27.902344 278.988281 C 27.933594 278.617188 28.03125 278.265625 28.195312 277.929688 C 30.355469 273.222656 33.164062 268.941406 36.621094 265.085938 C 37.597656 264.027344 38.679688 263.089844 39.867188 262.273438 C 41.054688 261.460938 42.316406 260.785156 43.65625 260.257812 C 44.996094 259.726562 46.378906 259.351562 47.804688 259.132812 C 49.226562 258.910156 50.65625 258.855469 52.09375 258.957031 C 54.390625 259.292969 56.550781 260.03125 58.574219 261.160156 C 60.597656 262.292969 62.351562 263.75 63.839844 265.527344 C 64.679688 266.5625 65.453125 267.648438 66.160156 268.78125 C 66.507812 265.804688 67.320312 262.960938 68.597656 260.246094 C 71.972656 253.003906 78.960938 245.582031 86.917969 245.582031 C 91.546875 245.640625 96.011719 246.53125 100.308594 248.253906 C 99.746094 247.0625 99.316406 245.832031 99.011719 244.554688 C 98.707031 243.277344 98.535156 241.984375 98.5 240.671875 C 98.464844 239.359375 98.566406 238.054688 98.800781 236.761719 C 99.035156 235.472656 99.402344 234.21875 99.898438 233 C 100.714844 231.445312 101.722656 230.023438 102.917969 228.734375 C 104.117188 227.445312 105.457031 226.332031 106.949219 225.398438 C 108.4375 224.464844 110.023438 223.738281 111.707031 223.222656 C 113.390625 222.707031 115.109375 222.417969 116.867188 222.355469 C 120.34375 222.101562 123.75 222.484375 127.085938 223.5 C 125.839844 220.027344 125.566406 216.476562 126.265625 212.855469 C 127.4375 206.226562 131.84375 199.1875 139.035156 198.511719 C 141.035156 198.460938 143.019531 198.585938 144.996094 198.890625 C 146.96875 199.199219 148.902344 199.675781 150.789062 200.332031 C 152.675781 200.984375 154.492188 201.800781 156.230469 202.78125 C 157.972656 203.761719 159.609375 204.890625 161.148438 206.167969 C 161.644531 202.652344 162.5625 199.25 163.90625 195.960938 C 164.453125 194.546875 165.140625 193.207031 165.96875 191.933594 C 166.796875 190.664062 167.746094 189.492188 168.816406 188.417969 C 169.890625 187.347656 171.058594 186.394531 172.328125 185.566406 C 173.601562 184.738281 174.941406 184.046875 176.355469 183.496094 C 177.308594 183.226562 178.277344 183.027344 179.261719 182.898438 C 180.242188 182.765625 181.230469 182.707031 182.222656 182.722656 C 183.210938 182.734375 184.195312 182.816406 185.175781 182.972656 C 186.15625 183.128906 187.117188 183.351562 188.0625 183.644531 C 189.011719 183.9375 189.929688 184.300781 190.824219 184.726562 C 191.71875 185.152344 192.578125 185.640625 193.402344 186.195312 C 194.226562 186.746094 195.003906 187.351562 195.738281 188.015625 C 196.476562 188.679688 197.160156 189.390625 197.789062 190.15625 C 199.457031 192.089844 200.816406 194.222656 201.871094 196.546875 C 201.921875 196.242188 201.992188 195.9375 202.078125 195.640625 C 202.71875 193.265625 203.746094 191.070312 205.160156 189.054688 C 206.570312 187.039062 208.285156 185.324219 210.300781 183.90625 C 211.484375 183.207031 212.730469 182.636719 214.035156 182.195312 C 215.335938 181.753906 216.671875 181.449219 218.039062 181.285156 C 219.410156 181.121094 220.777344 181.097656 222.148438 181.21875 C 223.523438 181.339844 224.867188 181.601562 226.183594 182 C 225.808594 180.164062 225.667969 178.304688 225.757812 176.429688 C 225.851562 174.554688 226.171875 172.722656 226.726562 170.925781 C 227.28125 169.132812 228.050781 167.4375 229.03125 165.835938 C 230.011719 164.234375 231.179688 162.78125 232.527344 161.472656 C 231.992188 161.292969 231.472656 161.078125 230.96875 160.828125 C 229.960938 160.222656 229.027344 159.515625 228.171875 158.707031 C 227.316406 157.898438 226.554688 157.007812 225.890625 156.035156 C 225.226562 155.066406 224.675781 154.03125 224.234375 152.941406 C 223.792969 151.851562 223.472656 150.726562 223.277344 149.566406 C 222.855469 147.695312 222.671875 145.804688 222.734375 143.890625 C 222.792969 141.976562 223.089844 140.097656 223.625 138.261719 C 224.164062 136.421875 224.921875 134.679688 225.902344 133.03125 C 226.882812 131.386719 228.050781 129.886719 229.414062 128.539062 C 230.703125 127.382812 232.132812 126.429688 233.695312 125.683594 C 235.257812 124.933594 236.894531 124.417969 238.605469 124.140625 C 237.457031 123.414062 236.390625 122.585938 235.40625 121.648438 C 234.421875 120.714844 233.539062 119.691406 232.757812 118.582031 C 231.976562 117.472656 231.3125 116.296875 230.761719 115.054688 C 230.214844 113.8125 229.796875 112.53125 229.503906 111.207031 C 229.347656 110.242188 229.257812 109.269531 229.234375 108.292969 C 229.214844 107.316406 229.261719 106.34375 229.375 105.371094 C 229.488281 104.402344 229.667969 103.445312 229.917969 102.5 C 230.164062 101.554688 230.476562 100.628906 230.851562 99.726562 C 231.226562 98.824219 231.660156 97.953125 232.160156 97.109375 C 232.65625 96.269531 233.207031 95.464844 233.816406 94.699219 C 234.425781 93.933594 235.082031 93.214844 235.792969 92.542969 C 236.5 91.867188 237.25 91.246094 238.046875 90.675781 C 234.550781 87.742188 231.734375 82.613281 233.027344 73.785156 C 233.191406 72.785156 233.429688 71.804688 233.742188 70.84375 C 234.058594 69.882812 234.441406 68.949219 234.894531 68.042969 C 235.351562 67.140625 235.871094 66.277344 236.453125 65.449219 C 237.039062 64.625 237.683594 63.847656 238.386719 63.117188 C 239.085938 62.390625 239.839844 61.714844 240.644531 61.101562 C 241.449219 60.484375 242.292969 59.933594 243.179688 59.445312 C 244.070312 58.957031 244.988281 58.539062 245.9375 58.191406 C 246.886719 57.839844 247.859375 57.5625 248.851562 57.359375 C 251.832031 56.839844 254.769531 57.027344 257.660156 57.917969 C 257.132812 55.691406 256.972656 53.441406 257.179688 51.164062 C 257.382812 48.886719 257.945312 46.699219 258.863281 44.601562 C 259.410156 43.460938 260.042969 42.371094 260.765625 41.332031 C 261.488281 40.296875 262.292969 39.320312 263.171875 38.410156 C 264.050781 37.503906 265 36.671875 266.015625 35.914062 C 267.03125 35.15625 268.097656 34.488281 269.222656 33.90625 C 270.34375 33.320312 271.507812 32.832031 272.710938 32.4375 C 273.914062 32.039062 275.140625 31.746094 276.390625 31.546875 C 277.640625 31.347656 278.902344 31.253906 280.167969 31.257812 C 281.433594 31.265625 282.691406 31.371094 283.941406 31.582031 C 285.164062 31.839844 286.363281 32.179688 287.539062 32.609375 C 288.714844 33.035156 289.855469 33.539062 290.957031 34.128906 C 292.0625 34.714844 293.117188 35.375 294.128906 36.113281 C 295.140625 36.847656 296.09375 37.652344 296.992188 38.519531 C 297.886719 39.390625 298.71875 40.320312 299.484375 41.308594 C 300.25 42.296875 300.945312 43.332031 301.5625 44.417969 C 302.183594 45.5 302.722656 46.625 303.183594 47.785156 C 303.648438 48.945312 304.023438 50.132812 304.316406 51.347656 C 307.871094 50.5 311.480469 49.792969 315.417969 49.207031 C 329.332031 46.507812 339.492188 50.792969 345.484375 62.023438 C 348.464844 68.226562 350.421875 74.738281 351.355469 81.554688 C 352.929688 88.425781 353.214844 95.34375 352.207031 102.320312 C 351.914062 104.203125 351.390625 106.023438 350.640625 107.777344 C 349.890625 109.53125 348.9375 111.167969 347.777344 112.683594 C 346.617188 114.199219 345.289062 115.546875 343.792969 116.734375 C 342.296875 117.917969 340.675781 118.902344 338.933594 119.679688 C 335.964844 120.6875 332.910156 121.253906 329.773438 121.382812 C 327.015625 121.441406 324.34375 121.949219 321.757812 122.90625 C 320.519531 123.535156 319.355469 124.28125 318.261719 125.140625 C 317.171875 125.996094 316.171875 126.953125 315.269531 128.007812 C 314.363281 129.0625 313.570312 130.191406 312.890625 131.402344 C 312.207031 132.613281 311.648438 133.875 311.21875 135.195312 C 309.269531 141.539062 308.289062 148.03125 308.28125 154.667969 L 308.046875 159.273438 C 304.933594 219.128906 301.734375 281.011719 280.0625 337.613281 C 278.054688 343.949219 274.8125 349.578125 270.34375 354.503906 C 265.648438 359.136719 257.660156 362.539062 250.40625 359.695312 C 241.597656 356.324219 239.457031 347.464844 237.28125 338.902344 C 236.394531 334.726562 235.035156 330.707031 233.203125 326.847656 C 232.367188 325.308594 231.347656 323.898438 230.136719 322.625 C 228.929688 321.351562 227.578125 320.257812 226.082031 319.339844 C 224.585938 318.425781 222.996094 317.71875 221.3125 317.222656 C 219.628906 316.726562 217.910156 316.453125 216.152344 316.410156 C 214.398438 316.367188 212.667969 316.554688 210.960938 316.96875 C 209.257812 317.378906 207.632812 318.007812 206.09375 318.851562 C 204.554688 319.691406 203.148438 320.71875 201.878906 321.929688 C 200.613281 323.144531 199.523438 324.5 198.613281 326 C 196.261719 330.484375 194.753906 335.234375 194.089844 340.25 C 193.292969 345.769531 191.617188 351.011719 189.070312 355.972656 C 188.472656 356.96875 187.8125 357.925781 187.09375 358.839844 C 186.371094 359.753906 185.597656 360.621094 184.765625 361.433594 C 183.933594 362.25 183.050781 363.007812 182.121094 363.707031 C 181.191406 364.410156 180.222656 365.046875 179.210938 365.625 C 178.199219 366.203125 177.152344 366.710938 176.078125 367.15625 C 175 367.597656 173.898438 367.96875 172.773438 368.269531 C 171.648438 368.574219 170.507812 368.800781 169.351562 368.957031 C 168.199219 369.109375 167.039062 369.191406 165.875 369.199219 C 164.503906 369.195312 163.144531 369.078125 161.792969 368.847656 C 160.472656 368.617188 159.179688 368.292969 157.910156 367.871094 C 156.640625 367.453125 155.40625 366.941406 154.214844 366.335938 C 153.019531 365.734375 151.875 365.046875 150.785156 364.273438 C 149.691406 363.5 148.664062 362.652344 147.695312 361.726562 C 146.730469 360.804688 145.839844 359.8125 145.019531 358.753906 C 144.199219 357.699219 143.464844 356.585938 142.808594 355.421875 C 142.15625 354.253906 141.589844 353.046875 141.117188 351.796875 C 140.640625 350.546875 140.261719 349.269531 139.976562 347.964844 C 139.394531 344.566406 139.15625 341.144531 139.273438 337.699219 C 139.636719 333.339844 139.027344 329.113281 137.453125 325.03125 C 133.105469 316.234375 120.832031 314.824219 108.089844 314.679688 C 66.511719 314.179688 38.5 303.972656 22.558594 283.445312 C 22.191406 282.980469 21.988281 282.457031 21.9375 281.871094 C 21.890625 281.285156 22.007812 280.734375 22.292969 280.21875 Z M 59.199219 269.425781 C 58.9375 269.0625 58.652344 268.71875 58.351562 268.386719 C 58.046875 268.058594 57.722656 267.746094 57.382812 267.457031 C 57.042969 267.164062 56.6875 266.890625 56.316406 266.640625 C 55.945312 266.390625 55.558594 266.160156 55.160156 265.957031 C 54.761719 265.75 54.351562 265.570312 53.933594 265.410156 C 53.511719 265.253906 53.085938 265.117188 52.648438 265.011719 C 52.214844 264.902344 51.773438 264.820312 51.328125 264.761719 C 50.882812 264.707031 50.4375 264.675781 49.988281 264.667969 C 49.539062 264.664062 49.09375 264.6875 48.648438 264.734375 C 48.199219 264.78125 47.757812 264.851562 47.320312 264.953125 C 46.882812 265.050781 46.453125 265.175781 46.03125 265.324219 C 45.605469 265.472656 45.195312 265.644531 44.789062 265.839844 C 44.386719 266.039062 43.996094 266.257812 43.621094 266.5 C 43.242188 266.742188 42.878906 267.007812 42.535156 267.289062 C 42.1875 267.574219 41.859375 267.878906 41.546875 268.203125 C 41.234375 268.523438 40.945312 268.863281 40.671875 269.222656 C 37.898438 272.300781 35.636719 275.722656 33.890625 279.484375 C 44.378906 280.34375 54.851562 280.167969 65.308594 278.957031 C 65.183594 278.828125 65.066406 278.691406 64.957031 278.546875 C 63.390625 275.285156 61.472656 272.242188 59.199219 269.425781 Z M 73.882812 262.914062 C 73.265625 264.035156 72.792969 265.207031 72.457031 266.4375 C 72.121094 267.667969 71.9375 268.921875 71.898438 270.199219 C 71.863281 271.472656 71.980469 272.734375 72.246094 273.980469 C 72.511719 275.230469 72.917969 276.429688 73.472656 277.578125 L 74.996094 277.316406 C 81.320312 276.011719 87.371094 273.925781 93.152344 271.058594 C 98.933594 268.191406 104.257812 264.636719 109.117188 260.394531 C 107.636719 258.992188 106.039062 257.746094 104.324219 256.648438 C 102.605469 255.550781 100.800781 254.628906 98.90625 253.875 C 97.015625 253.121094 95.066406 252.550781 93.066406 252.167969 C 91.066406 251.785156 89.042969 251.59375 87.007812 251.59375 C 82.398438 251.59375 76.816406 256.289062 73.882812 262.914062 Z M 117.191406 228.105469 C 115.957031 228.132812 114.75 228.320312 113.5625 228.664062 C 112.378906 229.007812 111.257812 229.496094 110.199219 230.132812 C 109.140625 230.765625 108.183594 231.527344 107.320312 232.410156 C 106.460938 233.292969 105.730469 234.273438 105.125 235.347656 C 104.777344 236.25 104.53125 237.179688 104.386719 238.136719 C 104.242188 239.09375 104.203125 240.054688 104.269531 241.019531 C 104.335938 241.984375 104.503906 242.929688 104.777344 243.859375 C 105.050781 244.785156 105.421875 245.675781 105.886719 246.523438 C 107.847656 250.101562 110.414062 253.179688 113.578125 255.761719 C 114.460938 254.761719 115.339844 253.765625 116.132812 252.828125 C 118.6875 249.296875 121.027344 245.628906 123.152344 241.828125 C 125.214844 238.171875 127.46875 234.632812 129.90625 231.210938 C 127.992188 230.0625 125.953125 229.21875 123.785156 228.691406 C 121.617188 228.160156 119.417969 227.964844 117.191406 228.105469 Z M 139.476562 204.261719 C 135.335938 204.671875 132.722656 209.335938 131.929688 213.792969 C 131.136719 218.25 131.929688 222.796875 135.191406 224.820312 C 138.511719 221.707031 142.179688 219.074219 146.191406 216.921875 C 150.203125 214.769531 154.425781 213.167969 158.855469 212.121094 C 157.589844 210.847656 156.210938 209.710938 154.714844 208.714844 C 153.21875 207.71875 151.636719 206.882812 149.972656 206.207031 C 148.308594 205.535156 146.589844 205.03125 144.824219 204.703125 C 143.058594 204.375 141.273438 204.226562 139.476562 204.261719 Z M 193.238281 193.910156 C 192.351562 192.8125 191.324219 191.867188 190.164062 191.066406 C 189.003906 190.265625 187.75 189.644531 186.410156 189.207031 C 185.070312 188.765625 183.691406 188.523438 182.28125 188.480469 C 180.871094 188.4375 179.484375 188.59375 178.117188 188.953125 C 176.074219 189.816406 174.285156 191.050781 172.753906 192.65625 C 171.222656 194.261719 170.074219 196.109375 169.308594 198.191406 C 167.765625 202.171875 166.785156 206.285156 166.375 210.539062 C 171.945312 209.617188 177.554688 209.050781 183.199219 208.835938 L 191.800781 208.542969 L 199.054688 208.308594 C 198.808594 205.675781 198.195312 203.132812 197.203125 200.683594 C 196.214844 198.230469 194.890625 195.972656 193.238281 193.910156 Z M 213.382812 188.863281 C 211.941406 189.878906 210.714844 191.109375 209.707031 192.558594 C 208.695312 194.003906 207.964844 195.578125 207.511719 197.28125 C 206.617188 200.765625 206.117188 204.304688 206.011719 207.898438 C 210.472656 207.601562 214.898438 207.027344 219.285156 206.167969 C 222.96875 205.515625 226.5 204.382812 229.878906 202.777344 C 233.257812 201.167969 236.363281 199.140625 239.191406 196.695312 C 238.191406 195.757812 237.195312 194.875 236.253906 194.027344 C 234.355469 193.078125 232.613281 191.894531 231.027344 190.476562 C 230.089844 189.949219 229.121094 189.421875 228.09375 188.894531 C 226.964844 188.285156 225.777344 187.820312 224.53125 187.507812 C 223.289062 187.191406 222.023438 187.03125 220.742188 187.027344 C 219.457031 187.027344 218.191406 187.179688 216.949219 187.492188 C 215.703125 187.800781 214.515625 188.257812 213.382812 188.863281 Z M 231.585938 176.105469 C 231.214844 178.523438 231.5 180.859375 232.4375 183.117188 C 232.921875 184.097656 233.558594 184.96875 234.347656 185.726562 C 236.015625 186.722656 237.613281 187.828125 239.132812 189.039062 C 240.511719 189.683594 242.070312 190.300781 243.417969 190.828125 C 246.167969 184.585938 247.675781 178.054688 247.941406 171.238281 L 248.207031 168.628906 C 248.207031 168.042969 248.207031 167.457031 248.382812 166.898438 C 247.972656 166.175781 247.441406 165.558594 246.785156 165.050781 C 246.128906 164.539062 245.398438 164.179688 244.59375 163.964844 C 243.496094 163.640625 242.378906 163.535156 241.242188 163.648438 C 240.105469 163.761719 239.03125 164.082031 238.015625 164.609375 C 237.070312 165.253906 236.210938 165.992188 235.433594 166.835938 C 234.660156 167.679688 233.996094 168.597656 233.4375 169.597656 C 232.878906 170.59375 232.445312 171.644531 232.132812 172.742188 C 231.816406 173.84375 231.636719 174.964844 231.585938 176.105469 Z M 228.914062 148.539062 C 229.121094 150.039062 229.632812 151.425781 230.449219 152.703125 C 231.261719 153.976562 232.308594 155.023438 233.582031 155.839844 C 235.351562 156.566406 237.191406 156.976562 239.105469 157.074219 L 249.292969 158.160156 C 249.910156 150.5625 250.261719 142.9375 250.347656 135.371094 C 250.347656 134.285156 250.347656 133.199219 250.347656 132.117188 C 249.921875 132.25 249.484375 132.28125 249.042969 132.214844 C 248.601562 132.148438 248.195312 131.988281 247.824219 131.734375 C 247.265625 131.375 246.683594 131.066406 246.074219 130.804688 C 245.464844 130.542969 244.839844 130.335938 244.195312 130.175781 C 243.550781 130.019531 242.898438 129.914062 242.238281 129.867188 C 241.578125 129.816406 240.917969 129.820312 240.257812 129.878906 C 239.597656 129.9375 238.945312 130.050781 238.304688 130.21875 C 237.664062 130.386719 237.039062 130.605469 236.433594 130.875 C 235.828125 131.144531 235.25 131.460938 234.699219 131.828125 C 234.144531 132.195312 233.628906 132.601562 233.144531 133.054688 C 232.164062 134.0625 231.328125 135.175781 230.628906 136.394531 C 229.933594 137.613281 229.398438 138.898438 229.03125 140.253906 C 228.660156 141.605469 228.464844 142.984375 228.445312 144.386719 C 228.425781 145.792969 228.582031 147.175781 228.914062 148.539062 Z M 235.199219 110.121094 C 235.398438 110.964844 235.671875 111.785156 236.011719 112.585938 C 236.355469 113.382812 236.761719 114.144531 237.234375 114.875 C 237.707031 115.601562 238.234375 116.285156 238.824219 116.925781 C 239.414062 117.5625 240.050781 118.148438 240.742188 118.679688 C 241.429688 119.207031 242.15625 119.675781 242.925781 120.082031 C 243.691406 120.488281 244.492188 120.824219 245.316406 121.097656 C 246.140625 121.367188 246.984375 121.566406 247.84375 121.691406 C 248.703125 121.820312 249.570312 121.871094 250.4375 121.851562 C 250.425781 115.96875 250.726562 110.105469 251.347656 104.253906 C 251.699219 101.324219 252.199219 97.65625 252.960938 93.992188 L 252.757812 93.992188 C 251.757812 93.539062 250.710938 93.269531 249.617188 93.175781 C 248.523438 93.085938 247.445312 93.183594 246.386719 93.460938 C 245.5 93.699219 244.644531 94.011719 243.816406 94.402344 C 242.984375 94.792969 242.199219 95.253906 241.453125 95.785156 C 240.707031 96.316406 240.015625 96.910156 239.378906 97.566406 C 238.742188 98.222656 238.167969 98.929688 237.65625 99.691406 C 237.144531 100.449219 236.707031 101.25 236.339844 102.089844 C 235.976562 102.925781 235.6875 103.792969 235.476562 104.683594 C 235.269531 105.574219 235.140625 106.476562 235.09375 107.390625 C 235.046875 108.300781 235.082031 109.214844 235.199219 110.121094 Z M 249.878906 63.195312 C 249.1875 63.34375 248.511719 63.542969 247.847656 63.792969 C 247.1875 64.039062 246.546875 64.335938 245.929688 64.679688 C 245.308594 65.023438 244.71875 65.410156 244.160156 65.84375 C 243.601562 66.273438 243.074219 66.746094 242.582031 67.253906 C 242.09375 67.761719 241.644531 68.304688 241.234375 68.882812 C 240.824219 69.457031 240.460938 70.0625 240.140625 70.691406 C 239.820312 71.320312 239.550781 71.972656 239.324219 72.644531 C 239.101562 73.3125 238.929688 73.996094 238.808594 74.691406 C 237.871094 81.203125 239.515625 85.425781 243.890625 87.65625 L 244.066406 87.800781 L 245.179688 87.480469 C 246.726562 87.125 248.289062 87.007812 249.871094 87.121094 C 251.453125 87.238281 252.980469 87.582031 254.460938 88.15625 C 255.84375 83.253906 258.027344 78.738281 261.007812 74.605469 C 262.152344 73.148438 263.394531 71.78125 264.738281 70.5 C 264.574219 70.347656 264.425781 70.179688 264.296875 70 C 263.933594 69.394531 263.527344 68.820312 263.082031 68.273438 C 262.632812 67.726562 262.144531 67.214844 261.621094 66.742188 C 261.097656 66.269531 260.542969 65.835938 259.953125 65.445312 C 259.363281 65.054688 258.75 64.707031 258.109375 64.40625 C 257.46875 64.109375 256.8125 63.855469 256.132812 63.652344 C 255.457031 63.453125 254.769531 63.300781 254.070312 63.199219 C 253.367188 63.101562 252.664062 63.050781 251.957031 63.058594 C 251.25 63.0625 250.546875 63.117188 249.851562 63.226562 Z M 298.589844 52.699219 C 298.367188 51.757812 298.082031 50.839844 297.730469 49.941406 C 297.375 49.042969 296.960938 48.171875 296.488281 47.332031 C 296.011719 46.492188 295.480469 45.691406 294.890625 44.925781 C 294.304688 44.160156 293.664062 43.4375 292.972656 42.761719 C 292.28125 42.089844 291.546875 41.464844 290.769531 40.894531 C 289.992188 40.320312 289.175781 39.804688 288.324219 39.347656 C 287.476562 38.890625 286.597656 38.496094 285.6875 38.164062 C 284.78125 37.832031 283.855469 37.5625 282.910156 37.359375 C 281.980469 37.203125 281.046875 37.117188 280.101562 37.113281 C 279.160156 37.105469 278.21875 37.171875 277.289062 37.316406 C 276.355469 37.457031 275.441406 37.675781 274.542969 37.964844 C 273.644531 38.253906 272.777344 38.613281 271.9375 39.042969 C 271.097656 39.472656 270.296875 39.964844 269.535156 40.523438 C 268.777344 41.082031 268.066406 41.695312 267.402344 42.367188 C 266.742188 43.039062 266.136719 43.757812 265.59375 44.527344 C 265.046875 45.296875 264.566406 46.105469 264.148438 46.949219 C 263.804688 47.78125 263.535156 48.640625 263.339844 49.523438 C 263.148438 50.402344 263.035156 51.296875 263 52.195312 C 262.964844 53.097656 263.011719 53.996094 263.136719 54.890625 C 263.261719 55.78125 263.460938 56.660156 263.742188 57.515625 C 264.023438 58.375 264.378906 59.199219 264.804688 59.996094 C 265.230469 60.789062 265.726562 61.542969 266.285156 62.25 C 266.847656 62.957031 267.464844 63.609375 268.144531 64.207031 C 268.820312 64.804688 269.542969 65.335938 270.316406 65.808594 C 274.796875 62.589844 279.605469 59.960938 284.734375 57.917969 C 289.871094 55.835938 294.335938 54.253906 298.707031 52.960938 C 298.664062 52.875 298.625 52.789062 298.589844 52.699219 Z M 108.292969 308.8125 C 117.339844 308.8125 136.1875 309.164062 142.738281 322.449219 C 144.746094 327.34375 145.546875 332.425781 145.144531 337.699219 C 145.035156 340.75 145.230469 343.78125 145.730469 346.792969 C 145.925781 347.824219 146.195312 348.835938 146.542969 349.828125 C 146.890625 350.816406 147.3125 351.777344 147.804688 352.703125 C 148.300781 353.628906 148.863281 354.511719 149.496094 355.351562 C 150.125 356.191406 150.816406 356.976562 151.566406 357.710938 C 152.320312 358.445312 153.121094 359.121094 153.976562 359.730469 C 154.832031 360.339844 155.730469 360.882812 156.667969 361.355469 C 157.605469 361.832031 158.574219 362.230469 159.574219 362.554688 C 160.574219 362.878906 161.59375 363.128906 162.628906 363.296875 C 163.667969 363.464844 164.710938 363.554688 165.761719 363.5625 C 166.8125 363.570312 167.859375 363.5 168.898438 363.347656 C 169.941406 363.199219 170.964844 362.96875 171.96875 362.660156 C 172.972656 362.351562 173.949219 361.96875 174.894531 361.511719 C 175.839844 361.054688 176.746094 360.527344 177.613281 359.929688 C 178.476562 359.335938 179.292969 358.675781 180.054688 357.953125 C 180.820312 357.234375 181.523438 356.457031 182.167969 355.628906 C 182.8125 354.800781 183.390625 353.925781 183.902344 353.007812 C 186.117188 348.636719 187.566406 344.019531 188.25 339.167969 C 189.058594 333.46875 190.820312 328.082031 193.535156 323.007812 C 194.699219 321.125 196.085938 319.414062 197.683594 317.882812 C 199.285156 316.351562 201.054688 315.042969 202.988281 313.957031 C 204.921875 312.871094 206.957031 312.046875 209.101562 311.476562 C 211.246094 310.910156 213.425781 310.617188 215.644531 310.601562 L 216.257812 310.601562 C 217.386719 310.640625 218.507812 310.75 219.617188 310.933594 C 220.730469 311.113281 221.828125 311.367188 222.90625 311.691406 C 223.988281 312.015625 225.042969 312.40625 226.070312 312.863281 C 227.101562 313.324219 228.097656 313.847656 229.058594 314.433594 C 230.019531 315.023438 230.941406 315.667969 231.820312 316.375 C 232.699219 317.078125 233.527344 317.839844 234.308594 318.652344 C 235.089844 319.464844 235.8125 320.324219 236.484375 321.226562 C 237.152344 322.132812 237.761719 323.078125 238.3125 324.0625 C 240.394531 328.34375 241.929688 332.808594 242.921875 337.464844 C 244.886719 345.238281 246.589844 351.953125 252.492188 354.242188 C 253.699219 354.582031 254.929688 354.75 256.183594 354.746094 C 257.4375 354.746094 258.667969 354.570312 259.875 354.226562 C 261.078125 353.882812 262.214844 353.378906 263.28125 352.71875 C 264.347656 352.058594 265.300781 351.265625 266.144531 350.339844 C 269.964844 346.039062 272.753906 341.148438 274.515625 335.675781 C 295.859375 279.953125 299.0625 218.515625 302.113281 159.097656 L 302.351562 154.40625 C 302.390625 147.167969 303.507812 140.101562 305.695312 133.199219 C 306.261719 131.511719 306.988281 129.894531 307.875 128.351562 C 308.757812 126.808594 309.789062 125.363281 310.960938 124.023438 C 312.132812 122.679688 313.421875 121.46875 314.835938 120.382812 C 316.246094 119.296875 317.753906 118.359375 319.351562 117.570312 C 322.558594 116.3125 325.886719 115.628906 329.332031 115.515625 C 331.898438 115.4375 334.40625 115.007812 336.851562 114.226562 C 338.125 113.617188 339.304688 112.863281 340.390625 111.964844 C 341.476562 111.0625 342.441406 110.046875 343.277344 108.910156 C 344.113281 107.777344 344.800781 106.558594 345.339844 105.253906 C 345.875 103.949219 346.246094 102.601562 346.453125 101.203125 C 347.328125 94.933594 347.042969 88.71875 345.601562 82.554688 C 344.761719 76.359375 343.007812 70.433594 340.34375 64.78125 C 335.589844 55.980469 328.042969 52.757812 316.5625 55.042969 C 306.421875 56.558594 296.636719 59.3125 287.199219 63.3125 C 283.035156 64.835938 279.128906 66.855469 275.480469 69.367188 C 271.832031 71.882812 268.554688 74.808594 265.648438 78.152344 C 261.359375 83.753906 258.570312 92.4375 257.160156 104.695312 C 256.425781 112.5 256.132812 120.320312 256.28125 128.15625 C 256.28125 130.5625 256.28125 132.996094 256.28125 135.402344 C 256.28125 146.664062 255.457031 158.042969 254.226562 169.273438 L 253.960938 171.855469 C 253.019531 180.859375 251.964844 191.035156 245.328125 198.835938 C 239.894531 205.199219 231.527344 209.597656 220.488281 211.886719 C 211.050781 213.570312 201.535156 214.410156 191.949219 214.410156 C 189.011719 214.410156 186.25 214.410156 183.433594 214.703125 C 168.898438 215.347656 150.753906 217.632812 139.125 229.367188 C 134.847656 234.046875 131.226562 239.1875 128.261719 244.792969 C 126.019531 248.75 123.550781 252.5625 120.863281 256.230469 C 119.242188 258.292969 117.5 260.25 115.636719 262.09375 C 115.578125 262.199219 115.507812 262.296875 115.429688 262.386719 L 115.078125 262.621094 C 112.402344 265.179688 109.5625 267.539062 106.558594 269.703125 C 103.550781 271.863281 100.410156 273.804688 97.132812 275.523438 C 93.855469 277.246094 90.472656 278.730469 86.988281 279.976562 C 83.5 281.226562 79.945312 282.226562 76.320312 282.976562 L 73.382812 283.5625 C 73.042969 283.691406 72.691406 283.757812 72.324219 283.765625 C 58.96875 285.960938 45.546875 286.417969 32.070312 285.144531 C 47.457031 300.660156 72.445312 308.402344 108.292969 308.8125 Z M 108.292969 308.8125 " fill-opacity="1" fill-rule="nonzero"/></g><g clip-path="url(#68444ed833)"><g clip-path="url(#2acb8b13ea)"><g clip-path="url(#411a428940)"><path fill="#f4c50b" d="M 326.691406 47.257812 C 325.394531 43.621094 321.394531 41.722656 317.753906 43.015625 C 303.597656 48.058594 270.417969 59.878906 256.265625 64.921875 C 252.625 66.21875 250.726562 70.21875 252.023438 73.855469 C 252.472656 75.117188 252.804688 76.054688 252.804688 76.054688 L 327.472656 49.453125 Z M 252.96875 66.09375 C 248.566406 53.734375 251.3125 40.550781 259.054688 31.074219 C 259.054688 31.074219 258.589844 29.773438 258.097656 28.382812 C 257.785156 27.511719 257.835938 26.546875 258.230469 25.710938 C 258.628906 24.871094 259.34375 24.226562 260.21875 23.917969 C 263.339844 22.804688 267.558594 21.300781 267.558594 21.300781 C 267.558594 21.300781 267.023438 19.503906 266.503906 17.769531 C 265.972656 15.988281 266.929688 14.101562 268.683594 13.476562 C 270.773438 12.730469 273.515625 11.753906 275.609375 11.007812 C 277.359375 10.386719 279.296875 11.242188 280.011719 12.957031 C 280.707031 14.628906 281.429688 16.359375 281.429688 16.359375 C 281.429688 16.359375 285.644531 14.859375 288.769531 13.746094 C 289.640625 13.433594 290.601562 13.484375 291.441406 13.882812 C 292.277344 14.277344 292.925781 14.992188 293.234375 15.867188 C 293.730469 17.253906 294.191406 18.554688 294.191406 18.554688 C 306.1875 21.003906 316.648438 29.484375 321.050781 41.84375 Z M 252.96875 66.09375 " fill-opacity="1" fill-rule="evenodd"/></g></g></g><g clip-path="url(#d0597a15a3)"><g clip-path="url(#1432066b1d)"><g clip-path="url(#0854ef999f)"><path fill="#545454" d="M 251.320312 66.679688 C 249.855469 68.894531 249.414062 71.75 250.375 74.445312 C 250.824219 75.703125 251.15625 76.640625 251.15625 76.640625 C 251.480469 77.550781 252.480469 78.023438 253.390625 77.699219 L 328.058594 51.101562 C 328.96875 50.777344 329.445312 49.777344 329.121094 48.867188 L 328.339844 46.671875 C 327.378906 43.976562 325.230469 42.046875 322.695312 41.257812 C 318.199219 28.632812 307.675781 19.871094 295.515625 17.054688 C 295.515625 17.054688 294.882812 15.28125 294.882812 15.28125 C 294.414062 13.96875 293.449219 12.898438 292.191406 12.300781 C 290.933594 11.707031 289.492188 11.632812 288.179688 12.097656 C 288.179688 12.097656 282.402344 14.15625 282.402344 14.15625 C 282.402344 14.15625 281.625 12.285156 281.625 12.285156 C 280.550781 9.710938 277.652344 8.425781 275.023438 9.363281 C 272.929688 10.105469 270.1875 11.085938 268.097656 11.828125 C 265.46875 12.765625 264.03125 15.59375 264.828125 18.269531 C 264.828125 18.269531 265.410156 20.210938 265.410156 20.210938 C 265.410156 20.210938 259.632812 22.269531 259.632812 22.269531 C 258.320312 22.734375 257.25 23.703125 256.652344 24.960938 C 256.054688 26.21875 255.984375 27.660156 256.449219 28.96875 L 257.082031 30.746094 C 249.4375 40.617188 246.824219 54.058594 251.320312 66.679688 Z M 325.042969 47.84375 L 325.238281 48.394531 C 315.332031 51.921875 263.769531 70.289062 253.863281 73.820312 C 253.863281 73.820312 253.667969 73.269531 253.667969 73.269531 C 252.695312 70.542969 254.121094 67.539062 256.851562 66.570312 C 271.007812 61.527344 304.1875 49.707031 318.34375 44.664062 C 321.070312 43.691406 324.070312 45.117188 325.042969 47.84375 Z M 266.410156 23.566406 L 260.804688 25.5625 C 260.367188 25.71875 260.011719 26.042969 259.8125 26.460938 C 259.613281 26.878906 259.589844 27.359375 259.746094 27.796875 L 264.046875 39.875 C 264.371094 40.785156 263.894531 41.785156 262.988281 42.109375 C 262.078125 42.433594 261.078125 41.957031 260.753906 41.050781 L 258.507812 34.742188 C 252.894531 43.082031 250.988281 53.769531 254.121094 64.007812 C 254.605469 63.71875 255.125 63.472656 255.675781 63.273438 L 276.074219 56.007812 Z M 283.75 17.390625 L 296.769531 48.636719 L 317.167969 41.371094 C 317.722656 41.171875 318.28125 41.035156 318.839844 40.953125 C 314.792969 31.042969 306.558594 23.964844 296.9375 21.050781 L 299.183594 27.359375 C 299.507812 28.269531 299.035156 29.269531 298.125 29.59375 C 297.214844 29.917969 296.214844 29.441406 295.890625 28.53125 L 291.589844 16.453125 C 291.433594 16.015625 291.109375 15.660156 290.691406 15.460938 C 290.273438 15.261719 289.792969 15.238281 289.355469 15.394531 Z M 293.472656 49.8125 L 278.398438 13.632812 C 278.039062 12.773438 277.070312 12.34375 276.195312 12.65625 C 274.105469 13.402344 271.363281 14.378906 269.269531 15.125 C 268.394531 15.4375 267.914062 16.378906 268.179688 17.269531 L 269.234375 20.800781 C 269.234375 20.800781 279.375 54.832031 279.375 54.832031 Z M 293.472656 49.8125 " fill-opacity="1" fill-rule="evenodd"/></g></g></g></svg>